%TF.GenerationSoftware,KiCad,Pcbnew,(6.0.11)*%
%TF.CreationDate,2023-01-31T22:09:30+01:00*%
%TF.ProjectId,corne-light,636f726e-652d-46c6-9967-68742e6b6963,2.0*%
%TF.SameCoordinates,Original*%
%TF.FileFunction,Copper,L2,Bot*%
%TF.FilePolarity,Positive*%
%FSLAX46Y46*%
G04 Gerber Fmt 4.6, Leading zero omitted, Abs format (unit mm)*
G04 Created by KiCad (PCBNEW (6.0.11)) date 2023-01-31 22:09:30*
%MOMM*%
%LPD*%
G01*
G04 APERTURE LIST*
G04 Aperture macros list*
%AMHorizOval*
0 Thick line with rounded ends*
0 $1 width*
0 $2 $3 position (X,Y) of the first rounded end (center of the circle)*
0 $4 $5 position (X,Y) of the second rounded end (center of the circle)*
0 Add line between two ends*
20,1,$1,$2,$3,$4,$5,0*
0 Add two circle primitives to create the rounded ends*
1,1,$1,$2,$3*
1,1,$1,$4,$5*%
G04 Aperture macros list end*
%TA.AperFunction,SMDPad,CuDef*%
%ADD10R,1.300000X1.400000*%
%TD*%
%TA.AperFunction,ComponentPad*%
%ADD11O,1.300000X1.778000*%
%TD*%
%TA.AperFunction,ComponentPad*%
%ADD12R,1.300000X1.778000*%
%TD*%
%TA.AperFunction,ComponentPad*%
%ADD13O,1.397000X1.778000*%
%TD*%
%TA.AperFunction,ComponentPad*%
%ADD14O,2.500000X1.700000*%
%TD*%
%TA.AperFunction,ComponentPad*%
%ADD15C,2.000000*%
%TD*%
%TA.AperFunction,ComponentPad*%
%ADD16HorizOval,2.400000X-0.978148X0.207912X0.978148X-0.207912X0*%
%TD*%
%TA.AperFunction,ComponentPad*%
%ADD17HorizOval,2.400000X-0.238157X-0.137500X0.238157X0.137500X0*%
%TD*%
%TA.AperFunction,ComponentPad*%
%ADD18C,2.400000*%
%TD*%
%TA.AperFunction,ComponentPad*%
%ADD19HorizOval,1.500000X0.735931X-1.249362X-0.735931X1.249362X0*%
%TD*%
%TA.AperFunction,ComponentPad*%
%ADD20HorizOval,1.600000X0.150000X-0.259808X-0.150000X0.259808X0*%
%TD*%
%TA.AperFunction,ComponentPad*%
%ADD21HorizOval,1.500000X0.175000X-0.303109X-0.175000X0.303109X0*%
%TD*%
%TA.AperFunction,ComponentPad*%
%ADD22HorizOval,2.400000X-0.309017X0.951057X0.309017X-0.951057X0*%
%TD*%
%TA.AperFunction,ComponentPad*%
%ADD23HorizOval,2.400000X-0.238157X0.137500X0.238157X-0.137500X0*%
%TD*%
%TA.AperFunction,ComponentPad*%
%ADD24HorizOval,1.500000X0.714014X1.262016X-0.714014X-1.262016X0*%
%TD*%
%TA.AperFunction,ComponentPad*%
%ADD25HorizOval,1.600000X0.150000X0.259808X-0.150000X-0.259808X0*%
%TD*%
%TA.AperFunction,ComponentPad*%
%ADD26HorizOval,1.500000X0.175000X0.303109X-0.175000X-0.303109X0*%
%TD*%
%TA.AperFunction,ComponentPad*%
%ADD27HorizOval,2.400000X-0.669131X-0.743145X0.669131X0.743145X0*%
%TD*%
%TA.AperFunction,ComponentPad*%
%ADD28O,2.400000X2.950000*%
%TD*%
%TA.AperFunction,ComponentPad*%
%ADD29HorizOval,1.500000X1.449945X0.012653X-1.449945X-0.012653X0*%
%TD*%
%TA.AperFunction,ComponentPad*%
%ADD30O,2.200000X1.600000*%
%TD*%
%TA.AperFunction,ComponentPad*%
%ADD31O,2.200000X1.500000*%
%TD*%
%TA.AperFunction,ComponentPad*%
%ADD32HorizOval,2.400000X-0.453990X-0.891007X0.453990X0.891007X0*%
%TD*%
%TA.AperFunction,ComponentPad*%
%ADD33HorizOval,2.400000X-0.071175X0.265630X0.071175X-0.265630X0*%
%TD*%
%TA.AperFunction,ComponentPad*%
%ADD34HorizOval,1.500000X1.397264X0.387496X-1.397264X-0.387496X0*%
%TD*%
%TA.AperFunction,ComponentPad*%
%ADD35HorizOval,1.600000X0.289778X0.077646X-0.289778X-0.077646X0*%
%TD*%
%TA.AperFunction,ComponentPad*%
%ADD36HorizOval,1.500000X0.338074X0.090587X-0.338074X-0.090587X0*%
%TD*%
%TA.AperFunction,ComponentPad*%
%ADD37HorizOval,2.400000X-0.838671X-0.544639X0.838671X0.544639X0*%
%TD*%
%TA.AperFunction,ComponentPad*%
%ADD38HorizOval,2.400000X-0.071175X-0.265630X0.071175X0.265630X0*%
%TD*%
%TA.AperFunction,ComponentPad*%
%ADD39HorizOval,1.500000X1.403814X-0.363051X-1.403814X0.363051X0*%
%TD*%
%TA.AperFunction,ComponentPad*%
%ADD40HorizOval,1.600000X0.289778X-0.077646X-0.289778X0.077646X0*%
%TD*%
%TA.AperFunction,ComponentPad*%
%ADD41HorizOval,1.500000X0.338074X-0.090587X-0.338074X0.090587X0*%
%TD*%
%TA.AperFunction,ComponentPad*%
%ADD42C,1.524000*%
%TD*%
%TA.AperFunction,ViaPad*%
%ADD43C,0.600000*%
%TD*%
%TA.AperFunction,Conductor*%
%ADD44C,0.254000*%
%TD*%
%TA.AperFunction,Conductor*%
%ADD45C,0.250000*%
%TD*%
%TA.AperFunction,Conductor*%
%ADD46C,0.508000*%
%TD*%
G04 APERTURE END LIST*
D10*
%TO.P,D13,2*%
%TO.N,Net-(D13-Pad2)*%
X30187500Y-82141875D03*
%TO.P,D13,1*%
%TO.N,row2*%
X30187500Y-85691875D03*
D11*
%TO.P,D13,2*%
%TO.N,Net-(D13-Pad2)*%
X30187500Y-80916875D03*
D12*
%TO.P,D13,1*%
%TO.N,row2*%
X30187500Y-86916875D03*
%TD*%
D10*
%TO.P,D14,2*%
%TO.N,Net-(D14-Pad2)*%
X33187500Y-82145000D03*
%TO.P,D14,1*%
%TO.N,row2*%
X33187500Y-85695000D03*
D11*
%TO.P,D14,2*%
%TO.N,Net-(D14-Pad2)*%
X33187500Y-80920000D03*
D12*
%TO.P,D14,1*%
%TO.N,row2*%
X33187500Y-86920000D03*
%TD*%
D10*
%TO.P,D34,2*%
%TO.N,Net-(D34-Pad2)*%
X270640700Y-90393900D03*
%TO.P,D34,1*%
%TO.N,row2_r*%
X270640700Y-93943900D03*
D11*
%TO.P,D34,2*%
%TO.N,Net-(D34-Pad2)*%
X270640700Y-89168900D03*
D12*
%TO.P,D34,1*%
%TO.N,row2_r*%
X270640700Y-95168900D03*
%TD*%
D10*
%TO.P,D12,2*%
%TO.N,Net-(D12-Pad2)*%
X109187500Y-58145000D03*
%TO.P,D12,1*%
%TO.N,row1*%
X109187500Y-61695000D03*
D11*
%TO.P,D12,2*%
%TO.N,Net-(D12-Pad2)*%
X109187500Y-56920000D03*
D12*
%TO.P,D12,1*%
%TO.N,row1*%
X109187500Y-62920000D03*
%TD*%
D10*
%TO.P,D33,2*%
%TO.N,Net-(D33-Pad2)*%
X191684847Y-58145432D03*
%TO.P,D33,1*%
%TO.N,row1_r*%
X191684847Y-61695432D03*
D11*
%TO.P,D33,2*%
%TO.N,Net-(D33-Pad2)*%
X191684847Y-56920432D03*
D12*
%TO.P,D33,1*%
%TO.N,row1_r*%
X191684847Y-62920432D03*
%TD*%
D10*
%TO.P,D32,2*%
%TO.N,Net-(D32-Pad2)*%
X194684847Y-58145432D03*
%TO.P,D32,1*%
%TO.N,row1_r*%
X194684847Y-61695432D03*
D11*
%TO.P,D32,2*%
%TO.N,Net-(D32-Pad2)*%
X194684847Y-56920432D03*
D12*
%TO.P,D32,1*%
%TO.N,row1_r*%
X194684847Y-62920432D03*
%TD*%
D10*
%TO.P,D31,2*%
%TO.N,Net-(D31-Pad2)*%
X229684847Y-58140432D03*
%TO.P,D31,1*%
%TO.N,row1_r*%
X229684847Y-61690432D03*
D11*
%TO.P,D31,2*%
%TO.N,Net-(D31-Pad2)*%
X229684847Y-56915432D03*
D12*
%TO.P,D31,1*%
%TO.N,row1_r*%
X229684847Y-62915432D03*
%TD*%
D10*
%TO.P,D30,2*%
%TO.N,Net-(D30-Pad2)*%
X232684847Y-58145432D03*
%TO.P,D30,1*%
%TO.N,row1_r*%
X232684847Y-61695432D03*
D11*
%TO.P,D30,2*%
%TO.N,Net-(D30-Pad2)*%
X232684847Y-56920432D03*
D12*
%TO.P,D30,1*%
%TO.N,row1_r*%
X232684847Y-62920432D03*
%TD*%
D10*
%TO.P,D29,2*%
%TO.N,Net-(D29-Pad2)*%
X267640700Y-71393900D03*
%TO.P,D29,1*%
%TO.N,row1_r*%
X267640700Y-74943900D03*
D11*
%TO.P,D29,2*%
%TO.N,Net-(D29-Pad2)*%
X267640700Y-70168900D03*
D12*
%TO.P,D29,1*%
%TO.N,row1_r*%
X267640700Y-76168900D03*
%TD*%
D10*
%TO.P,D28,2*%
%TO.N,Net-(D28-Pad2)*%
X270640700Y-71393900D03*
%TO.P,D28,1*%
%TO.N,row1_r*%
X270640700Y-74943900D03*
D11*
%TO.P,D28,2*%
%TO.N,Net-(D28-Pad2)*%
X270640700Y-70168900D03*
D12*
%TO.P,D28,1*%
%TO.N,row1_r*%
X270640700Y-76168900D03*
%TD*%
D10*
%TO.P,D27,2*%
%TO.N,Net-(D27-Pad2)*%
X191684847Y-39145432D03*
%TO.P,D27,1*%
%TO.N,row0_r*%
X191684847Y-42695432D03*
D11*
%TO.P,D27,2*%
%TO.N,Net-(D27-Pad2)*%
X191684847Y-37920432D03*
D12*
%TO.P,D27,1*%
%TO.N,row0_r*%
X191684847Y-43920432D03*
%TD*%
D10*
%TO.P,D26,2*%
%TO.N,Net-(D26-Pad2)*%
X194684847Y-39145432D03*
%TO.P,D26,1*%
%TO.N,row0_r*%
X194684847Y-42695432D03*
D11*
%TO.P,D26,2*%
%TO.N,Net-(D26-Pad2)*%
X194684847Y-37920432D03*
D12*
%TO.P,D26,1*%
%TO.N,row0_r*%
X194684847Y-43920432D03*
%TD*%
D10*
%TO.P,D25,2*%
%TO.N,Net-(D25-Pad2)*%
X229684847Y-39140432D03*
%TO.P,D25,1*%
%TO.N,row0_r*%
X229684847Y-42690432D03*
D11*
%TO.P,D25,2*%
%TO.N,Net-(D25-Pad2)*%
X229684847Y-37915432D03*
D12*
%TO.P,D25,1*%
%TO.N,row0_r*%
X229684847Y-43915432D03*
%TD*%
D10*
%TO.P,D24,2*%
%TO.N,Net-(D24-Pad2)*%
X232684847Y-39145432D03*
%TO.P,D24,1*%
%TO.N,row0_r*%
X232684847Y-42695432D03*
D11*
%TO.P,D24,2*%
%TO.N,Net-(D24-Pad2)*%
X232684847Y-37920432D03*
D12*
%TO.P,D24,1*%
%TO.N,row0_r*%
X232684847Y-43920432D03*
%TD*%
D10*
%TO.P,D23,2*%
%TO.N,Net-(D23-Pad2)*%
X267640700Y-52393900D03*
%TO.P,D23,1*%
%TO.N,row0_r*%
X267640700Y-55943900D03*
D11*
%TO.P,D23,2*%
%TO.N,Net-(D23-Pad2)*%
X267640700Y-51168900D03*
D12*
%TO.P,D23,1*%
%TO.N,row0_r*%
X267640700Y-57168900D03*
%TD*%
D10*
%TO.P,D22,2*%
%TO.N,Net-(D22-Pad2)*%
X270640700Y-52393900D03*
%TO.P,D22,1*%
%TO.N,row0_r*%
X270640700Y-55943900D03*
D11*
%TO.P,D22,2*%
%TO.N,Net-(D22-Pad2)*%
X270640700Y-51168900D03*
D12*
%TO.P,D22,1*%
%TO.N,row0_r*%
X270640700Y-57168900D03*
%TD*%
D10*
%TO.P,D42,2*%
%TO.N,Net-(D42-Pad2)*%
X201194847Y-97140432D03*
%TO.P,D42,1*%
%TO.N,row3_r*%
X201194847Y-100690432D03*
D11*
%TO.P,D42,2*%
%TO.N,Net-(D42-Pad2)*%
X201194847Y-95915432D03*
D12*
%TO.P,D42,1*%
%TO.N,row3_r*%
X201194847Y-101915432D03*
%TD*%
D10*
%TO.P,D41,2*%
%TO.N,Net-(D41-Pad2)*%
X204194847Y-97140432D03*
%TO.P,D41,1*%
%TO.N,row3_r*%
X204194847Y-100690432D03*
D11*
%TO.P,D41,2*%
%TO.N,Net-(D41-Pad2)*%
X204194847Y-95915432D03*
D12*
%TO.P,D41,1*%
%TO.N,row3_r*%
X204194847Y-101915432D03*
%TD*%
D10*
%TO.P,D40,2*%
%TO.N,Net-(D40-Pad2)*%
X220184847Y-97155432D03*
%TO.P,D40,1*%
%TO.N,row3_r*%
X220184847Y-100705432D03*
D11*
%TO.P,D40,2*%
%TO.N,Net-(D40-Pad2)*%
X220184847Y-95930432D03*
D12*
%TO.P,D40,1*%
%TO.N,row3_r*%
X220184847Y-101930432D03*
%TD*%
D10*
%TO.P,D39,2*%
%TO.N,Net-(D39-Pad2)*%
X191684847Y-77145432D03*
%TO.P,D39,1*%
%TO.N,row2_r*%
X191684847Y-80695432D03*
D11*
%TO.P,D39,2*%
%TO.N,Net-(D39-Pad2)*%
X191684847Y-75920432D03*
D12*
%TO.P,D39,1*%
%TO.N,row2_r*%
X191684847Y-81920432D03*
%TD*%
D10*
%TO.P,D38,2*%
%TO.N,Net-(D38-Pad2)*%
X194684847Y-77145432D03*
%TO.P,D38,1*%
%TO.N,row2_r*%
X194684847Y-80695432D03*
D11*
%TO.P,D38,2*%
%TO.N,Net-(D38-Pad2)*%
X194684847Y-75920432D03*
D12*
%TO.P,D38,1*%
%TO.N,row2_r*%
X194684847Y-81920432D03*
%TD*%
D10*
%TO.P,D37,2*%
%TO.N,Net-(D37-Pad2)*%
X229684847Y-77140432D03*
%TO.P,D37,1*%
%TO.N,row2_r*%
X229684847Y-80690432D03*
D11*
%TO.P,D37,2*%
%TO.N,Net-(D37-Pad2)*%
X229684847Y-75915432D03*
D12*
%TO.P,D37,1*%
%TO.N,row2_r*%
X229684847Y-81915432D03*
%TD*%
D10*
%TO.P,D36,2*%
%TO.N,Net-(D36-Pad2)*%
X232684847Y-77145432D03*
%TO.P,D36,1*%
%TO.N,row2_r*%
X232684847Y-80695432D03*
D11*
%TO.P,D36,2*%
%TO.N,Net-(D36-Pad2)*%
X232684847Y-75920432D03*
D12*
%TO.P,D36,1*%
%TO.N,row2_r*%
X232684847Y-81920432D03*
%TD*%
D10*
%TO.P,D35,2*%
%TO.N,Net-(D35-Pad2)*%
X267640700Y-90393900D03*
%TO.P,D35,1*%
%TO.N,row2_r*%
X267640700Y-93943900D03*
D11*
%TO.P,D35,2*%
%TO.N,Net-(D35-Pad2)*%
X267640700Y-89168900D03*
D12*
%TO.P,D35,1*%
%TO.N,row2_r*%
X267640700Y-95168900D03*
%TD*%
D10*
%TO.P,D1,2*%
%TO.N,Net-(D1-Pad2)*%
X30187500Y-44141875D03*
%TO.P,D1,1*%
%TO.N,row0*%
X30187500Y-47691875D03*
D11*
%TO.P,D1,2*%
%TO.N,Net-(D1-Pad2)*%
X30187500Y-42916875D03*
D12*
%TO.P,D1,1*%
%TO.N,row0*%
X30187500Y-48916875D03*
%TD*%
D10*
%TO.P,D2,2*%
%TO.N,Net-(D2-Pad2)*%
X33187500Y-44145000D03*
%TO.P,D2,1*%
%TO.N,row0*%
X33187500Y-47695000D03*
D11*
%TO.P,D2,2*%
%TO.N,Net-(D2-Pad2)*%
X33187500Y-42920000D03*
D12*
%TO.P,D2,1*%
%TO.N,row0*%
X33187500Y-48920000D03*
%TD*%
D10*
%TO.P,D3,2*%
%TO.N,Net-(D3-Pad2)*%
X68187500Y-39145000D03*
%TO.P,D3,1*%
%TO.N,row0*%
X68187500Y-42695000D03*
D11*
%TO.P,D3,2*%
%TO.N,Net-(D3-Pad2)*%
X68187500Y-37920000D03*
D12*
%TO.P,D3,1*%
%TO.N,row0*%
X68187500Y-43920000D03*
%TD*%
D10*
%TO.P,D4,2*%
%TO.N,Net-(D4-Pad2)*%
X71187500Y-39140000D03*
%TO.P,D4,1*%
%TO.N,row0*%
X71187500Y-42690000D03*
D11*
%TO.P,D4,2*%
%TO.N,Net-(D4-Pad2)*%
X71187500Y-37915000D03*
D12*
%TO.P,D4,1*%
%TO.N,row0*%
X71187500Y-43915000D03*
%TD*%
D10*
%TO.P,D5,2*%
%TO.N,Net-(D5-Pad2)*%
X106187500Y-39145000D03*
%TO.P,D5,1*%
%TO.N,row0*%
X106187500Y-42695000D03*
D11*
%TO.P,D5,2*%
%TO.N,Net-(D5-Pad2)*%
X106187500Y-37920000D03*
D12*
%TO.P,D5,1*%
%TO.N,row0*%
X106187500Y-43920000D03*
%TD*%
D10*
%TO.P,D6,2*%
%TO.N,Net-(D6-Pad2)*%
X109187500Y-39145000D03*
%TO.P,D6,1*%
%TO.N,row0*%
X109187500Y-42695000D03*
D11*
%TO.P,D6,2*%
%TO.N,Net-(D6-Pad2)*%
X109187500Y-37920000D03*
D12*
%TO.P,D6,1*%
%TO.N,row0*%
X109187500Y-43920000D03*
%TD*%
D10*
%TO.P,D7,2*%
%TO.N,Net-(D7-Pad2)*%
X30187500Y-63141875D03*
%TO.P,D7,1*%
%TO.N,row1*%
X30187500Y-66691875D03*
D11*
%TO.P,D7,2*%
%TO.N,Net-(D7-Pad2)*%
X30187500Y-61916875D03*
D12*
%TO.P,D7,1*%
%TO.N,row1*%
X30187500Y-67916875D03*
%TD*%
D10*
%TO.P,D8,2*%
%TO.N,Net-(D8-Pad2)*%
X33187500Y-63145000D03*
%TO.P,D8,1*%
%TO.N,row1*%
X33187500Y-66695000D03*
D11*
%TO.P,D8,2*%
%TO.N,Net-(D8-Pad2)*%
X33187500Y-61920000D03*
D12*
%TO.P,D8,1*%
%TO.N,row1*%
X33187500Y-67920000D03*
%TD*%
D10*
%TO.P,D9,2*%
%TO.N,Net-(D9-Pad2)*%
X68187500Y-58145000D03*
%TO.P,D9,1*%
%TO.N,row1*%
X68187500Y-61695000D03*
D11*
%TO.P,D9,2*%
%TO.N,Net-(D9-Pad2)*%
X68187500Y-56920000D03*
D12*
%TO.P,D9,1*%
%TO.N,row1*%
X68187500Y-62920000D03*
%TD*%
D10*
%TO.P,D10,2*%
%TO.N,Net-(D10-Pad2)*%
X71187500Y-58140000D03*
%TO.P,D10,1*%
%TO.N,row1*%
X71187500Y-61690000D03*
D11*
%TO.P,D10,2*%
%TO.N,Net-(D10-Pad2)*%
X71187500Y-56915000D03*
D12*
%TO.P,D10,1*%
%TO.N,row1*%
X71187500Y-62915000D03*
%TD*%
D10*
%TO.P,D11,2*%
%TO.N,Net-(D11-Pad2)*%
X106187500Y-58145000D03*
%TO.P,D11,1*%
%TO.N,row1*%
X106187500Y-61695000D03*
D11*
%TO.P,D11,2*%
%TO.N,Net-(D11-Pad2)*%
X106187500Y-56920000D03*
D12*
%TO.P,D11,1*%
%TO.N,row1*%
X106187500Y-62920000D03*
%TD*%
D10*
%TO.P,D15,2*%
%TO.N,Net-(D15-Pad2)*%
X68187500Y-77145000D03*
%TO.P,D15,1*%
%TO.N,row2*%
X68187500Y-80695000D03*
D11*
%TO.P,D15,2*%
%TO.N,Net-(D15-Pad2)*%
X68187500Y-75920000D03*
D12*
%TO.P,D15,1*%
%TO.N,row2*%
X68187500Y-81920000D03*
%TD*%
D10*
%TO.P,D16,2*%
%TO.N,Net-(D16-Pad2)*%
X71187500Y-77140000D03*
%TO.P,D16,1*%
%TO.N,row2*%
X71187500Y-80690000D03*
D11*
%TO.P,D16,2*%
%TO.N,Net-(D16-Pad2)*%
X71187500Y-75915000D03*
D12*
%TO.P,D16,1*%
%TO.N,row2*%
X71187500Y-81915000D03*
%TD*%
D10*
%TO.P,D17,2*%
%TO.N,Net-(D17-Pad2)*%
X106187500Y-77145000D03*
%TO.P,D17,1*%
%TO.N,row2*%
X106187500Y-80695000D03*
D11*
%TO.P,D17,2*%
%TO.N,Net-(D17-Pad2)*%
X106187500Y-75920000D03*
D12*
%TO.P,D17,1*%
%TO.N,row2*%
X106187500Y-81920000D03*
%TD*%
D10*
%TO.P,D18,2*%
%TO.N,Net-(D18-Pad2)*%
X109187500Y-77145000D03*
%TO.P,D18,1*%
%TO.N,row2*%
X109187500Y-80695000D03*
D11*
%TO.P,D18,2*%
%TO.N,Net-(D18-Pad2)*%
X109187500Y-75920000D03*
D12*
%TO.P,D18,1*%
%TO.N,row2*%
X109187500Y-81920000D03*
%TD*%
D10*
%TO.P,D19,2*%
%TO.N,Net-(D19-Pad2)*%
X80507500Y-97135000D03*
%TO.P,D19,1*%
%TO.N,row3*%
X80507500Y-100685000D03*
D11*
%TO.P,D19,2*%
%TO.N,Net-(D19-Pad2)*%
X80507500Y-95910000D03*
D12*
%TO.P,D19,1*%
%TO.N,row3*%
X80507500Y-101910000D03*
%TD*%
D10*
%TO.P,D20,2*%
%TO.N,Net-(D20-Pad2)*%
X96687500Y-97130000D03*
%TO.P,D20,1*%
%TO.N,row3*%
X96687500Y-100680000D03*
D11*
%TO.P,D20,2*%
%TO.N,Net-(D20-Pad2)*%
X96687500Y-95905000D03*
D12*
%TO.P,D20,1*%
%TO.N,row3*%
X96687500Y-101905000D03*
%TD*%
D10*
%TO.P,D21,2*%
%TO.N,Net-(D21-Pad2)*%
X99687500Y-97130000D03*
%TO.P,D21,1*%
%TO.N,row3*%
X99687500Y-100680000D03*
D11*
%TO.P,D21,2*%
%TO.N,Net-(D21-Pad2)*%
X99687500Y-95905000D03*
D12*
%TO.P,D21,1*%
%TO.N,row3*%
X99687500Y-101905000D03*
%TD*%
D13*
%TO.P,J7,4*%
%TO.N,GNDA*%
X167877500Y-77310000D03*
%TO.P,J7,3*%
%TO.N,VDD*%
X165337500Y-77310000D03*
%TO.P,J7,2*%
%TO.N,SCL_r*%
X162797500Y-77310000D03*
%TO.P,J7,1*%
%TO.N,SDA_r*%
X160257500Y-77310000D03*
%TD*%
%TO.P,J2,4*%
%TO.N,GND*%
X140648500Y-77168000D03*
%TO.P,J2,3*%
%TO.N,VCC*%
X138108500Y-77168000D03*
%TO.P,J2,2*%
%TO.N,SCL*%
X135568500Y-77168000D03*
%TO.P,J2,1*%
%TO.N,SDA*%
X133028500Y-77168000D03*
%TD*%
D14*
%TO.P,J6,A*%
%TO.N,Net-(J6-PadA)*%
X166407847Y-86665432D03*
%TO.P,J6,D*%
%TO.N,VDD*%
X164907847Y-82465432D03*
%TO.P,J6,C*%
%TO.N,GNDA*%
X160907847Y-82465432D03*
%TO.P,J6,B*%
%TO.N,data_r*%
X157907847Y-82465432D03*
%TD*%
%TO.P,J1,A*%
%TO.N,Net-(J1-PadA)*%
X134414500Y-82332000D03*
%TO.P,J1,D*%
%TO.N,VCC*%
X135914500Y-86532000D03*
%TO.P,J1,C*%
%TO.N,GND*%
X139914500Y-86532000D03*
%TO.P,J1,B*%
%TO.N,data*%
X142914500Y-86532000D03*
%TD*%
D15*
%TO.P,RSW2,2*%
%TO.N,GNDA*%
X156374847Y-73567432D03*
%TO.P,RSW2,1*%
%TO.N,reset_r*%
X156374847Y-80067432D03*
%TD*%
%TO.P,RSW1,2*%
%TO.N,GND*%
X144504500Y-73421000D03*
%TO.P,RSW1,1*%
%TO.N,reset*%
X144504500Y-79921000D03*
%TD*%
D16*
%TO.P,SW42,1*%
%TO.N,col5_r*%
X170221360Y-100937447D03*
D17*
%TO.P,SW42,2*%
%TO.N,Net-(D42-Pad2)*%
X174341769Y-105060496D03*
D18*
%TO.P,SW42,1*%
%TO.N,col5_r*%
X171148949Y-101130368D03*
D19*
%TO.P,SW42,2*%
%TO.N,Net-(D42-Pad2)*%
X175682996Y-105902767D03*
D20*
%TO.P,SW42,1*%
%TO.N,col5_r*%
X163007348Y-102828702D03*
D21*
%TO.P,SW42,2*%
%TO.N,Net-(D42-Pad2)*%
X163825297Y-108245432D03*
%TD*%
D22*
%TO.P,SW21,1*%
%TO.N,col5*%
X127520118Y-106359840D03*
D23*
%TO.P,SW21,2*%
%TO.N,Net-(D21-Pad2)*%
X129030578Y-100729936D03*
D18*
%TO.P,SW21,1*%
%TO.N,col5*%
X127223398Y-105460064D03*
D24*
%TO.P,SW21,2*%
%TO.N,Net-(D21-Pad2)*%
X129089393Y-99147264D03*
D25*
%TO.P,SW21,1*%
%TO.N,col5*%
X132764999Y-111661730D03*
D26*
%TO.P,SW21,2*%
%TO.N,Net-(D21-Pad2)*%
X137047050Y-108245000D03*
%TD*%
D27*
%TO.P,SW18,1*%
%TO.N,col5*%
X114056631Y-78251855D03*
D28*
%TO.P,SW18,2*%
%TO.N,Net-(D18-Pad2)*%
X119687500Y-76745000D03*
D18*
%TO.P,SW18,1*%
%TO.N,col5*%
X114687500Y-77545000D03*
D29*
%TO.P,SW18,2*%
%TO.N,Net-(D18-Pad2)*%
X121087542Y-76004599D03*
D30*
%TO.P,SW18,1*%
%TO.N,col5*%
X112087500Y-85445000D03*
D31*
%TO.P,SW18,2*%
%TO.N,Net-(D18-Pad2)*%
X117187500Y-87445000D03*
%TD*%
D27*
%TO.P,SW32,1*%
%TO.N,col4_r*%
X199553978Y-56877287D03*
D28*
%TO.P,SW32,2*%
%TO.N,Net-(D32-Pad2)*%
X205184847Y-55370432D03*
D18*
%TO.P,SW32,1*%
%TO.N,col4_r*%
X200184847Y-56170432D03*
D29*
%TO.P,SW32,2*%
%TO.N,Net-(D32-Pad2)*%
X206584889Y-54630031D03*
D30*
%TO.P,SW32,1*%
%TO.N,col4_r*%
X197584847Y-64070432D03*
D31*
%TO.P,SW32,2*%
%TO.N,Net-(D32-Pad2)*%
X202684847Y-66070432D03*
%TD*%
D27*
%TO.P,SW11,1*%
%TO.N,col4*%
X95056631Y-56876855D03*
D28*
%TO.P,SW11,2*%
%TO.N,Net-(D11-Pad2)*%
X100687500Y-55370000D03*
D18*
%TO.P,SW11,1*%
%TO.N,col4*%
X95687500Y-56170000D03*
D29*
%TO.P,SW11,2*%
%TO.N,Net-(D11-Pad2)*%
X102087542Y-54629599D03*
D30*
%TO.P,SW11,1*%
%TO.N,col4*%
X93087500Y-64070000D03*
D31*
%TO.P,SW11,2*%
%TO.N,Net-(D11-Pad2)*%
X98187500Y-66070000D03*
%TD*%
D27*
%TO.P,SW33,1*%
%TO.N,col5_r*%
X180553978Y-59252287D03*
D28*
%TO.P,SW33,2*%
%TO.N,Net-(D33-Pad2)*%
X186184847Y-57745432D03*
D18*
%TO.P,SW33,1*%
%TO.N,col5_r*%
X181184847Y-58545432D03*
D29*
%TO.P,SW33,2*%
%TO.N,Net-(D33-Pad2)*%
X187584889Y-57005031D03*
D30*
%TO.P,SW33,1*%
%TO.N,col5_r*%
X178584847Y-66445432D03*
D31*
%TO.P,SW33,2*%
%TO.N,Net-(D33-Pad2)*%
X183684847Y-68445432D03*
%TD*%
D32*
%TO.P,SW41,1*%
%TO.N,col4_r*%
X187308330Y-99174827D03*
D33*
%TO.P,SW41,2*%
%TO.N,Net-(D41-Pad2)*%
X192357330Y-96261940D03*
D18*
%TO.P,SW41,1*%
%TO.N,col4_r*%
X187734756Y-98328776D03*
D34*
%TO.P,SW41,2*%
%TO.N,Net-(D41-Pad2)*%
X193518037Y-95184410D03*
D35*
%TO.P,SW41,1*%
%TO.N,col4_r*%
X187268020Y-106632520D03*
D36*
%TO.P,SW41,2*%
%TO.N,Net-(D41-Pad2)*%
X192711879Y-107244394D03*
%TD*%
D27*
%TO.P,SW8,1*%
%TO.N,col1*%
X38056631Y-61626855D03*
D28*
%TO.P,SW8,2*%
%TO.N,Net-(D8-Pad2)*%
X43687500Y-60120000D03*
D18*
%TO.P,SW8,1*%
%TO.N,col1*%
X38687500Y-60920000D03*
D29*
%TO.P,SW8,2*%
%TO.N,Net-(D8-Pad2)*%
X45087542Y-59379599D03*
D30*
%TO.P,SW8,1*%
%TO.N,col1*%
X36087500Y-68820000D03*
D31*
%TO.P,SW8,2*%
%TO.N,Net-(D8-Pad2)*%
X41187500Y-70820000D03*
%TD*%
D27*
%TO.P,SW7,1*%
%TO.N,col0*%
X19056631Y-61626855D03*
D28*
%TO.P,SW7,2*%
%TO.N,Net-(D7-Pad2)*%
X24687500Y-60120000D03*
D18*
%TO.P,SW7,1*%
%TO.N,col0*%
X19687500Y-60920000D03*
D29*
%TO.P,SW7,2*%
%TO.N,Net-(D7-Pad2)*%
X26087542Y-59379599D03*
D30*
%TO.P,SW7,1*%
%TO.N,col0*%
X17087500Y-68820000D03*
D31*
%TO.P,SW7,2*%
%TO.N,Net-(D7-Pad2)*%
X22187500Y-70820000D03*
%TD*%
D27*
%TO.P,SW1,1*%
%TO.N,col0*%
X19056631Y-42626855D03*
D28*
%TO.P,SW1,2*%
%TO.N,Net-(D1-Pad2)*%
X24687500Y-41120000D03*
D18*
%TO.P,SW1,1*%
%TO.N,col0*%
X19687500Y-41920000D03*
D29*
%TO.P,SW1,2*%
%TO.N,Net-(D1-Pad2)*%
X26087542Y-40379599D03*
D30*
%TO.P,SW1,1*%
%TO.N,col0*%
X17087500Y-49820000D03*
D31*
%TO.P,SW1,2*%
%TO.N,Net-(D1-Pad2)*%
X22187500Y-51820000D03*
%TD*%
D27*
%TO.P,SW2,1*%
%TO.N,col1*%
X38056631Y-42626855D03*
D28*
%TO.P,SW2,2*%
%TO.N,Net-(D2-Pad2)*%
X43687500Y-41120000D03*
D18*
%TO.P,SW2,1*%
%TO.N,col1*%
X38687500Y-41920000D03*
D29*
%TO.P,SW2,2*%
%TO.N,Net-(D2-Pad2)*%
X45087542Y-40379599D03*
D30*
%TO.P,SW2,1*%
%TO.N,col1*%
X36087500Y-49820000D03*
D31*
%TO.P,SW2,2*%
%TO.N,Net-(D2-Pad2)*%
X41187500Y-51820000D03*
%TD*%
D27*
%TO.P,SW37,1*%
%TO.N,col3_r*%
X218553978Y-73502287D03*
D28*
%TO.P,SW37,2*%
%TO.N,Net-(D37-Pad2)*%
X224184847Y-71995432D03*
D18*
%TO.P,SW37,1*%
%TO.N,col3_r*%
X219184847Y-72795432D03*
D29*
%TO.P,SW37,2*%
%TO.N,Net-(D37-Pad2)*%
X225584889Y-71255031D03*
D30*
%TO.P,SW37,1*%
%TO.N,col3_r*%
X216584847Y-80695432D03*
D31*
%TO.P,SW37,2*%
%TO.N,Net-(D37-Pad2)*%
X221684847Y-82695432D03*
%TD*%
D27*
%TO.P,SW9,1*%
%TO.N,col2*%
X57056631Y-56876855D03*
D28*
%TO.P,SW9,2*%
%TO.N,Net-(D9-Pad2)*%
X62687500Y-55370000D03*
D18*
%TO.P,SW9,1*%
%TO.N,col2*%
X57687500Y-56170000D03*
D29*
%TO.P,SW9,2*%
%TO.N,Net-(D9-Pad2)*%
X64087542Y-54629599D03*
D30*
%TO.P,SW9,1*%
%TO.N,col2*%
X55087500Y-64070000D03*
D31*
%TO.P,SW9,2*%
%TO.N,Net-(D9-Pad2)*%
X60187500Y-66070000D03*
%TD*%
D27*
%TO.P,SW26,1*%
%TO.N,col4_r*%
X199553978Y-37877287D03*
D28*
%TO.P,SW26,2*%
%TO.N,Net-(D26-Pad2)*%
X205184847Y-36370432D03*
D18*
%TO.P,SW26,1*%
%TO.N,col4_r*%
X200184847Y-37170432D03*
D29*
%TO.P,SW26,2*%
%TO.N,Net-(D26-Pad2)*%
X206584889Y-35630031D03*
D30*
%TO.P,SW26,1*%
%TO.N,col4_r*%
X197584847Y-45070432D03*
D31*
%TO.P,SW26,2*%
%TO.N,Net-(D26-Pad2)*%
X202684847Y-47070432D03*
%TD*%
D27*
%TO.P,SW3,1*%
%TO.N,col2*%
X57056631Y-37876855D03*
D28*
%TO.P,SW3,2*%
%TO.N,Net-(D3-Pad2)*%
X62687500Y-36370000D03*
D18*
%TO.P,SW3,1*%
%TO.N,col2*%
X57687500Y-37170000D03*
D29*
%TO.P,SW3,2*%
%TO.N,Net-(D3-Pad2)*%
X64087542Y-35629599D03*
D30*
%TO.P,SW3,1*%
%TO.N,col2*%
X55087500Y-45070000D03*
D31*
%TO.P,SW3,2*%
%TO.N,Net-(D3-Pad2)*%
X60187500Y-47070000D03*
%TD*%
D27*
%TO.P,SW14,1*%
%TO.N,col1*%
X38056631Y-80626855D03*
D28*
%TO.P,SW14,2*%
%TO.N,Net-(D14-Pad2)*%
X43687500Y-79120000D03*
D18*
%TO.P,SW14,1*%
%TO.N,col1*%
X38687500Y-79920000D03*
D29*
%TO.P,SW14,2*%
%TO.N,Net-(D14-Pad2)*%
X45087542Y-78379599D03*
D30*
%TO.P,SW14,1*%
%TO.N,col1*%
X36087500Y-87820000D03*
D31*
%TO.P,SW14,2*%
%TO.N,Net-(D14-Pad2)*%
X41187500Y-89820000D03*
%TD*%
D27*
%TO.P,SW27,1*%
%TO.N,col5_r*%
X180553978Y-40252287D03*
D28*
%TO.P,SW27,2*%
%TO.N,Net-(D27-Pad2)*%
X186184847Y-38745432D03*
D18*
%TO.P,SW27,1*%
%TO.N,col5_r*%
X181184847Y-39545432D03*
D29*
%TO.P,SW27,2*%
%TO.N,Net-(D27-Pad2)*%
X187584889Y-38005031D03*
D30*
%TO.P,SW27,1*%
%TO.N,col5_r*%
X178584847Y-47445432D03*
D31*
%TO.P,SW27,2*%
%TO.N,Net-(D27-Pad2)*%
X183684847Y-49445432D03*
%TD*%
D27*
%TO.P,SW12,1*%
%TO.N,col5*%
X114056631Y-59251855D03*
D28*
%TO.P,SW12,2*%
%TO.N,Net-(D12-Pad2)*%
X119687500Y-57745000D03*
D18*
%TO.P,SW12,1*%
%TO.N,col5*%
X114687500Y-58545000D03*
D29*
%TO.P,SW12,2*%
%TO.N,Net-(D12-Pad2)*%
X121087542Y-57004599D03*
D30*
%TO.P,SW12,1*%
%TO.N,col5*%
X112087500Y-66445000D03*
D31*
%TO.P,SW12,2*%
%TO.N,Net-(D12-Pad2)*%
X117187500Y-68445000D03*
%TD*%
D37*
%TO.P,SW20,1*%
%TO.N,col4*%
X107515641Y-97553738D03*
D38*
%TO.P,SW20,2*%
%TO.N,Net-(D20-Pad2)*%
X113344646Y-97555604D03*
D18*
%TO.P,SW20,1*%
%TO.N,col4*%
X108307962Y-97034249D03*
D39*
%TO.P,SW20,2*%
%TO.N,Net-(D20-Pad2)*%
X114888613Y-97202789D03*
D40*
%TO.P,SW20,1*%
%TO.N,col4*%
X103751884Y-103992134D03*
D41*
%TO.P,SW20,2*%
%TO.N,Net-(D20-Pad2)*%
X108160468Y-107243962D03*
%TD*%
D27*
%TO.P,SW10,1*%
%TO.N,col3*%
X76056631Y-54501855D03*
D28*
%TO.P,SW10,2*%
%TO.N,Net-(D10-Pad2)*%
X81687500Y-52995000D03*
D18*
%TO.P,SW10,1*%
%TO.N,col3*%
X76687500Y-53795000D03*
D29*
%TO.P,SW10,2*%
%TO.N,Net-(D10-Pad2)*%
X83087542Y-52254599D03*
D30*
%TO.P,SW10,1*%
%TO.N,col3*%
X74087500Y-61695000D03*
D31*
%TO.P,SW10,2*%
%TO.N,Net-(D10-Pad2)*%
X79187500Y-63695000D03*
%TD*%
D27*
%TO.P,SW15,1*%
%TO.N,col2*%
X57056631Y-75876855D03*
D28*
%TO.P,SW15,2*%
%TO.N,Net-(D15-Pad2)*%
X62687500Y-74370000D03*
D18*
%TO.P,SW15,1*%
%TO.N,col2*%
X57687500Y-75170000D03*
D29*
%TO.P,SW15,2*%
%TO.N,Net-(D15-Pad2)*%
X64087542Y-73629599D03*
D30*
%TO.P,SW15,1*%
%TO.N,col2*%
X55087500Y-83070000D03*
D31*
%TO.P,SW15,2*%
%TO.N,Net-(D15-Pad2)*%
X60187500Y-85070000D03*
%TD*%
D27*
%TO.P,SW16,1*%
%TO.N,col3*%
X76056631Y-73501855D03*
D28*
%TO.P,SW16,2*%
%TO.N,Net-(D16-Pad2)*%
X81687500Y-71995000D03*
D18*
%TO.P,SW16,1*%
%TO.N,col3*%
X76687500Y-72795000D03*
D29*
%TO.P,SW16,2*%
%TO.N,Net-(D16-Pad2)*%
X83087542Y-71254599D03*
D30*
%TO.P,SW16,1*%
%TO.N,col3*%
X74087500Y-80695000D03*
D31*
%TO.P,SW16,2*%
%TO.N,Net-(D16-Pad2)*%
X79187500Y-82695000D03*
%TD*%
D27*
%TO.P,SW17,1*%
%TO.N,col4*%
X95056631Y-75876855D03*
D28*
%TO.P,SW17,2*%
%TO.N,Net-(D17-Pad2)*%
X100687500Y-74370000D03*
D18*
%TO.P,SW17,1*%
%TO.N,col4*%
X95687500Y-75170000D03*
D29*
%TO.P,SW17,2*%
%TO.N,Net-(D17-Pad2)*%
X102087542Y-73629599D03*
D30*
%TO.P,SW17,1*%
%TO.N,col4*%
X93087500Y-83070000D03*
D31*
%TO.P,SW17,2*%
%TO.N,Net-(D17-Pad2)*%
X98187500Y-85070000D03*
%TD*%
D27*
%TO.P,SW19,1*%
%TO.N,col3*%
X85556631Y-95501855D03*
D28*
%TO.P,SW19,2*%
%TO.N,Net-(D19-Pad2)*%
X91187500Y-93995000D03*
D18*
%TO.P,SW19,1*%
%TO.N,col3*%
X86187500Y-94795000D03*
D29*
%TO.P,SW19,2*%
%TO.N,Net-(D19-Pad2)*%
X92587542Y-93254599D03*
D30*
%TO.P,SW19,1*%
%TO.N,col3*%
X83587500Y-102695000D03*
D31*
%TO.P,SW19,2*%
%TO.N,Net-(D19-Pad2)*%
X88687500Y-104695000D03*
%TD*%
D27*
%TO.P,SW13,1*%
%TO.N,col0*%
X19056631Y-80626855D03*
D28*
%TO.P,SW13,2*%
%TO.N,Net-(D13-Pad2)*%
X24687500Y-79120000D03*
D18*
%TO.P,SW13,1*%
%TO.N,col0*%
X19687500Y-79920000D03*
D29*
%TO.P,SW13,2*%
%TO.N,Net-(D13-Pad2)*%
X26087542Y-78379599D03*
D30*
%TO.P,SW13,1*%
%TO.N,col0*%
X17087500Y-87820000D03*
D31*
%TO.P,SW13,2*%
%TO.N,Net-(D13-Pad2)*%
X22187500Y-89820000D03*
%TD*%
D27*
%TO.P,SW39,1*%
%TO.N,col5_r*%
X180553978Y-78252287D03*
D28*
%TO.P,SW39,2*%
%TO.N,Net-(D39-Pad2)*%
X186184847Y-76745432D03*
D18*
%TO.P,SW39,1*%
%TO.N,col5_r*%
X181184847Y-77545432D03*
D29*
%TO.P,SW39,2*%
%TO.N,Net-(D39-Pad2)*%
X187584889Y-76005031D03*
D30*
%TO.P,SW39,1*%
%TO.N,col5_r*%
X178584847Y-85445432D03*
D31*
%TO.P,SW39,2*%
%TO.N,Net-(D39-Pad2)*%
X183684847Y-87445432D03*
%TD*%
D27*
%TO.P,SW28,1*%
%TO.N,col0_r*%
X275509831Y-69875755D03*
D28*
%TO.P,SW28,2*%
%TO.N,Net-(D28-Pad2)*%
X281140700Y-68368900D03*
D18*
%TO.P,SW28,1*%
%TO.N,col0_r*%
X276140700Y-69168900D03*
D29*
%TO.P,SW28,2*%
%TO.N,Net-(D28-Pad2)*%
X282540742Y-67628499D03*
D30*
%TO.P,SW28,1*%
%TO.N,col0_r*%
X273540700Y-77068900D03*
D31*
%TO.P,SW28,2*%
%TO.N,Net-(D28-Pad2)*%
X278640700Y-79068900D03*
%TD*%
D27*
%TO.P,SW23,1*%
%TO.N,col1_r*%
X256509831Y-50875755D03*
D28*
%TO.P,SW23,2*%
%TO.N,Net-(D23-Pad2)*%
X262140700Y-49368900D03*
D18*
%TO.P,SW23,1*%
%TO.N,col1_r*%
X257140700Y-50168900D03*
D29*
%TO.P,SW23,2*%
%TO.N,Net-(D23-Pad2)*%
X263540742Y-48628499D03*
D30*
%TO.P,SW23,1*%
%TO.N,col1_r*%
X254540700Y-58068900D03*
D31*
%TO.P,SW23,2*%
%TO.N,Net-(D23-Pad2)*%
X259640700Y-60068900D03*
%TD*%
D27*
%TO.P,SW40,1*%
%TO.N,col3_r*%
X209053978Y-95502287D03*
D28*
%TO.P,SW40,2*%
%TO.N,Net-(D40-Pad2)*%
X214684847Y-93995432D03*
D18*
%TO.P,SW40,1*%
%TO.N,col3_r*%
X209684847Y-94795432D03*
D29*
%TO.P,SW40,2*%
%TO.N,Net-(D40-Pad2)*%
X216084889Y-93255031D03*
D30*
%TO.P,SW40,1*%
%TO.N,col3_r*%
X207084847Y-102695432D03*
D31*
%TO.P,SW40,2*%
%TO.N,Net-(D40-Pad2)*%
X212184847Y-104695432D03*
%TD*%
D27*
%TO.P,SW38,1*%
%TO.N,col4_r*%
X199553978Y-75877287D03*
D28*
%TO.P,SW38,2*%
%TO.N,Net-(D38-Pad2)*%
X205184847Y-74370432D03*
D18*
%TO.P,SW38,1*%
%TO.N,col4_r*%
X200184847Y-75170432D03*
D29*
%TO.P,SW38,2*%
%TO.N,Net-(D38-Pad2)*%
X206584889Y-73630031D03*
D30*
%TO.P,SW38,1*%
%TO.N,col4_r*%
X197584847Y-83070432D03*
D31*
%TO.P,SW38,2*%
%TO.N,Net-(D38-Pad2)*%
X202684847Y-85070432D03*
%TD*%
D27*
%TO.P,SW36,1*%
%TO.N,col2_r*%
X237553978Y-75877287D03*
D28*
%TO.P,SW36,2*%
%TO.N,Net-(D36-Pad2)*%
X243184847Y-74370432D03*
D18*
%TO.P,SW36,1*%
%TO.N,col2_r*%
X238184847Y-75170432D03*
D29*
%TO.P,SW36,2*%
%TO.N,Net-(D36-Pad2)*%
X244584889Y-73630031D03*
D30*
%TO.P,SW36,1*%
%TO.N,col2_r*%
X235584847Y-83070432D03*
D31*
%TO.P,SW36,2*%
%TO.N,Net-(D36-Pad2)*%
X240684847Y-85070432D03*
%TD*%
D27*
%TO.P,SW35,1*%
%TO.N,col1_r*%
X256509831Y-88875755D03*
D28*
%TO.P,SW35,2*%
%TO.N,Net-(D35-Pad2)*%
X262140700Y-87368900D03*
D18*
%TO.P,SW35,1*%
%TO.N,col1_r*%
X257140700Y-88168900D03*
D29*
%TO.P,SW35,2*%
%TO.N,Net-(D35-Pad2)*%
X263540742Y-86628499D03*
D30*
%TO.P,SW35,1*%
%TO.N,col1_r*%
X254540700Y-96068900D03*
D31*
%TO.P,SW35,2*%
%TO.N,Net-(D35-Pad2)*%
X259640700Y-98068900D03*
%TD*%
D27*
%TO.P,SW34,1*%
%TO.N,col0_r*%
X275509831Y-88875755D03*
D28*
%TO.P,SW34,2*%
%TO.N,Net-(D34-Pad2)*%
X281140700Y-87368900D03*
D18*
%TO.P,SW34,1*%
%TO.N,col0_r*%
X276140700Y-88168900D03*
D29*
%TO.P,SW34,2*%
%TO.N,Net-(D34-Pad2)*%
X282540742Y-86628499D03*
D30*
%TO.P,SW34,1*%
%TO.N,col0_r*%
X273540700Y-96068900D03*
D31*
%TO.P,SW34,2*%
%TO.N,Net-(D34-Pad2)*%
X278640700Y-98068900D03*
%TD*%
D27*
%TO.P,SW31,1*%
%TO.N,col3_r*%
X218553978Y-54502287D03*
D28*
%TO.P,SW31,2*%
%TO.N,Net-(D31-Pad2)*%
X224184847Y-52995432D03*
D18*
%TO.P,SW31,1*%
%TO.N,col3_r*%
X219184847Y-53795432D03*
D29*
%TO.P,SW31,2*%
%TO.N,Net-(D31-Pad2)*%
X225584889Y-52255031D03*
D30*
%TO.P,SW31,1*%
%TO.N,col3_r*%
X216584847Y-61695432D03*
D31*
%TO.P,SW31,2*%
%TO.N,Net-(D31-Pad2)*%
X221684847Y-63695432D03*
%TD*%
D27*
%TO.P,SW30,1*%
%TO.N,col2_r*%
X237553978Y-56877287D03*
D28*
%TO.P,SW30,2*%
%TO.N,Net-(D30-Pad2)*%
X243184847Y-55370432D03*
D18*
%TO.P,SW30,1*%
%TO.N,col2_r*%
X238184847Y-56170432D03*
D29*
%TO.P,SW30,2*%
%TO.N,Net-(D30-Pad2)*%
X244584889Y-54630031D03*
D30*
%TO.P,SW30,1*%
%TO.N,col2_r*%
X235584847Y-64070432D03*
D31*
%TO.P,SW30,2*%
%TO.N,Net-(D30-Pad2)*%
X240684847Y-66070432D03*
%TD*%
D27*
%TO.P,SW29,1*%
%TO.N,col1_r*%
X256509831Y-69875755D03*
D28*
%TO.P,SW29,2*%
%TO.N,Net-(D29-Pad2)*%
X262140700Y-68368900D03*
D18*
%TO.P,SW29,1*%
%TO.N,col1_r*%
X257140700Y-69168900D03*
D29*
%TO.P,SW29,2*%
%TO.N,Net-(D29-Pad2)*%
X263540742Y-67628499D03*
D30*
%TO.P,SW29,1*%
%TO.N,col1_r*%
X254540700Y-77068900D03*
D31*
%TO.P,SW29,2*%
%TO.N,Net-(D29-Pad2)*%
X259640700Y-79068900D03*
%TD*%
D27*
%TO.P,SW25,1*%
%TO.N,col3_r*%
X218553978Y-35502287D03*
D28*
%TO.P,SW25,2*%
%TO.N,Net-(D25-Pad2)*%
X224184847Y-33995432D03*
D18*
%TO.P,SW25,1*%
%TO.N,col3_r*%
X219184847Y-34795432D03*
D29*
%TO.P,SW25,2*%
%TO.N,Net-(D25-Pad2)*%
X225584889Y-33255031D03*
D30*
%TO.P,SW25,1*%
%TO.N,col3_r*%
X216584847Y-42695432D03*
D31*
%TO.P,SW25,2*%
%TO.N,Net-(D25-Pad2)*%
X221684847Y-44695432D03*
%TD*%
D27*
%TO.P,SW24,1*%
%TO.N,col2_r*%
X237553978Y-37877287D03*
D28*
%TO.P,SW24,2*%
%TO.N,Net-(D24-Pad2)*%
X243184847Y-36370432D03*
D18*
%TO.P,SW24,1*%
%TO.N,col2_r*%
X238184847Y-37170432D03*
D29*
%TO.P,SW24,2*%
%TO.N,Net-(D24-Pad2)*%
X244584889Y-35630031D03*
D30*
%TO.P,SW24,1*%
%TO.N,col2_r*%
X235584847Y-45070432D03*
D31*
%TO.P,SW24,2*%
%TO.N,Net-(D24-Pad2)*%
X240684847Y-47070432D03*
%TD*%
D27*
%TO.P,SW22,1*%
%TO.N,col0_r*%
X275509831Y-50875755D03*
D28*
%TO.P,SW22,2*%
%TO.N,Net-(D22-Pad2)*%
X281140700Y-49368900D03*
D18*
%TO.P,SW22,1*%
%TO.N,col0_r*%
X276140700Y-50168900D03*
D29*
%TO.P,SW22,2*%
%TO.N,Net-(D22-Pad2)*%
X282540742Y-48628499D03*
D30*
%TO.P,SW22,1*%
%TO.N,col0_r*%
X273540700Y-58068900D03*
D31*
%TO.P,SW22,2*%
%TO.N,Net-(D22-Pad2)*%
X278640700Y-60068900D03*
%TD*%
D27*
%TO.P,SW4,1*%
%TO.N,col3*%
X76056631Y-35501855D03*
D28*
%TO.P,SW4,2*%
%TO.N,Net-(D4-Pad2)*%
X81687500Y-33995000D03*
D18*
%TO.P,SW4,1*%
%TO.N,col3*%
X76687500Y-34795000D03*
D29*
%TO.P,SW4,2*%
%TO.N,Net-(D4-Pad2)*%
X83087542Y-33254599D03*
D30*
%TO.P,SW4,1*%
%TO.N,col3*%
X74087500Y-42695000D03*
D31*
%TO.P,SW4,2*%
%TO.N,Net-(D4-Pad2)*%
X79187500Y-44695000D03*
%TD*%
D27*
%TO.P,SW5,1*%
%TO.N,col4*%
X95056631Y-37876855D03*
D28*
%TO.P,SW5,2*%
%TO.N,Net-(D5-Pad2)*%
X100687500Y-36370000D03*
D18*
%TO.P,SW5,1*%
%TO.N,col4*%
X95687500Y-37170000D03*
D29*
%TO.P,SW5,2*%
%TO.N,Net-(D5-Pad2)*%
X102087542Y-35629599D03*
D30*
%TO.P,SW5,1*%
%TO.N,col4*%
X93087500Y-45070000D03*
D31*
%TO.P,SW5,2*%
%TO.N,Net-(D5-Pad2)*%
X98187500Y-47070000D03*
%TD*%
D27*
%TO.P,SW6,1*%
%TO.N,col5*%
X114056631Y-40251855D03*
D28*
%TO.P,SW6,2*%
%TO.N,Net-(D6-Pad2)*%
X119687500Y-38745000D03*
D18*
%TO.P,SW6,1*%
%TO.N,col5*%
X114687500Y-39545000D03*
D29*
%TO.P,SW6,2*%
%TO.N,Net-(D6-Pad2)*%
X121087542Y-38004599D03*
D30*
%TO.P,SW6,1*%
%TO.N,col5*%
X112087500Y-47445000D03*
D31*
%TO.P,SW6,2*%
%TO.N,Net-(D6-Pad2)*%
X117187500Y-49445000D03*
%TD*%
D42*
%TO.P,U2,24*%
%TO.N,Net-(U2-Pad24)*%
X156454247Y-42208432D03*
%TO.P,U2,23*%
%TO.N,GNDA*%
X156454247Y-44748432D03*
%TO.P,U2,22*%
%TO.N,reset_r*%
X156454247Y-47288432D03*
%TO.P,U2,21*%
%TO.N,VDD*%
X156454247Y-49828432D03*
%TO.P,U2,20*%
%TO.N,col0_r*%
X156454247Y-52368432D03*
%TO.P,U2,19*%
%TO.N,col1_r*%
X156454247Y-54908432D03*
%TO.P,U2,18*%
%TO.N,col2_r*%
X156454247Y-57448432D03*
%TO.P,U2,17*%
%TO.N,col3_r*%
X156454247Y-59988432D03*
%TO.P,U2,16*%
%TO.N,col4_r*%
X156454247Y-62528432D03*
%TO.P,U2,15*%
%TO.N,col5_r*%
X156454247Y-65068432D03*
%TO.P,U2,14*%
%TO.N,Net-(U2-Pad14)*%
X156454247Y-67608432D03*
%TO.P,U2,13*%
%TO.N,Net-(U2-Pad13)*%
X156454247Y-70148432D03*
%TO.P,U2,12*%
%TO.N,Net-(U2-Pad12)*%
X171674247Y-70148432D03*
%TO.P,U2,11*%
%TO.N,Net-(U2-Pad11)*%
X171674247Y-67608432D03*
%TO.P,U2,10*%
%TO.N,row3_r*%
X171674247Y-65068432D03*
%TO.P,U2,9*%
%TO.N,row2_r*%
X171674247Y-62528432D03*
%TO.P,U2,8*%
%TO.N,row1_r*%
X171674247Y-59988432D03*
%TO.P,U2,7*%
%TO.N,row0_r*%
X171674247Y-57448432D03*
%TO.P,U2,6*%
%TO.N,SCL_r*%
X171674247Y-54908432D03*
%TO.P,U2,5*%
%TO.N,SDA_r*%
X171674247Y-52368432D03*
%TO.P,U2,4*%
%TO.N,GNDA*%
X171674247Y-49828432D03*
%TO.P,U2,3*%
X171674247Y-47288432D03*
%TO.P,U2,2*%
%TO.N,data_r*%
X171674247Y-44748432D03*
%TO.P,U2,1*%
%TO.N,Net-(U2-Pad1)*%
X171674247Y-42208432D03*
%TD*%
%TO.P,U1,24*%
%TO.N,Net-(U1-Pad24)*%
X129283900Y-42082000D03*
%TO.P,U1,23*%
%TO.N,GND*%
X129283900Y-44622000D03*
%TO.P,U1,22*%
%TO.N,reset*%
X129283900Y-47162000D03*
%TO.P,U1,21*%
%TO.N,VCC*%
X129283900Y-49702000D03*
%TO.P,U1,20*%
%TO.N,col0*%
X129283900Y-52242000D03*
%TO.P,U1,19*%
%TO.N,col1*%
X129283900Y-54782000D03*
%TO.P,U1,18*%
%TO.N,col2*%
X129283900Y-57322000D03*
%TO.P,U1,17*%
%TO.N,col3*%
X129283900Y-59862000D03*
%TO.P,U1,16*%
%TO.N,col4*%
X129283900Y-62402000D03*
%TO.P,U1,15*%
%TO.N,col5*%
X129283900Y-64942000D03*
%TO.P,U1,14*%
%TO.N,Net-(U1-Pad14)*%
X129283900Y-67482000D03*
%TO.P,U1,13*%
%TO.N,Net-(U1-Pad13)*%
X129283900Y-70022000D03*
%TO.P,U1,12*%
%TO.N,Net-(U1-Pad12)*%
X144503900Y-70022000D03*
%TO.P,U1,11*%
%TO.N,Net-(U1-Pad11)*%
X144503900Y-67482000D03*
%TO.P,U1,10*%
%TO.N,row3*%
X144503900Y-64942000D03*
%TO.P,U1,9*%
%TO.N,row2*%
X144503900Y-62402000D03*
%TO.P,U1,8*%
%TO.N,row1*%
X144503900Y-59862000D03*
%TO.P,U1,7*%
%TO.N,row0*%
X144503900Y-57322000D03*
%TO.P,U1,6*%
%TO.N,SCL*%
X144503900Y-54782000D03*
%TO.P,U1,5*%
%TO.N,SDA*%
X144503900Y-52242000D03*
%TO.P,U1,4*%
%TO.N,GND*%
X144503900Y-49702000D03*
%TO.P,U1,3*%
X144503900Y-47162000D03*
%TO.P,U1,2*%
%TO.N,data*%
X144503900Y-44622000D03*
%TO.P,U1,1*%
%TO.N,Net-(U1-Pad1)*%
X144503900Y-42082000D03*
%TD*%
D43*
%TO.N,col0*%
X34697500Y-67410000D03*
%TO.N,col1*%
X37984500Y-69494000D03*
%TO.N,col2*%
X56884500Y-71461010D03*
%TO.N,col3*%
X75637500Y-71190000D03*
%TO.N,col4*%
X94797500Y-70620000D03*
%TO.N,col5*%
X113984500Y-72835062D03*
%TO.N,row2_r*%
X175514847Y-75010432D03*
X175514847Y-68200433D03*
%TO.N,row3_r*%
X174894847Y-75770432D03*
X174964847Y-67370432D03*
%TO.N,col0_r*%
X265600700Y-76965910D03*
%TO.N,col2_r*%
X236382717Y-69847442D03*
%TO.N,col3_r*%
X217444847Y-70301453D03*
%TO.N,col4_r*%
X198523797Y-70834414D03*
%TO.N,col5_r*%
X179944847Y-73240420D03*
%TD*%
D44*
%TO.N,row2_r*%
X232697500Y-83073085D02*
X232697500Y-80910000D01*
X251574900Y-92686437D02*
X251574900Y-88465800D01*
X251574900Y-88465800D02*
X250203300Y-87094200D01*
X253227363Y-94338900D02*
X251574900Y-92686437D01*
X236718615Y-87094200D02*
X232697500Y-83073085D01*
X255670700Y-94338900D02*
X253227363Y-94338900D01*
X257060700Y-95728900D02*
X255670700Y-94338900D01*
X266082921Y-95728900D02*
X257060700Y-95728900D01*
X250203300Y-87094200D02*
X236718615Y-87094200D01*
X267778353Y-94033468D02*
X266082921Y-95728900D01*
%TO.N,col1_r*%
X247152743Y-69108443D02*
X248120500Y-70076200D01*
X236445737Y-69108443D02*
X247152743Y-69108443D01*
X236425696Y-69088402D02*
X236445737Y-69108443D01*
X192040679Y-69088402D02*
X236425696Y-69088402D01*
X174552619Y-72244388D02*
X175622570Y-71174437D01*
X175622570Y-71174437D02*
X189954644Y-71174437D01*
X189954644Y-71174437D02*
X192040679Y-69088402D01*
X166198475Y-72244388D02*
X174552619Y-72244388D01*
X159680838Y-65726751D02*
X166198475Y-72244388D01*
X156454247Y-54908432D02*
X159680837Y-58135022D01*
X159680837Y-58135022D02*
X159680838Y-65726751D01*
D45*
X251689465Y-77354911D02*
X254254689Y-77354911D01*
X254254689Y-77354911D02*
X254540700Y-77068900D01*
X248120500Y-70127000D02*
X248120500Y-73785946D01*
X248120500Y-73785946D02*
X251689465Y-77354911D01*
D44*
%TO.N,row1_r*%
X236821847Y-68200432D02*
X232684847Y-64063432D01*
X232684847Y-64063432D02*
X232684847Y-61785000D01*
X232684847Y-61785000D02*
X229572500Y-61785000D01*
X248918784Y-68200432D02*
X236821847Y-68200432D01*
X252641700Y-71923348D02*
X248918784Y-68200432D01*
X252641700Y-71955800D02*
X252641700Y-71923348D01*
%TO.N,col0_r*%
X248730743Y-68654443D02*
X252184500Y-72108200D01*
X236633790Y-68654443D02*
X248730743Y-68654443D01*
X236613739Y-68634392D02*
X236633790Y-68654443D01*
X191852622Y-68634391D02*
X236613739Y-68634392D01*
X166386532Y-71790377D02*
X174364562Y-71790377D01*
X174364562Y-71790377D02*
X175434513Y-70720426D01*
X160134848Y-65538693D02*
X166386532Y-71790377D01*
X189766587Y-70720426D02*
X191852622Y-68634391D01*
X160134847Y-56049032D02*
X160134848Y-65538693D01*
X156454247Y-52368432D02*
X160134847Y-56049032D01*
X175434513Y-70720426D02*
X189766587Y-70720426D01*
X257215642Y-76965910D02*
X265600700Y-76965910D01*
X253882694Y-75358900D02*
X255608632Y-75358900D01*
X255608632Y-75358900D02*
X257215642Y-76965910D01*
X252184500Y-73660706D02*
X253882694Y-75358900D01*
X252184500Y-72108200D02*
X252184500Y-73660706D01*
%TO.N,row1_r*%
X254070736Y-74904889D02*
X252641700Y-73475853D01*
X252641700Y-73475853D02*
X252641700Y-71905000D01*
X255796689Y-74904889D02*
X254070736Y-74904889D01*
X266347921Y-76338900D02*
X257230700Y-76338900D01*
X257230700Y-76338900D02*
X255796689Y-74904889D01*
X267778353Y-74908468D02*
X266347921Y-76338900D01*
%TO.N,row0_r*%
X232684847Y-44880432D02*
X232684847Y-42785000D01*
X237814615Y-50010200D02*
X232684847Y-44880432D01*
X247206100Y-50010200D02*
X237814615Y-50010200D01*
X253352900Y-56157000D02*
X247206100Y-50010200D01*
%TO.N,row0*%
X33184375Y-48916875D02*
X33187500Y-48920000D01*
D45*
X31309869Y-52660000D02*
X30197500Y-51547631D01*
X32085131Y-52660000D02*
X31309869Y-52660000D01*
X33197500Y-48930000D02*
X33197500Y-51547631D01*
X30197500Y-48926875D02*
X30187500Y-48916875D01*
X33197500Y-51547631D02*
X32085131Y-52660000D01*
X30197500Y-51547631D02*
X30197500Y-48926875D01*
X33187500Y-48920000D02*
X33197500Y-48930000D01*
D44*
X96294500Y-44224000D02*
X104883500Y-44224000D01*
X95134500Y-43064000D02*
X96294500Y-44224000D01*
X73001500Y-44714000D02*
X75834500Y-44714000D01*
X75834500Y-44714000D02*
X77484500Y-43064000D01*
X33197500Y-47660000D02*
X37020500Y-47660000D01*
X77484500Y-43064000D02*
X95134500Y-43064000D01*
X70947500Y-42660000D02*
X73001500Y-44714000D01*
X104883500Y-44224000D02*
X106197500Y-42910000D01*
X68322500Y-42660000D02*
X70947500Y-42660000D01*
X61768500Y-49214000D02*
X68322500Y-42660000D01*
X38574500Y-49214000D02*
X61768500Y-49214000D01*
X37020500Y-47660000D02*
X38574500Y-49214000D01*
X106322500Y-42910000D02*
X109187500Y-42910000D01*
X106197500Y-42785000D02*
X106322500Y-42910000D01*
X143741901Y-56560001D02*
X144503900Y-57322000D01*
X142548511Y-55366611D02*
X143741901Y-56560001D01*
X142548511Y-51458011D02*
X142548511Y-55366611D01*
X109197500Y-42910000D02*
X109197500Y-43285000D01*
X140384500Y-49294000D02*
X142548511Y-51458011D01*
X131084500Y-49294000D02*
X140384500Y-49294000D01*
X130274500Y-48484000D02*
X131084500Y-49294000D01*
X113994500Y-45514000D02*
X115254500Y-46774000D01*
X126674500Y-46774000D02*
X128384500Y-48484000D01*
X109197500Y-43285000D02*
X111426500Y-45514000D01*
X111426500Y-45514000D02*
X113994500Y-45514000D01*
X115254500Y-46774000D02*
X126674500Y-46774000D01*
X128384500Y-48484000D02*
X130274500Y-48484000D01*
D45*
X30187500Y-48916875D02*
X30187500Y-47691875D01*
X33187500Y-48920000D02*
X33187500Y-47695000D01*
X68187500Y-43920000D02*
X68187500Y-42695000D01*
X71187500Y-43915000D02*
X71187500Y-42690000D01*
X106187500Y-43920000D02*
X106187500Y-42695000D01*
X109187500Y-43920000D02*
X109187500Y-42695000D01*
%TO.N,Net-(D1-Pad2)*%
X30187500Y-44141875D02*
X30197500Y-44131875D01*
D44*
X30197500Y-43535000D02*
X30197500Y-44285000D01*
X27502500Y-40840000D02*
X30197500Y-43535000D01*
X24727500Y-40840000D02*
X27502500Y-40840000D01*
D45*
X30187500Y-42916875D02*
X30187500Y-44141875D01*
D44*
%TO.N,row1*%
X33184375Y-67916875D02*
X33187500Y-67920000D01*
X142094500Y-51704000D02*
X142094500Y-57452600D01*
X140184500Y-49794000D02*
X142094500Y-51704000D01*
X131084500Y-49794000D02*
X140184500Y-49794000D01*
X129874500Y-51004000D02*
X131084500Y-49794000D01*
X128714500Y-51004000D02*
X129874500Y-51004000D01*
X124520490Y-55198010D02*
X128714500Y-51004000D01*
X124520489Y-65828011D02*
X124520490Y-55198010D01*
X122154500Y-68194000D02*
X124520489Y-65828011D01*
X143741901Y-59100001D02*
X144503900Y-59862000D01*
X142094500Y-57452600D02*
X143741901Y-59100001D01*
D45*
X110996440Y-69905940D02*
X109187500Y-68097000D01*
X120442560Y-69905940D02*
X110996440Y-69905940D01*
X109187500Y-64059000D02*
X109187500Y-62920000D01*
X109187500Y-68097000D02*
X109187500Y-64059000D01*
X122154500Y-68194000D02*
X120442560Y-69905940D01*
X30197500Y-70660000D02*
X30197500Y-67926875D01*
X32097762Y-71660000D02*
X31197500Y-71660000D01*
X30197500Y-67926875D02*
X30187500Y-67916875D01*
X31197500Y-71660000D02*
X30197500Y-70660000D01*
X33197500Y-70560262D02*
X32097762Y-71660000D01*
X33197500Y-67930000D02*
X33197500Y-70560262D01*
X33187500Y-67920000D02*
X33197500Y-67930000D01*
D44*
X109187500Y-61910000D02*
X109187500Y-62920000D01*
X106197500Y-61910000D02*
X109187500Y-61910000D01*
X95994500Y-63414000D02*
X104693500Y-63414000D01*
X77604500Y-62124000D02*
X94704500Y-62124000D01*
X33187500Y-66777000D02*
X33256511Y-66707989D01*
X72911500Y-63624000D02*
X76104500Y-63624000D01*
X104693500Y-63414000D02*
X106197500Y-61910000D01*
X71197500Y-61785000D02*
X71197500Y-61910000D01*
X68447500Y-61785000D02*
X71197500Y-61785000D01*
X38608459Y-68127959D02*
X62104541Y-68127959D01*
X37188489Y-66707989D02*
X38608459Y-68127959D01*
X33187500Y-67920000D02*
X33187500Y-66777000D01*
X71197500Y-61910000D02*
X72911500Y-63624000D01*
X62104541Y-68127959D02*
X68447500Y-61785000D01*
X33256511Y-66707989D02*
X37188489Y-66707989D01*
X94704500Y-62124000D02*
X95994500Y-63414000D01*
X76104500Y-63624000D02*
X77604500Y-62124000D01*
D45*
X30187500Y-67916875D02*
X30187500Y-66691875D01*
X33187500Y-67920000D02*
X33187500Y-66695000D01*
X68187500Y-62920000D02*
X68187500Y-61695000D01*
X71187500Y-62915000D02*
X71187500Y-61690000D01*
X106187500Y-62920000D02*
X106187500Y-61695000D01*
X109187500Y-62920000D02*
X109187500Y-61695000D01*
D44*
%TO.N,Net-(D2-Pad2)*%
X37032500Y-39950000D02*
X33197500Y-43785000D01*
X33197500Y-43785000D02*
X33197500Y-44160000D01*
X42837500Y-39950000D02*
X37032500Y-39950000D01*
X43727500Y-40840000D02*
X42837500Y-39950000D01*
D45*
X33187500Y-42920000D02*
X33187500Y-44145000D01*
D44*
%TO.N,row2*%
X143741901Y-63163999D02*
X144503900Y-62402000D01*
X142124500Y-72774000D02*
X142124500Y-64781400D01*
X139624500Y-75274000D02*
X142124500Y-72774000D01*
X131631900Y-75274000D02*
X139624500Y-75274000D01*
X142124500Y-64781400D02*
X143741901Y-63163999D01*
X121555900Y-85350000D02*
X131631900Y-75274000D01*
X115847500Y-85350000D02*
X121555900Y-85350000D01*
D45*
X33197500Y-86930000D02*
X33187500Y-86920000D01*
X33197500Y-91472500D02*
X33197500Y-86930000D01*
X31385000Y-92660000D02*
X32010000Y-92660000D01*
X32010000Y-92660000D02*
X33197500Y-91472500D01*
X30197500Y-91472500D02*
X31385000Y-92660000D01*
X30197500Y-86926875D02*
X30197500Y-91472500D01*
X30187500Y-86916875D02*
X30197500Y-86926875D01*
D44*
X68072500Y-81035000D02*
X68072500Y-80785000D01*
X38384500Y-87234000D02*
X61873500Y-87234000D01*
X36935500Y-85785000D02*
X38384500Y-87234000D01*
X33447500Y-85785000D02*
X36935500Y-85785000D01*
X61873500Y-87234000D02*
X68072500Y-81035000D01*
X33322500Y-85910000D02*
X33447500Y-85785000D01*
X105947500Y-80910000D02*
X108947500Y-80910000D01*
X104433500Y-82424000D02*
X105947500Y-80910000D01*
X108947500Y-80910000D02*
X109197500Y-81160000D01*
X74943500Y-82414000D02*
X76393500Y-80964000D01*
X72701500Y-82414000D02*
X74943500Y-82414000D01*
X68322500Y-80785000D02*
X71072500Y-80785000D01*
X96334500Y-82424000D02*
X104433500Y-82424000D01*
X109197500Y-81160000D02*
X109322500Y-81160000D01*
X71072500Y-80785000D02*
X72701500Y-82414000D01*
X76393500Y-80964000D02*
X94874500Y-80964000D01*
X94874500Y-80964000D02*
X96334500Y-82424000D01*
X68177500Y-80930000D02*
X68322500Y-80785000D01*
D45*
X115727500Y-85350000D02*
X115837500Y-85350000D01*
X111622500Y-83710000D02*
X114087500Y-83710000D01*
X109197500Y-81285000D02*
X111622500Y-83710000D01*
X114087500Y-83710000D02*
X115727500Y-85350000D01*
X109197500Y-81035000D02*
X109197500Y-81285000D01*
X30187500Y-86916875D02*
X30187500Y-85691875D01*
X33187500Y-86920000D02*
X33187500Y-85695000D01*
X68187500Y-81920000D02*
X68187500Y-80695000D01*
X71187500Y-81915000D02*
X71187500Y-80690000D01*
X106187500Y-80695000D02*
X106187500Y-81920000D01*
X109187500Y-81920000D02*
X109187500Y-80695000D01*
D44*
%TO.N,Net-(D3-Pad2)*%
X65127500Y-36090000D02*
X68072500Y-39035000D01*
X62727500Y-36090000D02*
X65127500Y-36090000D01*
D45*
X68187500Y-37920000D02*
X68187500Y-39145000D01*
D44*
%TO.N,row3*%
X99572500Y-100660000D02*
X99697500Y-100785000D01*
X86465500Y-101905000D02*
X95452500Y-101905000D01*
X80572500Y-100660000D02*
X85220500Y-100660000D01*
X96697500Y-100660000D02*
X99572500Y-100660000D01*
X95452500Y-101905000D02*
X96697500Y-100660000D01*
X85220500Y-100660000D02*
X86465500Y-101905000D01*
D45*
X80507500Y-101910000D02*
X80507500Y-100685000D01*
X96687500Y-101905000D02*
X96687500Y-100680000D01*
X99687500Y-101905000D02*
X99687500Y-100680000D01*
D44*
X95484500Y-99072000D02*
X96687500Y-100275000D01*
X95484500Y-95248000D02*
X95484500Y-99072000D01*
X113584500Y-94094000D02*
X110003568Y-94094000D01*
X101210212Y-94085980D02*
X101202192Y-94094000D01*
X109995547Y-94085979D02*
X101210212Y-94085980D01*
X110003568Y-94094000D02*
X109995547Y-94085979D01*
X142578511Y-66867389D02*
X142578511Y-72962057D01*
X101202192Y-94094000D02*
X96638500Y-94094000D01*
X144503900Y-64942000D02*
X142578511Y-66867389D01*
X131950489Y-75728011D02*
X113584500Y-94094000D01*
X142578511Y-72962057D02*
X139812558Y-75728010D01*
X139812558Y-75728010D02*
X131950489Y-75728011D01*
X96638500Y-94094000D02*
X95484500Y-95248000D01*
%TO.N,Net-(D4-Pad2)*%
X71197500Y-37010000D02*
X71197500Y-39035000D01*
X75257500Y-32950000D02*
X71197500Y-37010000D01*
X80962500Y-32950000D02*
X75257500Y-32950000D01*
X81727500Y-33715000D02*
X80962500Y-32950000D01*
D45*
X71187500Y-37915000D02*
X71187500Y-39140000D01*
D44*
%TO.N,Net-(D5-Pad2)*%
X106197500Y-38785000D02*
X106197500Y-39160000D01*
X103502500Y-36090000D02*
X106197500Y-38785000D01*
X100727500Y-36090000D02*
X103502500Y-36090000D01*
D45*
X106187500Y-37920000D02*
X106187500Y-39145000D01*
D44*
%TO.N,Net-(D6-Pad2)*%
X109197500Y-38910000D02*
X109197500Y-39035000D01*
X111027500Y-37080000D02*
X109197500Y-38910000D01*
X118342500Y-37080000D02*
X111027500Y-37080000D01*
X119727500Y-38465000D02*
X118342500Y-37080000D01*
D45*
X109187500Y-37920000D02*
X109187500Y-39145000D01*
D44*
%TO.N,Net-(D7-Pad2)*%
X26867500Y-59840000D02*
X30187500Y-63160000D01*
X24727500Y-59840000D02*
X26867500Y-59840000D01*
D45*
X30187500Y-61916875D02*
X30187500Y-63141875D01*
D44*
%TO.N,Net-(D8-Pad2)*%
X37112500Y-58870000D02*
X33187500Y-62795000D01*
X42757500Y-58870000D02*
X37112500Y-58870000D01*
X33187500Y-62795000D02*
X33187500Y-63035000D01*
X43727500Y-59840000D02*
X42757500Y-58870000D01*
D45*
X33187500Y-61920000D02*
X33187500Y-63145000D01*
D44*
%TO.N,Net-(D9-Pad2)*%
X65252500Y-55090000D02*
X68072500Y-57910000D01*
X62727500Y-55090000D02*
X65252500Y-55090000D01*
D45*
X68187500Y-56920000D02*
X68187500Y-58145000D01*
D44*
%TO.N,Net-(D10-Pad2)*%
X71187500Y-55890000D02*
X71187500Y-56915000D01*
X75077500Y-52000000D02*
X71187500Y-55890000D01*
X81012500Y-52000000D02*
X75077500Y-52000000D01*
X81727500Y-52715000D02*
X81012500Y-52000000D01*
D45*
X71187500Y-56915000D02*
X71187500Y-58140000D01*
D44*
%TO.N,Net-(D11-Pad2)*%
X103377500Y-55090000D02*
X106197500Y-57910000D01*
X106197500Y-57910000D02*
X106197500Y-58035000D01*
X100727500Y-55090000D02*
X103377500Y-55090000D01*
D45*
X106187500Y-56920000D02*
X106187500Y-58145000D01*
D44*
%TO.N,Net-(D12-Pad2)*%
X111197500Y-55910000D02*
X109197500Y-57910000D01*
X118172500Y-55910000D02*
X111197500Y-55910000D01*
X119727500Y-57465000D02*
X118172500Y-55910000D01*
D45*
X109187500Y-56920000D02*
X109187500Y-58145000D01*
D44*
%TO.N,Net-(D13-Pad2)*%
X26877500Y-78840000D02*
X30072500Y-82035000D01*
X24727500Y-78840000D02*
X26877500Y-78840000D01*
D45*
X30187500Y-80916875D02*
X30187500Y-82141875D01*
D44*
%TO.N,Net-(D14-Pad2)*%
X34312500Y-80785000D02*
X33187500Y-81910000D01*
X38087500Y-77020000D02*
X34322500Y-80785000D01*
X34322500Y-80785000D02*
X34312500Y-80785000D01*
X41907500Y-77020000D02*
X38087500Y-77020000D01*
X43727500Y-78840000D02*
X41907500Y-77020000D01*
D45*
X33187500Y-80920000D02*
X33187500Y-82145000D01*
D44*
%TO.N,Net-(D15-Pad2)*%
X68187500Y-76900000D02*
X68187500Y-77035000D01*
X65377500Y-74090000D02*
X68187500Y-76900000D01*
X62727500Y-74090000D02*
X65377500Y-74090000D01*
D45*
X68187500Y-75920000D02*
X68187500Y-77145000D01*
%TO.N,Net-(D16-Pad2)*%
X72677500Y-78520000D02*
X71211500Y-77054000D01*
X81687500Y-71995000D02*
X82557500Y-72865000D01*
X76407500Y-80510000D02*
X74417500Y-78520000D01*
X71211500Y-77054000D02*
X71187500Y-77054000D01*
X81622500Y-80510000D02*
X76407500Y-80510000D01*
X82557500Y-79575000D02*
X81622500Y-80510000D01*
X74417500Y-78520000D02*
X72677500Y-78520000D01*
X82557500Y-72865000D02*
X82557500Y-79575000D01*
X71187500Y-75915000D02*
X71187500Y-77140000D01*
D44*
%TO.N,Net-(D17-Pad2)*%
X104832500Y-75920000D02*
X106072500Y-77160000D01*
X102557500Y-75920000D02*
X104832500Y-75920000D01*
X100727500Y-74090000D02*
X102557500Y-75920000D01*
D45*
X106187500Y-75920000D02*
X106187500Y-77145000D01*
D44*
%TO.N,Net-(D18-Pad2)*%
X109197500Y-76785000D02*
X109197500Y-77160000D01*
X110932500Y-75050000D02*
X109197500Y-76785000D01*
X118312500Y-75050000D02*
X110932500Y-75050000D01*
X119727500Y-76465000D02*
X118312500Y-75050000D01*
D45*
X109187500Y-75920000D02*
X109187500Y-77145000D01*
%TO.N,Net-(D19-Pad2)*%
X80507500Y-97135000D02*
X80447500Y-97075000D01*
D44*
X85277500Y-92080000D02*
X80572500Y-96785000D01*
X80572500Y-96785000D02*
X80572500Y-97035000D01*
X89592500Y-92080000D02*
X85277500Y-92080000D01*
X91227500Y-93715000D02*
X89592500Y-92080000D01*
D45*
X80507500Y-95910000D02*
X80507500Y-97135000D01*
D44*
%TO.N,Net-(D20-Pad2)*%
X96822500Y-96660000D02*
X96822500Y-97035000D01*
X98934489Y-94548011D02*
X96822500Y-96660000D01*
X101390249Y-94548011D02*
X98934489Y-94548011D01*
X113455752Y-97295497D02*
X112242997Y-97295497D01*
X109487490Y-94539990D02*
X101398270Y-94539990D01*
X112242997Y-97295497D02*
X109487490Y-94539990D01*
X101398270Y-94539990D02*
X101390249Y-94548011D01*
D45*
X96687500Y-95905000D02*
X96687500Y-97130000D01*
D44*
%TO.N,Net-(D21-Pad2)*%
X101730478Y-95002022D02*
X99822500Y-96910000D01*
X109307454Y-95002022D02*
X101730478Y-95002022D01*
X110897500Y-96592068D02*
X109307454Y-95002022D01*
X110897500Y-98130000D02*
X110897500Y-96592068D01*
X113647500Y-100880000D02*
X110897500Y-98130000D01*
X128808091Y-100555295D02*
X125889386Y-103474000D01*
X118974500Y-103474000D02*
X116380500Y-100880000D01*
X116380500Y-100880000D02*
X113647500Y-100880000D01*
X125889386Y-103474000D02*
X118974500Y-103474000D01*
D45*
X99687500Y-95905000D02*
X99687500Y-97130000D01*
D46*
%TO.N,GND*%
X141963900Y-44622000D02*
X144503900Y-47162000D01*
X129283900Y-44622000D02*
X141963900Y-44622000D01*
D44*
%TO.N,col0*%
X129283900Y-52242000D02*
X124974500Y-56551400D01*
X124974500Y-56551400D02*
X124974500Y-66041060D01*
X124974500Y-66041060D02*
X122321573Y-68693987D01*
D45*
X122321573Y-68693987D02*
X120659611Y-70355949D01*
X109083740Y-68674000D02*
X109074500Y-68674000D01*
X120659611Y-70355949D02*
X110765689Y-70355949D01*
X110765689Y-70355949D02*
X109083740Y-68674000D01*
X34947500Y-67160000D02*
X34697500Y-67410000D01*
X109076535Y-68676009D02*
X108980496Y-68579970D01*
X108980496Y-68579970D02*
X38421230Y-68579970D01*
X37001260Y-67160000D02*
X34947500Y-67160000D01*
X38421230Y-68579970D02*
X37001260Y-67160000D01*
D44*
%TO.N,col1*%
X125428510Y-66229115D02*
X120849665Y-70807959D01*
X120849665Y-70807959D02*
X110559219Y-70807959D01*
X129283900Y-54782000D02*
X125428511Y-58637389D01*
X125428511Y-58637389D02*
X125428510Y-66229115D01*
X110559219Y-70807959D02*
X108783238Y-69031978D01*
X38446522Y-69031978D02*
X38284499Y-69194001D01*
X38284499Y-69194001D02*
X37984500Y-69494000D01*
X108783238Y-69031978D02*
X38446522Y-69031978D01*
%TO.N,col2*%
X57184499Y-71161011D02*
X56884500Y-71461010D01*
X108595181Y-69485989D02*
X58859521Y-69485989D01*
X121037723Y-71261970D02*
X110371161Y-71261969D01*
X125882520Y-66417173D02*
X121037723Y-71261970D01*
X110371161Y-71261969D02*
X108595181Y-69485989D01*
X129283900Y-57322000D02*
X125882521Y-60723379D01*
X58859521Y-69485989D02*
X57184499Y-71161011D01*
X125882521Y-60723379D02*
X125882520Y-66417173D01*
%TO.N,col3*%
X121225781Y-71715981D02*
X126336530Y-66605234D01*
X126336531Y-62809369D02*
X129283900Y-59862000D01*
X110183103Y-71715979D02*
X121225781Y-71715981D01*
X108407124Y-69940000D02*
X110183103Y-71715979D01*
X126336530Y-66605234D02*
X126336531Y-62809369D01*
X76887500Y-69940000D02*
X108407124Y-69940000D01*
X75637500Y-71190000D02*
X76887500Y-69940000D01*
%TO.N,col4*%
X95017500Y-70400000D02*
X94797500Y-70620000D01*
X109977489Y-72169989D02*
X108207500Y-70400000D01*
X121413843Y-72169989D02*
X109977489Y-72169989D01*
X126790541Y-64895359D02*
X126790540Y-66793292D01*
X108207500Y-70400000D02*
X95017500Y-70400000D01*
X126790540Y-66793292D02*
X121413843Y-72169989D01*
X129283900Y-62402000D02*
X126790541Y-64895359D01*
%TO.N,col5*%
X114408764Y-72835062D02*
X113984500Y-72835062D01*
X121601900Y-72624000D02*
X114619826Y-72624000D01*
X114619826Y-72624000D02*
X114408764Y-72835062D01*
X129283900Y-64942000D02*
X121601900Y-72624000D01*
%TO.N,Net-(D22-Pad2)*%
X274423353Y-48388468D02*
X270640700Y-52171121D01*
X280480268Y-48388468D02*
X274423353Y-48388468D01*
X270640700Y-52171121D02*
X270640700Y-52283468D01*
X281180700Y-49088900D02*
X280480268Y-48388468D01*
D45*
X270640700Y-51168900D02*
X270640700Y-52393900D01*
D44*
%TO.N,row0_r*%
X270640700Y-56216400D02*
X270640700Y-57168900D01*
D45*
X270640700Y-59921121D02*
X270640700Y-57168900D01*
X269653353Y-60908468D02*
X270640700Y-59921121D01*
X268653353Y-60908468D02*
X269653353Y-60908468D01*
X267640700Y-59895815D02*
X268653353Y-60908468D01*
X267640700Y-57168900D02*
X267640700Y-59895815D01*
D44*
X229697500Y-42785000D02*
X229684847Y-42797653D01*
X232572500Y-42785000D02*
X229697500Y-42785000D01*
X232684847Y-42897347D02*
X232572500Y-42785000D01*
X194976636Y-42660000D02*
X191684847Y-42660000D01*
X199284415Y-42785000D02*
X195101636Y-42785000D01*
X201029847Y-44530432D02*
X199284415Y-42785000D01*
X195101636Y-42785000D02*
X194976636Y-42660000D01*
X220624847Y-42980432D02*
X219074847Y-44530432D01*
X229572500Y-42785000D02*
X229322500Y-42785000D01*
X229127068Y-42980432D02*
X220624847Y-42980432D01*
X191684847Y-45102653D02*
X179339068Y-57448432D01*
X179339068Y-57448432D02*
X171674247Y-57448432D01*
X219074847Y-44530432D02*
X201029847Y-44530432D01*
X191684847Y-42660000D02*
X191684847Y-45102653D01*
X229322500Y-42785000D02*
X229127068Y-42980432D01*
X256940700Y-57378900D02*
X255760700Y-56198900D01*
X266245421Y-57378900D02*
X256940700Y-57378900D01*
X255760700Y-56198900D02*
X253340700Y-56198900D01*
X267653353Y-55970968D02*
X266245421Y-57378900D01*
X267653353Y-55908468D02*
X267653353Y-55970968D01*
D45*
X191684847Y-43920432D02*
X191684847Y-42695432D01*
X194684847Y-43920432D02*
X194684847Y-42695432D01*
X229684847Y-43915432D02*
X229684847Y-42690432D01*
X232684847Y-43920432D02*
X232684847Y-42695432D01*
X267640700Y-57168900D02*
X267640700Y-55943900D01*
X270640700Y-57168900D02*
X270640700Y-55943900D01*
D44*
%TO.N,Net-(D23-Pad2)*%
X264446132Y-49088900D02*
X267640700Y-52283468D01*
X262180700Y-49088900D02*
X264446132Y-49088900D01*
D45*
X267640700Y-51168900D02*
X267640700Y-52393900D01*
D44*
%TO.N,Net-(D24-Pad2)*%
X232684847Y-38547653D02*
X232684847Y-39035000D01*
X236242500Y-34990000D02*
X232684847Y-38547653D01*
X242124415Y-34990000D02*
X236242500Y-34990000D01*
X243224847Y-36090432D02*
X242124415Y-34990000D01*
D45*
X232684847Y-37920432D02*
X232684847Y-39145432D01*
D44*
%TO.N,Net-(D25-Pad2)*%
X224377932Y-33715432D02*
X229697500Y-39035000D01*
X224224847Y-33715432D02*
X224377932Y-33715432D01*
D45*
X229684847Y-37915432D02*
X229684847Y-39140432D01*
D44*
%TO.N,Net-(D26-Pad2)*%
X194684847Y-38922653D02*
X194684847Y-39160000D01*
X198587500Y-35020000D02*
X194684847Y-38922653D01*
X204154415Y-35020000D02*
X198587500Y-35020000D01*
X205224847Y-36090432D02*
X204154415Y-35020000D01*
D45*
X194684847Y-37920432D02*
X194684847Y-39145432D01*
D44*
%TO.N,Net-(D27-Pad2)*%
X191127932Y-38465432D02*
X191697500Y-39035000D01*
X186224847Y-38465432D02*
X191127932Y-38465432D01*
D45*
X191684847Y-37920432D02*
X191684847Y-39145432D01*
D44*
%TO.N,row1_r*%
X270640700Y-75216400D02*
X270640700Y-76168900D01*
D45*
X191684847Y-68150432D02*
X191684847Y-62920432D01*
X189566858Y-70268421D02*
X191684847Y-68150432D01*
D44*
X180817267Y-70260432D02*
X189524847Y-70260432D01*
X173644847Y-61959032D02*
X173644847Y-64440432D01*
X179464847Y-70260432D02*
X180817267Y-70260432D01*
X173644847Y-64440432D02*
X179464847Y-70260432D01*
X171674247Y-59988432D02*
X173644847Y-61959032D01*
D45*
X267640700Y-76168900D02*
X267640700Y-78895815D01*
X267640700Y-78895815D02*
X268653353Y-79908468D01*
X268653353Y-79908468D02*
X269653353Y-79908468D01*
X270640700Y-78921121D02*
X270640700Y-76168900D01*
X269653353Y-79908468D02*
X270640700Y-78921121D01*
D44*
X229527068Y-61830432D02*
X229697500Y-61660000D01*
X220444847Y-61830432D02*
X229527068Y-61830432D01*
X218734847Y-63540432D02*
X220444847Y-61830432D01*
X199104415Y-61910000D02*
X200734847Y-63540432D01*
X194894415Y-61910000D02*
X199104415Y-61910000D01*
X200734847Y-63540432D02*
X218734847Y-63540432D01*
X194644415Y-61660000D02*
X194894415Y-61910000D01*
X191697500Y-61660000D02*
X194644415Y-61660000D01*
X191684847Y-61672653D02*
X191697500Y-61660000D01*
X191684847Y-62920432D02*
X191684847Y-61672653D01*
D45*
X194684847Y-62920432D02*
X194684847Y-61695432D01*
X191684847Y-62920432D02*
X191684847Y-61695432D01*
X229684847Y-62915432D02*
X229684847Y-61690432D01*
X232684847Y-62920432D02*
X232684847Y-61695432D01*
X267640700Y-76168900D02*
X267640700Y-74943900D01*
X270640700Y-76168900D02*
X270640700Y-74943900D01*
D44*
%TO.N,Net-(D28-Pad2)*%
X270653353Y-71158468D02*
X270653353Y-71283468D01*
X274573353Y-67238468D02*
X270653353Y-71158468D01*
X280330268Y-67238468D02*
X274573353Y-67238468D01*
X281180700Y-68088900D02*
X280330268Y-67238468D01*
D45*
X270640700Y-70168900D02*
X270640700Y-71393900D01*
D44*
%TO.N,Net-(D29-Pad2)*%
X264571132Y-68088900D02*
X267640700Y-71158468D01*
X262180700Y-68088900D02*
X264571132Y-68088900D01*
D45*
X267640700Y-70168900D02*
X267640700Y-71393900D01*
D44*
%TO.N,Net-(D30-Pad2)*%
X236587500Y-54020000D02*
X232697500Y-57910000D01*
X242154415Y-54020000D02*
X236587500Y-54020000D01*
X243224847Y-55090432D02*
X242154415Y-54020000D01*
D45*
X232684847Y-56920432D02*
X232684847Y-58145432D01*
D44*
%TO.N,Net-(D31-Pad2)*%
X229684847Y-57647347D02*
X229684847Y-58035000D01*
X224752932Y-52715432D02*
X229684847Y-57647347D01*
X224224847Y-52715432D02*
X224752932Y-52715432D01*
D45*
X229684847Y-56915432D02*
X229684847Y-58140432D01*
D44*
%TO.N,Net-(D32-Pad2)*%
X198442500Y-54040000D02*
X194684847Y-57797653D01*
X204174415Y-54040000D02*
X198442500Y-54040000D01*
X194684847Y-57797653D02*
X194684847Y-58160000D01*
X205224847Y-55090432D02*
X204174415Y-54040000D01*
D45*
X194684847Y-56920432D02*
X194684847Y-58145432D01*
D44*
%TO.N,Net-(D33-Pad2)*%
X191002932Y-57465432D02*
X191697500Y-58160000D01*
X186224847Y-57465432D02*
X191002932Y-57465432D01*
D45*
X191684847Y-56920432D02*
X191684847Y-58145432D01*
D44*
%TO.N,row2_r*%
X270640700Y-94216400D02*
X270640700Y-95168900D01*
X171674247Y-62528432D02*
X172436246Y-63290431D01*
X172436246Y-63290431D02*
X172436246Y-63873899D01*
X175814846Y-67252499D02*
X175814846Y-67900434D01*
X172436246Y-63873899D02*
X175814846Y-67252499D01*
X175814846Y-67900434D02*
X175514847Y-68200433D01*
X176188679Y-75260000D02*
X175939111Y-75010432D01*
X182147500Y-75260000D02*
X176188679Y-75260000D01*
X186827932Y-79940432D02*
X182147500Y-75260000D01*
X190847847Y-79940432D02*
X186827932Y-79940432D01*
X191684847Y-80777432D02*
X190847847Y-79940432D01*
X175939111Y-75010432D02*
X175514847Y-75010432D01*
D45*
X267653353Y-96320553D02*
X267653353Y-99908468D01*
X269653353Y-100908468D02*
X270640700Y-99921121D01*
X267653353Y-99908468D02*
X268653353Y-100908468D01*
X267640700Y-96307900D02*
X267653353Y-96320553D01*
X270640700Y-99921121D02*
X270640700Y-95168900D01*
X268653353Y-100908468D02*
X269653353Y-100908468D01*
X267640700Y-95168900D02*
X267640700Y-96307900D01*
D44*
X191684847Y-80910000D02*
X194684847Y-80910000D01*
X200464847Y-82590432D02*
X198784415Y-80910000D01*
X198784415Y-80910000D02*
X194822500Y-80910000D01*
X218664847Y-82590432D02*
X200464847Y-82590432D01*
X229572500Y-80750432D02*
X220504847Y-80750432D01*
X229607068Y-80785000D02*
X229572500Y-80750432D01*
X220504847Y-80750432D02*
X218664847Y-82590432D01*
X232684847Y-80785000D02*
X229607068Y-80785000D01*
D45*
X191684847Y-81920432D02*
X191684847Y-80695432D01*
X194684847Y-81920432D02*
X194684847Y-80695432D01*
X229684847Y-81915432D02*
X229684847Y-80690432D01*
X232684847Y-81920432D02*
X232684847Y-80695432D01*
X270640700Y-95168900D02*
X270640700Y-93943900D01*
X267640700Y-95168900D02*
X267640700Y-93943900D01*
D44*
%TO.N,Net-(D34-Pad2)*%
X274563353Y-86248468D02*
X270640700Y-90171121D01*
X270640700Y-90171121D02*
X270640700Y-90283468D01*
X280340268Y-86248468D02*
X274563353Y-86248468D01*
X281180700Y-87088900D02*
X280340268Y-86248468D01*
D45*
X270640700Y-89168900D02*
X270640700Y-90393900D01*
D44*
%TO.N,Net-(D35-Pad2)*%
X264446132Y-87088900D02*
X267640700Y-90283468D01*
X262180700Y-87088900D02*
X264446132Y-87088900D01*
D45*
X267640700Y-89168900D02*
X267640700Y-90393900D01*
D44*
%TO.N,Net-(D36-Pad2)*%
X232684847Y-76797653D02*
X232684847Y-76910000D01*
X236362500Y-73120000D02*
X232684847Y-76797653D01*
X242254415Y-73120000D02*
X236362500Y-73120000D01*
X243224847Y-74090432D02*
X242254415Y-73120000D01*
D45*
X232684847Y-75920432D02*
X232684847Y-77145432D01*
D44*
%TO.N,Net-(D37-Pad2)*%
X224502932Y-71715432D02*
X229684847Y-76897347D01*
X229684847Y-76897347D02*
X229684847Y-76910000D01*
X224224847Y-71715432D02*
X224502932Y-71715432D01*
D45*
X229684847Y-75915432D02*
X229684847Y-77140432D01*
D44*
%TO.N,Net-(D38-Pad2)*%
X194697500Y-76785000D02*
X194697500Y-77035000D01*
X198532500Y-72950000D02*
X194697500Y-76785000D01*
X204084415Y-72950000D02*
X198532500Y-72950000D01*
X205224847Y-74090432D02*
X204084415Y-72950000D01*
D45*
X194684847Y-75920432D02*
X194684847Y-77145432D01*
D44*
%TO.N,Net-(D39-Pad2)*%
X191002932Y-76465432D02*
X191697500Y-77160000D01*
X186224847Y-76465432D02*
X191002932Y-76465432D01*
D45*
X191684847Y-75920432D02*
X191684847Y-77145432D01*
D44*
%TO.N,Net-(D40-Pad2)*%
X217969847Y-93715432D02*
X220184847Y-95930432D01*
X214724847Y-93715432D02*
X217969847Y-93715432D01*
D45*
X220184847Y-95930432D02*
X220184847Y-97155432D01*
D44*
%TO.N,row3_r*%
X174964847Y-67250432D02*
X174964847Y-67370432D01*
X172782847Y-65068432D02*
X174964847Y-67250432D01*
X171674247Y-65068432D02*
X172782847Y-65068432D01*
D45*
X201194847Y-100690432D02*
X201197500Y-100693085D01*
D44*
X204194847Y-100785000D02*
X201322500Y-100785000D01*
X182015864Y-75770432D02*
X175319111Y-75770432D01*
X186974847Y-80729415D02*
X182015864Y-75770432D01*
X175319111Y-75770432D02*
X174894847Y-75770432D01*
X186974847Y-87070432D02*
X186974847Y-80729415D01*
X193234847Y-93330432D02*
X186974847Y-87070432D01*
X205322500Y-94848085D02*
X203804847Y-93330432D01*
X204197500Y-100785000D02*
X205322500Y-99660000D01*
X205322500Y-99660000D02*
X205322500Y-94848085D01*
X203804847Y-93330432D02*
X193234847Y-93330432D01*
X218664415Y-101910432D02*
X210504847Y-101910432D01*
X209379415Y-100785000D02*
X204072500Y-100785000D01*
X220164847Y-100410000D02*
X218664415Y-101910432D01*
X210504847Y-101910432D02*
X209379415Y-100785000D01*
D45*
X201194847Y-101915432D02*
X201194847Y-100690432D01*
X204194847Y-101915432D02*
X204194847Y-100690432D01*
X220184847Y-101930432D02*
X220184847Y-100705432D01*
D44*
%TO.N,Net-(D41-Pad2)*%
X203496348Y-95216933D02*
X204194847Y-95915432D01*
X202619847Y-94340432D02*
X203496348Y-95216933D01*
X193964194Y-94340432D02*
X202619847Y-94340432D01*
X192323498Y-95981128D02*
X193964194Y-94340432D01*
D45*
X204194847Y-95915432D02*
X204194847Y-97140432D01*
D44*
%TO.N,Net-(D42-Pad2)*%
X199882500Y-98350000D02*
X201197500Y-97035000D01*
X188927500Y-96130000D02*
X191147500Y-98350000D01*
X186637500Y-96130000D02*
X188927500Y-96130000D01*
X184144847Y-98622653D02*
X186637500Y-96130000D01*
X180773597Y-104701682D02*
X184144847Y-101330432D01*
X174604256Y-104955137D02*
X174857711Y-104701682D01*
X184144847Y-101330432D02*
X184144847Y-98622653D01*
X191147500Y-98350000D02*
X199882500Y-98350000D01*
X174857711Y-104701682D02*
X180773597Y-104701682D01*
D45*
X201194847Y-95915432D02*
X201194847Y-97140432D01*
D44*
%TO.N,col1_r*%
X255230914Y-77356922D02*
X255276436Y-77311400D01*
%TO.N,col2_r*%
X174740676Y-72698399D02*
X175810627Y-71628448D01*
X156454247Y-57448432D02*
X159226827Y-60221012D01*
X159226828Y-65914809D02*
X166010418Y-72698399D01*
X166010418Y-72698399D02*
X174740676Y-72698399D01*
X192223706Y-69547443D02*
X236082718Y-69547443D01*
X159226827Y-60221012D02*
X159226828Y-65914809D01*
X175810627Y-71628448D02*
X190142701Y-71628448D01*
X236082718Y-69547443D02*
X236382717Y-69847442D01*
X190142701Y-71628448D02*
X192223706Y-69547443D01*
%TO.N,col3_r*%
X174928733Y-73152410D02*
X175998684Y-72082459D01*
X192411763Y-70001454D02*
X217144848Y-70001454D01*
X217144848Y-70001454D02*
X217444847Y-70301453D01*
X158772818Y-66102867D02*
X165822361Y-73152410D01*
X158772817Y-62307002D02*
X158772818Y-66102867D01*
X175998684Y-72082459D02*
X190330758Y-72082459D01*
X156454247Y-59988432D02*
X158772817Y-62307002D01*
X165822361Y-73152410D02*
X174928733Y-73152410D01*
X190330758Y-72082459D02*
X192411763Y-70001454D01*
%TO.N,col4_r*%
X198209383Y-70520000D02*
X198523797Y-70834414D01*
X192697500Y-70520000D02*
X198209383Y-70520000D01*
X190616920Y-72600580D02*
X192697500Y-70520000D01*
X176122631Y-72600580D02*
X190616920Y-72600580D01*
X175116790Y-73606421D02*
X176122631Y-72600580D01*
X165634304Y-73606421D02*
X175116790Y-73606421D01*
X158318808Y-66290925D02*
X165634304Y-73606421D01*
X158318807Y-64392992D02*
X158318808Y-66290925D01*
X156454247Y-62528432D02*
X158318807Y-64392992D01*
%TO.N,col5_r*%
X179764859Y-73060432D02*
X179944847Y-73240420D01*
X165466246Y-74080431D02*
X175284848Y-74080431D01*
X175284848Y-74080431D02*
X176304847Y-73060432D01*
X156454247Y-65068432D02*
X165466246Y-74080431D01*
X176304847Y-73060432D02*
X179764859Y-73060432D01*
D46*
%TO.N,GNDA*%
X169134247Y-44748432D02*
X171674247Y-47288432D01*
X156454247Y-44748432D02*
X169134247Y-44748432D01*
%TD*%
M02*
