%TF.GenerationSoftware,KiCad,Pcbnew,(6.0.11)*%
%TF.CreationDate,2023-01-31T22:09:30+01:00*%
%TF.ProjectId,corne-light,636f726e-652d-46c6-9967-68742e6b6963,2.0*%
%TF.SameCoordinates,Original*%
%TF.FileFunction,Copper,L1,Top*%
%TF.FilePolarity,Positive*%
%FSLAX46Y46*%
G04 Gerber Fmt 4.6, Leading zero omitted, Abs format (unit mm)*
G04 Created by KiCad (PCBNEW (6.0.11)) date 2023-01-31 22:09:30*
%MOMM*%
%LPD*%
G01*
G04 APERTURE LIST*
G04 Aperture macros list*
%AMHorizOval*
0 Thick line with rounded ends*
0 $1 width*
0 $2 $3 position (X,Y) of the first rounded end (center of the circle)*
0 $4 $5 position (X,Y) of the second rounded end (center of the circle)*
0 Add line between two ends*
20,1,$1,$2,$3,$4,$5,0*
0 Add two circle primitives to create the rounded ends*
1,1,$1,$2,$3*
1,1,$1,$4,$5*%
G04 Aperture macros list end*
%TA.AperFunction,ComponentPad*%
%ADD10O,1.300000X1.778000*%
%TD*%
%TA.AperFunction,ComponentPad*%
%ADD11R,1.300000X1.778000*%
%TD*%
%TA.AperFunction,ComponentPad*%
%ADD12O,1.397000X1.778000*%
%TD*%
%TA.AperFunction,ComponentPad*%
%ADD13O,2.500000X1.700000*%
%TD*%
%TA.AperFunction,ComponentPad*%
%ADD14C,2.000000*%
%TD*%
%TA.AperFunction,ComponentPad*%
%ADD15HorizOval,2.400000X-0.978148X0.207912X0.978148X-0.207912X0*%
%TD*%
%TA.AperFunction,ComponentPad*%
%ADD16HorizOval,2.400000X-0.238157X-0.137500X0.238157X0.137500X0*%
%TD*%
%TA.AperFunction,ComponentPad*%
%ADD17C,2.400000*%
%TD*%
%TA.AperFunction,ComponentPad*%
%ADD18HorizOval,1.500000X0.735931X-1.249362X-0.735931X1.249362X0*%
%TD*%
%TA.AperFunction,ComponentPad*%
%ADD19HorizOval,1.600000X0.150000X-0.259808X-0.150000X0.259808X0*%
%TD*%
%TA.AperFunction,ComponentPad*%
%ADD20HorizOval,1.500000X0.175000X-0.303109X-0.175000X0.303109X0*%
%TD*%
%TA.AperFunction,ComponentPad*%
%ADD21HorizOval,2.400000X-0.309017X0.951057X0.309017X-0.951057X0*%
%TD*%
%TA.AperFunction,ComponentPad*%
%ADD22HorizOval,2.400000X-0.238157X0.137500X0.238157X-0.137500X0*%
%TD*%
%TA.AperFunction,ComponentPad*%
%ADD23HorizOval,1.500000X0.714014X1.262016X-0.714014X-1.262016X0*%
%TD*%
%TA.AperFunction,ComponentPad*%
%ADD24HorizOval,1.600000X0.150000X0.259808X-0.150000X-0.259808X0*%
%TD*%
%TA.AperFunction,ComponentPad*%
%ADD25HorizOval,1.500000X0.175000X0.303109X-0.175000X-0.303109X0*%
%TD*%
%TA.AperFunction,ComponentPad*%
%ADD26HorizOval,2.400000X-0.669131X-0.743145X0.669131X0.743145X0*%
%TD*%
%TA.AperFunction,ComponentPad*%
%ADD27O,2.400000X2.950000*%
%TD*%
%TA.AperFunction,ComponentPad*%
%ADD28HorizOval,1.500000X1.449945X0.012653X-1.449945X-0.012653X0*%
%TD*%
%TA.AperFunction,ComponentPad*%
%ADD29O,2.200000X1.600000*%
%TD*%
%TA.AperFunction,ComponentPad*%
%ADD30O,2.200000X1.500000*%
%TD*%
%TA.AperFunction,ComponentPad*%
%ADD31HorizOval,2.400000X-0.453990X-0.891007X0.453990X0.891007X0*%
%TD*%
%TA.AperFunction,ComponentPad*%
%ADD32HorizOval,2.400000X-0.071175X0.265630X0.071175X-0.265630X0*%
%TD*%
%TA.AperFunction,ComponentPad*%
%ADD33HorizOval,1.500000X1.397264X0.387496X-1.397264X-0.387496X0*%
%TD*%
%TA.AperFunction,ComponentPad*%
%ADD34HorizOval,1.600000X0.289778X0.077646X-0.289778X-0.077646X0*%
%TD*%
%TA.AperFunction,ComponentPad*%
%ADD35HorizOval,1.500000X0.338074X0.090587X-0.338074X-0.090587X0*%
%TD*%
%TA.AperFunction,ComponentPad*%
%ADD36HorizOval,2.400000X-0.838671X-0.544639X0.838671X0.544639X0*%
%TD*%
%TA.AperFunction,ComponentPad*%
%ADD37HorizOval,2.400000X-0.071175X-0.265630X0.071175X0.265630X0*%
%TD*%
%TA.AperFunction,ComponentPad*%
%ADD38HorizOval,1.500000X1.403814X-0.363051X-1.403814X0.363051X0*%
%TD*%
%TA.AperFunction,ComponentPad*%
%ADD39HorizOval,1.600000X0.289778X-0.077646X-0.289778X0.077646X0*%
%TD*%
%TA.AperFunction,ComponentPad*%
%ADD40HorizOval,1.500000X0.338074X-0.090587X-0.338074X0.090587X0*%
%TD*%
%TA.AperFunction,ComponentPad*%
%ADD41C,1.524000*%
%TD*%
%TA.AperFunction,ViaPad*%
%ADD42C,0.600000*%
%TD*%
%TA.AperFunction,Conductor*%
%ADD43C,0.254000*%
%TD*%
%TA.AperFunction,Conductor*%
%ADD44C,0.250000*%
%TD*%
%TA.AperFunction,Conductor*%
%ADD45C,0.508000*%
%TD*%
%TA.AperFunction,Conductor*%
%ADD46C,0.500000*%
%TD*%
G04 APERTURE END LIST*
D10*
%TO.P,D13,2*%
%TO.N,Net-(D13-Pad2)*%
X30187500Y-80916875D03*
D11*
%TO.P,D13,1*%
%TO.N,row2*%
X30187500Y-86916875D03*
%TD*%
D10*
%TO.P,D14,2*%
%TO.N,Net-(D14-Pad2)*%
X33187500Y-80920000D03*
D11*
%TO.P,D14,1*%
%TO.N,row2*%
X33187500Y-86920000D03*
%TD*%
D10*
%TO.P,D34,2*%
%TO.N,Net-(D34-Pad2)*%
X270640700Y-89168900D03*
D11*
%TO.P,D34,1*%
%TO.N,row2_r*%
X270640700Y-95168900D03*
%TD*%
D10*
%TO.P,D12,2*%
%TO.N,Net-(D12-Pad2)*%
X109187500Y-56920000D03*
D11*
%TO.P,D12,1*%
%TO.N,row1*%
X109187500Y-62920000D03*
%TD*%
D10*
%TO.P,D33,2*%
%TO.N,Net-(D33-Pad2)*%
X191684847Y-56920432D03*
D11*
%TO.P,D33,1*%
%TO.N,row1_r*%
X191684847Y-62920432D03*
%TD*%
D10*
%TO.P,D32,2*%
%TO.N,Net-(D32-Pad2)*%
X194684847Y-56920432D03*
D11*
%TO.P,D32,1*%
%TO.N,row1_r*%
X194684847Y-62920432D03*
%TD*%
D10*
%TO.P,D31,2*%
%TO.N,Net-(D31-Pad2)*%
X229684847Y-56915432D03*
D11*
%TO.P,D31,1*%
%TO.N,row1_r*%
X229684847Y-62915432D03*
%TD*%
D10*
%TO.P,D30,2*%
%TO.N,Net-(D30-Pad2)*%
X232684847Y-56920432D03*
D11*
%TO.P,D30,1*%
%TO.N,row1_r*%
X232684847Y-62920432D03*
%TD*%
D10*
%TO.P,D29,2*%
%TO.N,Net-(D29-Pad2)*%
X267640700Y-70168900D03*
D11*
%TO.P,D29,1*%
%TO.N,row1_r*%
X267640700Y-76168900D03*
%TD*%
D10*
%TO.P,D28,2*%
%TO.N,Net-(D28-Pad2)*%
X270640700Y-70168900D03*
D11*
%TO.P,D28,1*%
%TO.N,row1_r*%
X270640700Y-76168900D03*
%TD*%
D10*
%TO.P,D27,2*%
%TO.N,Net-(D27-Pad2)*%
X191684847Y-37920432D03*
D11*
%TO.P,D27,1*%
%TO.N,row0_r*%
X191684847Y-43920432D03*
%TD*%
D10*
%TO.P,D26,2*%
%TO.N,Net-(D26-Pad2)*%
X194684847Y-37920432D03*
D11*
%TO.P,D26,1*%
%TO.N,row0_r*%
X194684847Y-43920432D03*
%TD*%
D10*
%TO.P,D25,2*%
%TO.N,Net-(D25-Pad2)*%
X229684847Y-37915432D03*
D11*
%TO.P,D25,1*%
%TO.N,row0_r*%
X229684847Y-43915432D03*
%TD*%
D10*
%TO.P,D24,2*%
%TO.N,Net-(D24-Pad2)*%
X232684847Y-37920432D03*
D11*
%TO.P,D24,1*%
%TO.N,row0_r*%
X232684847Y-43920432D03*
%TD*%
D10*
%TO.P,D23,2*%
%TO.N,Net-(D23-Pad2)*%
X267640700Y-51168900D03*
D11*
%TO.P,D23,1*%
%TO.N,row0_r*%
X267640700Y-57168900D03*
%TD*%
D10*
%TO.P,D22,2*%
%TO.N,Net-(D22-Pad2)*%
X270640700Y-51168900D03*
D11*
%TO.P,D22,1*%
%TO.N,row0_r*%
X270640700Y-57168900D03*
%TD*%
D10*
%TO.P,D42,2*%
%TO.N,Net-(D42-Pad2)*%
X201194847Y-95915432D03*
D11*
%TO.P,D42,1*%
%TO.N,row3_r*%
X201194847Y-101915432D03*
%TD*%
D10*
%TO.P,D41,2*%
%TO.N,Net-(D41-Pad2)*%
X204194847Y-95915432D03*
D11*
%TO.P,D41,1*%
%TO.N,row3_r*%
X204194847Y-101915432D03*
%TD*%
D10*
%TO.P,D40,2*%
%TO.N,Net-(D40-Pad2)*%
X220184847Y-95930432D03*
D11*
%TO.P,D40,1*%
%TO.N,row3_r*%
X220184847Y-101930432D03*
%TD*%
D10*
%TO.P,D39,2*%
%TO.N,Net-(D39-Pad2)*%
X191684847Y-75920432D03*
D11*
%TO.P,D39,1*%
%TO.N,row2_r*%
X191684847Y-81920432D03*
%TD*%
D10*
%TO.P,D38,2*%
%TO.N,Net-(D38-Pad2)*%
X194684847Y-75920432D03*
D11*
%TO.P,D38,1*%
%TO.N,row2_r*%
X194684847Y-81920432D03*
%TD*%
D10*
%TO.P,D37,2*%
%TO.N,Net-(D37-Pad2)*%
X229684847Y-75915432D03*
D11*
%TO.P,D37,1*%
%TO.N,row2_r*%
X229684847Y-81915432D03*
%TD*%
D10*
%TO.P,D36,2*%
%TO.N,Net-(D36-Pad2)*%
X232684847Y-75920432D03*
D11*
%TO.P,D36,1*%
%TO.N,row2_r*%
X232684847Y-81920432D03*
%TD*%
D10*
%TO.P,D35,2*%
%TO.N,Net-(D35-Pad2)*%
X267640700Y-89168900D03*
D11*
%TO.P,D35,1*%
%TO.N,row2_r*%
X267640700Y-95168900D03*
%TD*%
D10*
%TO.P,D1,2*%
%TO.N,Net-(D1-Pad2)*%
X30187500Y-42916875D03*
D11*
%TO.P,D1,1*%
%TO.N,row0*%
X30187500Y-48916875D03*
%TD*%
D10*
%TO.P,D2,2*%
%TO.N,Net-(D2-Pad2)*%
X33187500Y-42920000D03*
D11*
%TO.P,D2,1*%
%TO.N,row0*%
X33187500Y-48920000D03*
%TD*%
D10*
%TO.P,D3,2*%
%TO.N,Net-(D3-Pad2)*%
X68187500Y-37920000D03*
D11*
%TO.P,D3,1*%
%TO.N,row0*%
X68187500Y-43920000D03*
%TD*%
D10*
%TO.P,D4,2*%
%TO.N,Net-(D4-Pad2)*%
X71187500Y-37915000D03*
D11*
%TO.P,D4,1*%
%TO.N,row0*%
X71187500Y-43915000D03*
%TD*%
D10*
%TO.P,D5,2*%
%TO.N,Net-(D5-Pad2)*%
X106187500Y-37920000D03*
D11*
%TO.P,D5,1*%
%TO.N,row0*%
X106187500Y-43920000D03*
%TD*%
D10*
%TO.P,D6,2*%
%TO.N,Net-(D6-Pad2)*%
X109187500Y-37920000D03*
D11*
%TO.P,D6,1*%
%TO.N,row0*%
X109187500Y-43920000D03*
%TD*%
D10*
%TO.P,D7,2*%
%TO.N,Net-(D7-Pad2)*%
X30187500Y-61916875D03*
D11*
%TO.P,D7,1*%
%TO.N,row1*%
X30187500Y-67916875D03*
%TD*%
D10*
%TO.P,D8,2*%
%TO.N,Net-(D8-Pad2)*%
X33187500Y-61920000D03*
D11*
%TO.P,D8,1*%
%TO.N,row1*%
X33187500Y-67920000D03*
%TD*%
D10*
%TO.P,D9,2*%
%TO.N,Net-(D9-Pad2)*%
X68187500Y-56920000D03*
D11*
%TO.P,D9,1*%
%TO.N,row1*%
X68187500Y-62920000D03*
%TD*%
D10*
%TO.P,D10,2*%
%TO.N,Net-(D10-Pad2)*%
X71187500Y-56915000D03*
D11*
%TO.P,D10,1*%
%TO.N,row1*%
X71187500Y-62915000D03*
%TD*%
D10*
%TO.P,D11,2*%
%TO.N,Net-(D11-Pad2)*%
X106187500Y-56920000D03*
D11*
%TO.P,D11,1*%
%TO.N,row1*%
X106187500Y-62920000D03*
%TD*%
D10*
%TO.P,D15,2*%
%TO.N,Net-(D15-Pad2)*%
X68187500Y-75920000D03*
D11*
%TO.P,D15,1*%
%TO.N,row2*%
X68187500Y-81920000D03*
%TD*%
D10*
%TO.P,D16,2*%
%TO.N,Net-(D16-Pad2)*%
X71187500Y-75915000D03*
D11*
%TO.P,D16,1*%
%TO.N,row2*%
X71187500Y-81915000D03*
%TD*%
D10*
%TO.P,D17,2*%
%TO.N,Net-(D17-Pad2)*%
X106187500Y-75920000D03*
D11*
%TO.P,D17,1*%
%TO.N,row2*%
X106187500Y-81920000D03*
%TD*%
D10*
%TO.P,D18,2*%
%TO.N,Net-(D18-Pad2)*%
X109187500Y-75920000D03*
D11*
%TO.P,D18,1*%
%TO.N,row2*%
X109187500Y-81920000D03*
%TD*%
D10*
%TO.P,D19,2*%
%TO.N,Net-(D19-Pad2)*%
X80507500Y-95910000D03*
D11*
%TO.P,D19,1*%
%TO.N,row3*%
X80507500Y-101910000D03*
%TD*%
D10*
%TO.P,D20,2*%
%TO.N,Net-(D20-Pad2)*%
X96687500Y-95905000D03*
D11*
%TO.P,D20,1*%
%TO.N,row3*%
X96687500Y-101905000D03*
%TD*%
D10*
%TO.P,D21,2*%
%TO.N,Net-(D21-Pad2)*%
X99687500Y-95905000D03*
D11*
%TO.P,D21,1*%
%TO.N,row3*%
X99687500Y-101905000D03*
%TD*%
D12*
%TO.P,J7,4*%
%TO.N,GNDA*%
X167877500Y-77310000D03*
%TO.P,J7,3*%
%TO.N,VDD*%
X165337500Y-77310000D03*
%TO.P,J7,2*%
%TO.N,SCL_r*%
X162797500Y-77310000D03*
%TO.P,J7,1*%
%TO.N,SDA_r*%
X160257500Y-77310000D03*
%TD*%
%TO.P,J2,4*%
%TO.N,GND*%
X140648500Y-77168000D03*
%TO.P,J2,3*%
%TO.N,VCC*%
X138108500Y-77168000D03*
%TO.P,J2,2*%
%TO.N,SCL*%
X135568500Y-77168000D03*
%TO.P,J2,1*%
%TO.N,SDA*%
X133028500Y-77168000D03*
%TD*%
D13*
%TO.P,J6,A*%
%TO.N,Net-(J6-PadA)*%
X166407847Y-86665432D03*
%TO.P,J6,D*%
%TO.N,VDD*%
X164907847Y-82465432D03*
%TO.P,J6,C*%
%TO.N,GNDA*%
X160907847Y-82465432D03*
%TO.P,J6,B*%
%TO.N,data_r*%
X157907847Y-82465432D03*
%TD*%
%TO.P,J1,A*%
%TO.N,Net-(J1-PadA)*%
X134414500Y-82332000D03*
%TO.P,J1,D*%
%TO.N,VCC*%
X135914500Y-86532000D03*
%TO.P,J1,C*%
%TO.N,GND*%
X139914500Y-86532000D03*
%TO.P,J1,B*%
%TO.N,data*%
X142914500Y-86532000D03*
%TD*%
D14*
%TO.P,RSW2,2*%
%TO.N,GNDA*%
X156374847Y-73567432D03*
%TO.P,RSW2,1*%
%TO.N,reset_r*%
X156374847Y-80067432D03*
%TD*%
%TO.P,RSW1,2*%
%TO.N,GND*%
X144504500Y-73421000D03*
%TO.P,RSW1,1*%
%TO.N,reset*%
X144504500Y-79921000D03*
%TD*%
D15*
%TO.P,SW42,1*%
%TO.N,col5_r*%
X170221360Y-100937447D03*
D16*
%TO.P,SW42,2*%
%TO.N,Net-(D42-Pad2)*%
X174341769Y-105060496D03*
D17*
%TO.P,SW42,1*%
%TO.N,col5_r*%
X171148949Y-101130368D03*
D18*
%TO.P,SW42,2*%
%TO.N,Net-(D42-Pad2)*%
X175682996Y-105902767D03*
D19*
%TO.P,SW42,1*%
%TO.N,col5_r*%
X163007348Y-102828702D03*
D20*
%TO.P,SW42,2*%
%TO.N,Net-(D42-Pad2)*%
X163825297Y-108245432D03*
%TD*%
D21*
%TO.P,SW21,1*%
%TO.N,col5*%
X127520118Y-106359840D03*
D22*
%TO.P,SW21,2*%
%TO.N,Net-(D21-Pad2)*%
X129030578Y-100729936D03*
D17*
%TO.P,SW21,1*%
%TO.N,col5*%
X127223398Y-105460064D03*
D23*
%TO.P,SW21,2*%
%TO.N,Net-(D21-Pad2)*%
X129089393Y-99147264D03*
D24*
%TO.P,SW21,1*%
%TO.N,col5*%
X132764999Y-111661730D03*
D25*
%TO.P,SW21,2*%
%TO.N,Net-(D21-Pad2)*%
X137047050Y-108245000D03*
%TD*%
D26*
%TO.P,SW18,1*%
%TO.N,col5*%
X114056631Y-78251855D03*
D27*
%TO.P,SW18,2*%
%TO.N,Net-(D18-Pad2)*%
X119687500Y-76745000D03*
D17*
%TO.P,SW18,1*%
%TO.N,col5*%
X114687500Y-77545000D03*
D28*
%TO.P,SW18,2*%
%TO.N,Net-(D18-Pad2)*%
X121087542Y-76004599D03*
D29*
%TO.P,SW18,1*%
%TO.N,col5*%
X112087500Y-85445000D03*
D30*
%TO.P,SW18,2*%
%TO.N,Net-(D18-Pad2)*%
X117187500Y-87445000D03*
%TD*%
D26*
%TO.P,SW32,1*%
%TO.N,col4_r*%
X199553978Y-56877287D03*
D27*
%TO.P,SW32,2*%
%TO.N,Net-(D32-Pad2)*%
X205184847Y-55370432D03*
D17*
%TO.P,SW32,1*%
%TO.N,col4_r*%
X200184847Y-56170432D03*
D28*
%TO.P,SW32,2*%
%TO.N,Net-(D32-Pad2)*%
X206584889Y-54630031D03*
D29*
%TO.P,SW32,1*%
%TO.N,col4_r*%
X197584847Y-64070432D03*
D30*
%TO.P,SW32,2*%
%TO.N,Net-(D32-Pad2)*%
X202684847Y-66070432D03*
%TD*%
D26*
%TO.P,SW11,1*%
%TO.N,col4*%
X95056631Y-56876855D03*
D27*
%TO.P,SW11,2*%
%TO.N,Net-(D11-Pad2)*%
X100687500Y-55370000D03*
D17*
%TO.P,SW11,1*%
%TO.N,col4*%
X95687500Y-56170000D03*
D28*
%TO.P,SW11,2*%
%TO.N,Net-(D11-Pad2)*%
X102087542Y-54629599D03*
D29*
%TO.P,SW11,1*%
%TO.N,col4*%
X93087500Y-64070000D03*
D30*
%TO.P,SW11,2*%
%TO.N,Net-(D11-Pad2)*%
X98187500Y-66070000D03*
%TD*%
D26*
%TO.P,SW33,1*%
%TO.N,col5_r*%
X180553978Y-59252287D03*
D27*
%TO.P,SW33,2*%
%TO.N,Net-(D33-Pad2)*%
X186184847Y-57745432D03*
D17*
%TO.P,SW33,1*%
%TO.N,col5_r*%
X181184847Y-58545432D03*
D28*
%TO.P,SW33,2*%
%TO.N,Net-(D33-Pad2)*%
X187584889Y-57005031D03*
D29*
%TO.P,SW33,1*%
%TO.N,col5_r*%
X178584847Y-66445432D03*
D30*
%TO.P,SW33,2*%
%TO.N,Net-(D33-Pad2)*%
X183684847Y-68445432D03*
%TD*%
D31*
%TO.P,SW41,1*%
%TO.N,col4_r*%
X187308330Y-99174827D03*
D32*
%TO.P,SW41,2*%
%TO.N,Net-(D41-Pad2)*%
X192357330Y-96261940D03*
D17*
%TO.P,SW41,1*%
%TO.N,col4_r*%
X187734756Y-98328776D03*
D33*
%TO.P,SW41,2*%
%TO.N,Net-(D41-Pad2)*%
X193518037Y-95184410D03*
D34*
%TO.P,SW41,1*%
%TO.N,col4_r*%
X187268020Y-106632520D03*
D35*
%TO.P,SW41,2*%
%TO.N,Net-(D41-Pad2)*%
X192711879Y-107244394D03*
%TD*%
D26*
%TO.P,SW8,1*%
%TO.N,col1*%
X38056631Y-61626855D03*
D27*
%TO.P,SW8,2*%
%TO.N,Net-(D8-Pad2)*%
X43687500Y-60120000D03*
D17*
%TO.P,SW8,1*%
%TO.N,col1*%
X38687500Y-60920000D03*
D28*
%TO.P,SW8,2*%
%TO.N,Net-(D8-Pad2)*%
X45087542Y-59379599D03*
D29*
%TO.P,SW8,1*%
%TO.N,col1*%
X36087500Y-68820000D03*
D30*
%TO.P,SW8,2*%
%TO.N,Net-(D8-Pad2)*%
X41187500Y-70820000D03*
%TD*%
D26*
%TO.P,SW7,1*%
%TO.N,col0*%
X19056631Y-61626855D03*
D27*
%TO.P,SW7,2*%
%TO.N,Net-(D7-Pad2)*%
X24687500Y-60120000D03*
D17*
%TO.P,SW7,1*%
%TO.N,col0*%
X19687500Y-60920000D03*
D28*
%TO.P,SW7,2*%
%TO.N,Net-(D7-Pad2)*%
X26087542Y-59379599D03*
D29*
%TO.P,SW7,1*%
%TO.N,col0*%
X17087500Y-68820000D03*
D30*
%TO.P,SW7,2*%
%TO.N,Net-(D7-Pad2)*%
X22187500Y-70820000D03*
%TD*%
D26*
%TO.P,SW1,1*%
%TO.N,col0*%
X19056631Y-42626855D03*
D27*
%TO.P,SW1,2*%
%TO.N,Net-(D1-Pad2)*%
X24687500Y-41120000D03*
D17*
%TO.P,SW1,1*%
%TO.N,col0*%
X19687500Y-41920000D03*
D28*
%TO.P,SW1,2*%
%TO.N,Net-(D1-Pad2)*%
X26087542Y-40379599D03*
D29*
%TO.P,SW1,1*%
%TO.N,col0*%
X17087500Y-49820000D03*
D30*
%TO.P,SW1,2*%
%TO.N,Net-(D1-Pad2)*%
X22187500Y-51820000D03*
%TD*%
D26*
%TO.P,SW2,1*%
%TO.N,col1*%
X38056631Y-42626855D03*
D27*
%TO.P,SW2,2*%
%TO.N,Net-(D2-Pad2)*%
X43687500Y-41120000D03*
D17*
%TO.P,SW2,1*%
%TO.N,col1*%
X38687500Y-41920000D03*
D28*
%TO.P,SW2,2*%
%TO.N,Net-(D2-Pad2)*%
X45087542Y-40379599D03*
D29*
%TO.P,SW2,1*%
%TO.N,col1*%
X36087500Y-49820000D03*
D30*
%TO.P,SW2,2*%
%TO.N,Net-(D2-Pad2)*%
X41187500Y-51820000D03*
%TD*%
D26*
%TO.P,SW37,1*%
%TO.N,col3_r*%
X218553978Y-73502287D03*
D27*
%TO.P,SW37,2*%
%TO.N,Net-(D37-Pad2)*%
X224184847Y-71995432D03*
D17*
%TO.P,SW37,1*%
%TO.N,col3_r*%
X219184847Y-72795432D03*
D28*
%TO.P,SW37,2*%
%TO.N,Net-(D37-Pad2)*%
X225584889Y-71255031D03*
D29*
%TO.P,SW37,1*%
%TO.N,col3_r*%
X216584847Y-80695432D03*
D30*
%TO.P,SW37,2*%
%TO.N,Net-(D37-Pad2)*%
X221684847Y-82695432D03*
%TD*%
D26*
%TO.P,SW9,1*%
%TO.N,col2*%
X57056631Y-56876855D03*
D27*
%TO.P,SW9,2*%
%TO.N,Net-(D9-Pad2)*%
X62687500Y-55370000D03*
D17*
%TO.P,SW9,1*%
%TO.N,col2*%
X57687500Y-56170000D03*
D28*
%TO.P,SW9,2*%
%TO.N,Net-(D9-Pad2)*%
X64087542Y-54629599D03*
D29*
%TO.P,SW9,1*%
%TO.N,col2*%
X55087500Y-64070000D03*
D30*
%TO.P,SW9,2*%
%TO.N,Net-(D9-Pad2)*%
X60187500Y-66070000D03*
%TD*%
D26*
%TO.P,SW26,1*%
%TO.N,col4_r*%
X199553978Y-37877287D03*
D27*
%TO.P,SW26,2*%
%TO.N,Net-(D26-Pad2)*%
X205184847Y-36370432D03*
D17*
%TO.P,SW26,1*%
%TO.N,col4_r*%
X200184847Y-37170432D03*
D28*
%TO.P,SW26,2*%
%TO.N,Net-(D26-Pad2)*%
X206584889Y-35630031D03*
D29*
%TO.P,SW26,1*%
%TO.N,col4_r*%
X197584847Y-45070432D03*
D30*
%TO.P,SW26,2*%
%TO.N,Net-(D26-Pad2)*%
X202684847Y-47070432D03*
%TD*%
D26*
%TO.P,SW3,1*%
%TO.N,col2*%
X57056631Y-37876855D03*
D27*
%TO.P,SW3,2*%
%TO.N,Net-(D3-Pad2)*%
X62687500Y-36370000D03*
D17*
%TO.P,SW3,1*%
%TO.N,col2*%
X57687500Y-37170000D03*
D28*
%TO.P,SW3,2*%
%TO.N,Net-(D3-Pad2)*%
X64087542Y-35629599D03*
D29*
%TO.P,SW3,1*%
%TO.N,col2*%
X55087500Y-45070000D03*
D30*
%TO.P,SW3,2*%
%TO.N,Net-(D3-Pad2)*%
X60187500Y-47070000D03*
%TD*%
D26*
%TO.P,SW14,1*%
%TO.N,col1*%
X38056631Y-80626855D03*
D27*
%TO.P,SW14,2*%
%TO.N,Net-(D14-Pad2)*%
X43687500Y-79120000D03*
D17*
%TO.P,SW14,1*%
%TO.N,col1*%
X38687500Y-79920000D03*
D28*
%TO.P,SW14,2*%
%TO.N,Net-(D14-Pad2)*%
X45087542Y-78379599D03*
D29*
%TO.P,SW14,1*%
%TO.N,col1*%
X36087500Y-87820000D03*
D30*
%TO.P,SW14,2*%
%TO.N,Net-(D14-Pad2)*%
X41187500Y-89820000D03*
%TD*%
D26*
%TO.P,SW27,1*%
%TO.N,col5_r*%
X180553978Y-40252287D03*
D27*
%TO.P,SW27,2*%
%TO.N,Net-(D27-Pad2)*%
X186184847Y-38745432D03*
D17*
%TO.P,SW27,1*%
%TO.N,col5_r*%
X181184847Y-39545432D03*
D28*
%TO.P,SW27,2*%
%TO.N,Net-(D27-Pad2)*%
X187584889Y-38005031D03*
D29*
%TO.P,SW27,1*%
%TO.N,col5_r*%
X178584847Y-47445432D03*
D30*
%TO.P,SW27,2*%
%TO.N,Net-(D27-Pad2)*%
X183684847Y-49445432D03*
%TD*%
D26*
%TO.P,SW12,1*%
%TO.N,col5*%
X114056631Y-59251855D03*
D27*
%TO.P,SW12,2*%
%TO.N,Net-(D12-Pad2)*%
X119687500Y-57745000D03*
D17*
%TO.P,SW12,1*%
%TO.N,col5*%
X114687500Y-58545000D03*
D28*
%TO.P,SW12,2*%
%TO.N,Net-(D12-Pad2)*%
X121087542Y-57004599D03*
D29*
%TO.P,SW12,1*%
%TO.N,col5*%
X112087500Y-66445000D03*
D30*
%TO.P,SW12,2*%
%TO.N,Net-(D12-Pad2)*%
X117187500Y-68445000D03*
%TD*%
D36*
%TO.P,SW20,1*%
%TO.N,col4*%
X107515641Y-97553738D03*
D37*
%TO.P,SW20,2*%
%TO.N,Net-(D20-Pad2)*%
X113344646Y-97555604D03*
D17*
%TO.P,SW20,1*%
%TO.N,col4*%
X108307962Y-97034249D03*
D38*
%TO.P,SW20,2*%
%TO.N,Net-(D20-Pad2)*%
X114888613Y-97202789D03*
D39*
%TO.P,SW20,1*%
%TO.N,col4*%
X103751884Y-103992134D03*
D40*
%TO.P,SW20,2*%
%TO.N,Net-(D20-Pad2)*%
X108160468Y-107243962D03*
%TD*%
D26*
%TO.P,SW10,1*%
%TO.N,col3*%
X76056631Y-54501855D03*
D27*
%TO.P,SW10,2*%
%TO.N,Net-(D10-Pad2)*%
X81687500Y-52995000D03*
D17*
%TO.P,SW10,1*%
%TO.N,col3*%
X76687500Y-53795000D03*
D28*
%TO.P,SW10,2*%
%TO.N,Net-(D10-Pad2)*%
X83087542Y-52254599D03*
D29*
%TO.P,SW10,1*%
%TO.N,col3*%
X74087500Y-61695000D03*
D30*
%TO.P,SW10,2*%
%TO.N,Net-(D10-Pad2)*%
X79187500Y-63695000D03*
%TD*%
D26*
%TO.P,SW15,1*%
%TO.N,col2*%
X57056631Y-75876855D03*
D27*
%TO.P,SW15,2*%
%TO.N,Net-(D15-Pad2)*%
X62687500Y-74370000D03*
D17*
%TO.P,SW15,1*%
%TO.N,col2*%
X57687500Y-75170000D03*
D28*
%TO.P,SW15,2*%
%TO.N,Net-(D15-Pad2)*%
X64087542Y-73629599D03*
D29*
%TO.P,SW15,1*%
%TO.N,col2*%
X55087500Y-83070000D03*
D30*
%TO.P,SW15,2*%
%TO.N,Net-(D15-Pad2)*%
X60187500Y-85070000D03*
%TD*%
D26*
%TO.P,SW16,1*%
%TO.N,col3*%
X76056631Y-73501855D03*
D27*
%TO.P,SW16,2*%
%TO.N,Net-(D16-Pad2)*%
X81687500Y-71995000D03*
D17*
%TO.P,SW16,1*%
%TO.N,col3*%
X76687500Y-72795000D03*
D28*
%TO.P,SW16,2*%
%TO.N,Net-(D16-Pad2)*%
X83087542Y-71254599D03*
D29*
%TO.P,SW16,1*%
%TO.N,col3*%
X74087500Y-80695000D03*
D30*
%TO.P,SW16,2*%
%TO.N,Net-(D16-Pad2)*%
X79187500Y-82695000D03*
%TD*%
D26*
%TO.P,SW17,1*%
%TO.N,col4*%
X95056631Y-75876855D03*
D27*
%TO.P,SW17,2*%
%TO.N,Net-(D17-Pad2)*%
X100687500Y-74370000D03*
D17*
%TO.P,SW17,1*%
%TO.N,col4*%
X95687500Y-75170000D03*
D28*
%TO.P,SW17,2*%
%TO.N,Net-(D17-Pad2)*%
X102087542Y-73629599D03*
D29*
%TO.P,SW17,1*%
%TO.N,col4*%
X93087500Y-83070000D03*
D30*
%TO.P,SW17,2*%
%TO.N,Net-(D17-Pad2)*%
X98187500Y-85070000D03*
%TD*%
D26*
%TO.P,SW19,1*%
%TO.N,col3*%
X85556631Y-95501855D03*
D27*
%TO.P,SW19,2*%
%TO.N,Net-(D19-Pad2)*%
X91187500Y-93995000D03*
D17*
%TO.P,SW19,1*%
%TO.N,col3*%
X86187500Y-94795000D03*
D28*
%TO.P,SW19,2*%
%TO.N,Net-(D19-Pad2)*%
X92587542Y-93254599D03*
D29*
%TO.P,SW19,1*%
%TO.N,col3*%
X83587500Y-102695000D03*
D30*
%TO.P,SW19,2*%
%TO.N,Net-(D19-Pad2)*%
X88687500Y-104695000D03*
%TD*%
D26*
%TO.P,SW13,1*%
%TO.N,col0*%
X19056631Y-80626855D03*
D27*
%TO.P,SW13,2*%
%TO.N,Net-(D13-Pad2)*%
X24687500Y-79120000D03*
D17*
%TO.P,SW13,1*%
%TO.N,col0*%
X19687500Y-79920000D03*
D28*
%TO.P,SW13,2*%
%TO.N,Net-(D13-Pad2)*%
X26087542Y-78379599D03*
D29*
%TO.P,SW13,1*%
%TO.N,col0*%
X17087500Y-87820000D03*
D30*
%TO.P,SW13,2*%
%TO.N,Net-(D13-Pad2)*%
X22187500Y-89820000D03*
%TD*%
D26*
%TO.P,SW39,1*%
%TO.N,col5_r*%
X180553978Y-78252287D03*
D27*
%TO.P,SW39,2*%
%TO.N,Net-(D39-Pad2)*%
X186184847Y-76745432D03*
D17*
%TO.P,SW39,1*%
%TO.N,col5_r*%
X181184847Y-77545432D03*
D28*
%TO.P,SW39,2*%
%TO.N,Net-(D39-Pad2)*%
X187584889Y-76005031D03*
D29*
%TO.P,SW39,1*%
%TO.N,col5_r*%
X178584847Y-85445432D03*
D30*
%TO.P,SW39,2*%
%TO.N,Net-(D39-Pad2)*%
X183684847Y-87445432D03*
%TD*%
D26*
%TO.P,SW28,1*%
%TO.N,col0_r*%
X275509831Y-69875755D03*
D27*
%TO.P,SW28,2*%
%TO.N,Net-(D28-Pad2)*%
X281140700Y-68368900D03*
D17*
%TO.P,SW28,1*%
%TO.N,col0_r*%
X276140700Y-69168900D03*
D28*
%TO.P,SW28,2*%
%TO.N,Net-(D28-Pad2)*%
X282540742Y-67628499D03*
D29*
%TO.P,SW28,1*%
%TO.N,col0_r*%
X273540700Y-77068900D03*
D30*
%TO.P,SW28,2*%
%TO.N,Net-(D28-Pad2)*%
X278640700Y-79068900D03*
%TD*%
D26*
%TO.P,SW23,1*%
%TO.N,col1_r*%
X256509831Y-50875755D03*
D27*
%TO.P,SW23,2*%
%TO.N,Net-(D23-Pad2)*%
X262140700Y-49368900D03*
D17*
%TO.P,SW23,1*%
%TO.N,col1_r*%
X257140700Y-50168900D03*
D28*
%TO.P,SW23,2*%
%TO.N,Net-(D23-Pad2)*%
X263540742Y-48628499D03*
D29*
%TO.P,SW23,1*%
%TO.N,col1_r*%
X254540700Y-58068900D03*
D30*
%TO.P,SW23,2*%
%TO.N,Net-(D23-Pad2)*%
X259640700Y-60068900D03*
%TD*%
D26*
%TO.P,SW40,1*%
%TO.N,col3_r*%
X209053978Y-95502287D03*
D27*
%TO.P,SW40,2*%
%TO.N,Net-(D40-Pad2)*%
X214684847Y-93995432D03*
D17*
%TO.P,SW40,1*%
%TO.N,col3_r*%
X209684847Y-94795432D03*
D28*
%TO.P,SW40,2*%
%TO.N,Net-(D40-Pad2)*%
X216084889Y-93255031D03*
D29*
%TO.P,SW40,1*%
%TO.N,col3_r*%
X207084847Y-102695432D03*
D30*
%TO.P,SW40,2*%
%TO.N,Net-(D40-Pad2)*%
X212184847Y-104695432D03*
%TD*%
D26*
%TO.P,SW38,1*%
%TO.N,col4_r*%
X199553978Y-75877287D03*
D27*
%TO.P,SW38,2*%
%TO.N,Net-(D38-Pad2)*%
X205184847Y-74370432D03*
D17*
%TO.P,SW38,1*%
%TO.N,col4_r*%
X200184847Y-75170432D03*
D28*
%TO.P,SW38,2*%
%TO.N,Net-(D38-Pad2)*%
X206584889Y-73630031D03*
D29*
%TO.P,SW38,1*%
%TO.N,col4_r*%
X197584847Y-83070432D03*
D30*
%TO.P,SW38,2*%
%TO.N,Net-(D38-Pad2)*%
X202684847Y-85070432D03*
%TD*%
D26*
%TO.P,SW36,1*%
%TO.N,col2_r*%
X237553978Y-75877287D03*
D27*
%TO.P,SW36,2*%
%TO.N,Net-(D36-Pad2)*%
X243184847Y-74370432D03*
D17*
%TO.P,SW36,1*%
%TO.N,col2_r*%
X238184847Y-75170432D03*
D28*
%TO.P,SW36,2*%
%TO.N,Net-(D36-Pad2)*%
X244584889Y-73630031D03*
D29*
%TO.P,SW36,1*%
%TO.N,col2_r*%
X235584847Y-83070432D03*
D30*
%TO.P,SW36,2*%
%TO.N,Net-(D36-Pad2)*%
X240684847Y-85070432D03*
%TD*%
D26*
%TO.P,SW35,1*%
%TO.N,col1_r*%
X256509831Y-88875755D03*
D27*
%TO.P,SW35,2*%
%TO.N,Net-(D35-Pad2)*%
X262140700Y-87368900D03*
D17*
%TO.P,SW35,1*%
%TO.N,col1_r*%
X257140700Y-88168900D03*
D28*
%TO.P,SW35,2*%
%TO.N,Net-(D35-Pad2)*%
X263540742Y-86628499D03*
D29*
%TO.P,SW35,1*%
%TO.N,col1_r*%
X254540700Y-96068900D03*
D30*
%TO.P,SW35,2*%
%TO.N,Net-(D35-Pad2)*%
X259640700Y-98068900D03*
%TD*%
D26*
%TO.P,SW34,1*%
%TO.N,col0_r*%
X275509831Y-88875755D03*
D27*
%TO.P,SW34,2*%
%TO.N,Net-(D34-Pad2)*%
X281140700Y-87368900D03*
D17*
%TO.P,SW34,1*%
%TO.N,col0_r*%
X276140700Y-88168900D03*
D28*
%TO.P,SW34,2*%
%TO.N,Net-(D34-Pad2)*%
X282540742Y-86628499D03*
D29*
%TO.P,SW34,1*%
%TO.N,col0_r*%
X273540700Y-96068900D03*
D30*
%TO.P,SW34,2*%
%TO.N,Net-(D34-Pad2)*%
X278640700Y-98068900D03*
%TD*%
D26*
%TO.P,SW31,1*%
%TO.N,col3_r*%
X218553978Y-54502287D03*
D27*
%TO.P,SW31,2*%
%TO.N,Net-(D31-Pad2)*%
X224184847Y-52995432D03*
D17*
%TO.P,SW31,1*%
%TO.N,col3_r*%
X219184847Y-53795432D03*
D28*
%TO.P,SW31,2*%
%TO.N,Net-(D31-Pad2)*%
X225584889Y-52255031D03*
D29*
%TO.P,SW31,1*%
%TO.N,col3_r*%
X216584847Y-61695432D03*
D30*
%TO.P,SW31,2*%
%TO.N,Net-(D31-Pad2)*%
X221684847Y-63695432D03*
%TD*%
D26*
%TO.P,SW30,1*%
%TO.N,col2_r*%
X237553978Y-56877287D03*
D27*
%TO.P,SW30,2*%
%TO.N,Net-(D30-Pad2)*%
X243184847Y-55370432D03*
D17*
%TO.P,SW30,1*%
%TO.N,col2_r*%
X238184847Y-56170432D03*
D28*
%TO.P,SW30,2*%
%TO.N,Net-(D30-Pad2)*%
X244584889Y-54630031D03*
D29*
%TO.P,SW30,1*%
%TO.N,col2_r*%
X235584847Y-64070432D03*
D30*
%TO.P,SW30,2*%
%TO.N,Net-(D30-Pad2)*%
X240684847Y-66070432D03*
%TD*%
D26*
%TO.P,SW29,1*%
%TO.N,col1_r*%
X256509831Y-69875755D03*
D27*
%TO.P,SW29,2*%
%TO.N,Net-(D29-Pad2)*%
X262140700Y-68368900D03*
D17*
%TO.P,SW29,1*%
%TO.N,col1_r*%
X257140700Y-69168900D03*
D28*
%TO.P,SW29,2*%
%TO.N,Net-(D29-Pad2)*%
X263540742Y-67628499D03*
D29*
%TO.P,SW29,1*%
%TO.N,col1_r*%
X254540700Y-77068900D03*
D30*
%TO.P,SW29,2*%
%TO.N,Net-(D29-Pad2)*%
X259640700Y-79068900D03*
%TD*%
D26*
%TO.P,SW25,1*%
%TO.N,col3_r*%
X218553978Y-35502287D03*
D27*
%TO.P,SW25,2*%
%TO.N,Net-(D25-Pad2)*%
X224184847Y-33995432D03*
D17*
%TO.P,SW25,1*%
%TO.N,col3_r*%
X219184847Y-34795432D03*
D28*
%TO.P,SW25,2*%
%TO.N,Net-(D25-Pad2)*%
X225584889Y-33255031D03*
D29*
%TO.P,SW25,1*%
%TO.N,col3_r*%
X216584847Y-42695432D03*
D30*
%TO.P,SW25,2*%
%TO.N,Net-(D25-Pad2)*%
X221684847Y-44695432D03*
%TD*%
D26*
%TO.P,SW24,1*%
%TO.N,col2_r*%
X237553978Y-37877287D03*
D27*
%TO.P,SW24,2*%
%TO.N,Net-(D24-Pad2)*%
X243184847Y-36370432D03*
D17*
%TO.P,SW24,1*%
%TO.N,col2_r*%
X238184847Y-37170432D03*
D28*
%TO.P,SW24,2*%
%TO.N,Net-(D24-Pad2)*%
X244584889Y-35630031D03*
D29*
%TO.P,SW24,1*%
%TO.N,col2_r*%
X235584847Y-45070432D03*
D30*
%TO.P,SW24,2*%
%TO.N,Net-(D24-Pad2)*%
X240684847Y-47070432D03*
%TD*%
D26*
%TO.P,SW22,1*%
%TO.N,col0_r*%
X275509831Y-50875755D03*
D27*
%TO.P,SW22,2*%
%TO.N,Net-(D22-Pad2)*%
X281140700Y-49368900D03*
D17*
%TO.P,SW22,1*%
%TO.N,col0_r*%
X276140700Y-50168900D03*
D28*
%TO.P,SW22,2*%
%TO.N,Net-(D22-Pad2)*%
X282540742Y-48628499D03*
D29*
%TO.P,SW22,1*%
%TO.N,col0_r*%
X273540700Y-58068900D03*
D30*
%TO.P,SW22,2*%
%TO.N,Net-(D22-Pad2)*%
X278640700Y-60068900D03*
%TD*%
D26*
%TO.P,SW4,1*%
%TO.N,col3*%
X76056631Y-35501855D03*
D27*
%TO.P,SW4,2*%
%TO.N,Net-(D4-Pad2)*%
X81687500Y-33995000D03*
D17*
%TO.P,SW4,1*%
%TO.N,col3*%
X76687500Y-34795000D03*
D28*
%TO.P,SW4,2*%
%TO.N,Net-(D4-Pad2)*%
X83087542Y-33254599D03*
D29*
%TO.P,SW4,1*%
%TO.N,col3*%
X74087500Y-42695000D03*
D30*
%TO.P,SW4,2*%
%TO.N,Net-(D4-Pad2)*%
X79187500Y-44695000D03*
%TD*%
D26*
%TO.P,SW5,1*%
%TO.N,col4*%
X95056631Y-37876855D03*
D27*
%TO.P,SW5,2*%
%TO.N,Net-(D5-Pad2)*%
X100687500Y-36370000D03*
D17*
%TO.P,SW5,1*%
%TO.N,col4*%
X95687500Y-37170000D03*
D28*
%TO.P,SW5,2*%
%TO.N,Net-(D5-Pad2)*%
X102087542Y-35629599D03*
D29*
%TO.P,SW5,1*%
%TO.N,col4*%
X93087500Y-45070000D03*
D30*
%TO.P,SW5,2*%
%TO.N,Net-(D5-Pad2)*%
X98187500Y-47070000D03*
%TD*%
D26*
%TO.P,SW6,1*%
%TO.N,col5*%
X114056631Y-40251855D03*
D27*
%TO.P,SW6,2*%
%TO.N,Net-(D6-Pad2)*%
X119687500Y-38745000D03*
D17*
%TO.P,SW6,1*%
%TO.N,col5*%
X114687500Y-39545000D03*
D28*
%TO.P,SW6,2*%
%TO.N,Net-(D6-Pad2)*%
X121087542Y-38004599D03*
D29*
%TO.P,SW6,1*%
%TO.N,col5*%
X112087500Y-47445000D03*
D30*
%TO.P,SW6,2*%
%TO.N,Net-(D6-Pad2)*%
X117187500Y-49445000D03*
%TD*%
D41*
%TO.P,U2,24*%
%TO.N,Net-(U2-Pad24)*%
X156454247Y-42208432D03*
%TO.P,U2,23*%
%TO.N,GNDA*%
X156454247Y-44748432D03*
%TO.P,U2,22*%
%TO.N,reset_r*%
X156454247Y-47288432D03*
%TO.P,U2,21*%
%TO.N,VDD*%
X156454247Y-49828432D03*
%TO.P,U2,20*%
%TO.N,col0_r*%
X156454247Y-52368432D03*
%TO.P,U2,19*%
%TO.N,col1_r*%
X156454247Y-54908432D03*
%TO.P,U2,18*%
%TO.N,col2_r*%
X156454247Y-57448432D03*
%TO.P,U2,17*%
%TO.N,col3_r*%
X156454247Y-59988432D03*
%TO.P,U2,16*%
%TO.N,col4_r*%
X156454247Y-62528432D03*
%TO.P,U2,15*%
%TO.N,col5_r*%
X156454247Y-65068432D03*
%TO.P,U2,14*%
%TO.N,Net-(U2-Pad14)*%
X156454247Y-67608432D03*
%TO.P,U2,13*%
%TO.N,Net-(U2-Pad13)*%
X156454247Y-70148432D03*
%TO.P,U2,12*%
%TO.N,Net-(U2-Pad12)*%
X171674247Y-70148432D03*
%TO.P,U2,11*%
%TO.N,Net-(U2-Pad11)*%
X171674247Y-67608432D03*
%TO.P,U2,10*%
%TO.N,row3_r*%
X171674247Y-65068432D03*
%TO.P,U2,9*%
%TO.N,row2_r*%
X171674247Y-62528432D03*
%TO.P,U2,8*%
%TO.N,row1_r*%
X171674247Y-59988432D03*
%TO.P,U2,7*%
%TO.N,row0_r*%
X171674247Y-57448432D03*
%TO.P,U2,6*%
%TO.N,SCL_r*%
X171674247Y-54908432D03*
%TO.P,U2,5*%
%TO.N,SDA_r*%
X171674247Y-52368432D03*
%TO.P,U2,4*%
%TO.N,GNDA*%
X171674247Y-49828432D03*
%TO.P,U2,3*%
X171674247Y-47288432D03*
%TO.P,U2,2*%
%TO.N,data_r*%
X171674247Y-44748432D03*
%TO.P,U2,1*%
%TO.N,Net-(U2-Pad1)*%
X171674247Y-42208432D03*
%TD*%
%TO.P,U1,24*%
%TO.N,Net-(U1-Pad24)*%
X129283900Y-42082000D03*
%TO.P,U1,23*%
%TO.N,GND*%
X129283900Y-44622000D03*
%TO.P,U1,22*%
%TO.N,reset*%
X129283900Y-47162000D03*
%TO.P,U1,21*%
%TO.N,VCC*%
X129283900Y-49702000D03*
%TO.P,U1,20*%
%TO.N,col0*%
X129283900Y-52242000D03*
%TO.P,U1,19*%
%TO.N,col1*%
X129283900Y-54782000D03*
%TO.P,U1,18*%
%TO.N,col2*%
X129283900Y-57322000D03*
%TO.P,U1,17*%
%TO.N,col3*%
X129283900Y-59862000D03*
%TO.P,U1,16*%
%TO.N,col4*%
X129283900Y-62402000D03*
%TO.P,U1,15*%
%TO.N,col5*%
X129283900Y-64942000D03*
%TO.P,U1,14*%
%TO.N,Net-(U1-Pad14)*%
X129283900Y-67482000D03*
%TO.P,U1,13*%
%TO.N,Net-(U1-Pad13)*%
X129283900Y-70022000D03*
%TO.P,U1,12*%
%TO.N,Net-(U1-Pad12)*%
X144503900Y-70022000D03*
%TO.P,U1,11*%
%TO.N,Net-(U1-Pad11)*%
X144503900Y-67482000D03*
%TO.P,U1,10*%
%TO.N,row3*%
X144503900Y-64942000D03*
%TO.P,U1,9*%
%TO.N,row2*%
X144503900Y-62402000D03*
%TO.P,U1,8*%
%TO.N,row1*%
X144503900Y-59862000D03*
%TO.P,U1,7*%
%TO.N,row0*%
X144503900Y-57322000D03*
%TO.P,U1,6*%
%TO.N,SCL*%
X144503900Y-54782000D03*
%TO.P,U1,5*%
%TO.N,SDA*%
X144503900Y-52242000D03*
%TO.P,U1,4*%
%TO.N,GND*%
X144503900Y-49702000D03*
%TO.P,U1,3*%
X144503900Y-47162000D03*
%TO.P,U1,2*%
%TO.N,data*%
X144503900Y-44622000D03*
%TO.P,U1,1*%
%TO.N,Net-(U1-Pad1)*%
X144503900Y-42082000D03*
%TD*%
D42*
%TO.N,col0*%
X34697500Y-67410000D03*
%TO.N,col1*%
X37984500Y-69494000D03*
%TO.N,col2*%
X56884500Y-71461010D03*
%TO.N,col3*%
X75637500Y-71190000D03*
%TO.N,col4*%
X94797500Y-70620000D03*
%TO.N,col5*%
X113984500Y-72835062D03*
%TO.N,row2_r*%
X175514847Y-75010432D03*
X175514847Y-68200433D03*
%TO.N,row3_r*%
X174894847Y-75770432D03*
X174964847Y-67370432D03*
%TO.N,col0_r*%
X265600700Y-76965910D03*
%TO.N,col2_r*%
X236382717Y-69847442D03*
%TO.N,col3_r*%
X217444847Y-70301453D03*
%TO.N,col4_r*%
X198523797Y-70834414D03*
%TO.N,col5_r*%
X179944847Y-73240420D03*
%TD*%
D43*
%TO.N,Net-(D1-Pad2)*%
X24727500Y-40840000D02*
X25055750Y-41168250D01*
D44*
X22187500Y-51791000D02*
X22187500Y-51820000D01*
X25494500Y-48484000D02*
X22187500Y-51791000D01*
X25494500Y-41607000D02*
X25494500Y-48484000D01*
X24727500Y-40840000D02*
X25494500Y-41607000D01*
D43*
%TO.N,Net-(D2-Pad2)*%
X44055750Y-41168250D02*
X43727500Y-40840000D01*
D44*
X41437500Y-51820000D02*
X41187500Y-51820000D01*
X44494500Y-41607000D02*
X44494500Y-48763000D01*
X44494500Y-48763000D02*
X41437500Y-51820000D01*
X43727500Y-40840000D02*
X44494500Y-41607000D01*
D43*
%TO.N,Net-(D3-Pad2)*%
X62727500Y-36090000D02*
X63055750Y-36418250D01*
D44*
X60437500Y-47070000D02*
X60187500Y-47070000D01*
X63464500Y-44043000D02*
X60437500Y-47070000D01*
X63464500Y-36827000D02*
X63464500Y-44043000D01*
X62727500Y-36090000D02*
X63464500Y-36827000D01*
D43*
%TO.N,Net-(D4-Pad2)*%
X81727500Y-33715000D02*
X82055750Y-34043250D01*
D44*
X79437500Y-44695000D02*
X79187500Y-44695000D01*
X82454500Y-41678000D02*
X79437500Y-44695000D01*
X82454500Y-34442000D02*
X82454500Y-41678000D01*
X81727500Y-33715000D02*
X82454500Y-34442000D01*
D43*
%TO.N,Net-(D5-Pad2)*%
X100727500Y-36090000D02*
X101055750Y-36418250D01*
D44*
X101484500Y-43834000D02*
X98248500Y-47070000D01*
X98248500Y-47070000D02*
X98187500Y-47070000D01*
X101484500Y-36847000D02*
X101484500Y-43834000D01*
X100727500Y-36090000D02*
X101484500Y-36847000D01*
D43*
%TO.N,Net-(D6-Pad2)*%
X119727500Y-38465000D02*
X120055750Y-38793250D01*
D44*
X117437500Y-49445000D02*
X117187500Y-49445000D01*
X120484500Y-46398000D02*
X117437500Y-49445000D01*
X120484500Y-39222000D02*
X120484500Y-46398000D01*
X119727500Y-38465000D02*
X120484500Y-39222000D01*
D43*
%TO.N,Net-(D7-Pad2)*%
X25055750Y-60168250D02*
X24727500Y-59840000D01*
D44*
X22437500Y-70820000D02*
X22187500Y-70820000D01*
X25464500Y-67793000D02*
X22437500Y-70820000D01*
X25464500Y-60577000D02*
X25464500Y-67793000D01*
X24727500Y-59840000D02*
X25464500Y-60577000D01*
D43*
%TO.N,Net-(D8-Pad2)*%
X43727500Y-59840000D02*
X44055750Y-60168250D01*
D44*
X41298500Y-70820000D02*
X41187500Y-70820000D01*
X44444500Y-67674000D02*
X41298500Y-70820000D01*
X44444500Y-60557000D02*
X44444500Y-67674000D01*
X43727500Y-59840000D02*
X44444500Y-60557000D01*
D43*
%TO.N,Net-(D9-Pad2)*%
X62727500Y-55090000D02*
X63055750Y-55418250D01*
D44*
X60437500Y-66070000D02*
X60187500Y-66070000D01*
X63604500Y-62903000D02*
X60437500Y-66070000D01*
X63604500Y-55967000D02*
X63604500Y-62903000D01*
X62727500Y-55090000D02*
X63604500Y-55967000D01*
D43*
%TO.N,Net-(D10-Pad2)*%
X81727500Y-52715000D02*
X82055750Y-53043250D01*
D44*
X82444500Y-60688000D02*
X79437500Y-63695000D01*
X79437500Y-63695000D02*
X79187500Y-63695000D01*
X82444500Y-53432000D02*
X82444500Y-60688000D01*
X81727500Y-52715000D02*
X82444500Y-53432000D01*
D43*
%TO.N,Net-(D11-Pad2)*%
X100727500Y-55090000D02*
X101055750Y-55418250D01*
D44*
X98437500Y-66070000D02*
X98187500Y-66070000D01*
X101564500Y-62943000D02*
X98437500Y-66070000D01*
X101564500Y-55927000D02*
X101564500Y-62943000D01*
X100727500Y-55090000D02*
X101564500Y-55927000D01*
D43*
%TO.N,Net-(D12-Pad2)*%
X119727500Y-57465000D02*
X120055750Y-57793250D01*
D44*
X117437500Y-68445000D02*
X117187500Y-68445000D01*
X120604500Y-65278000D02*
X117437500Y-68445000D01*
X120604500Y-58342000D02*
X120604500Y-65278000D01*
X119727500Y-57465000D02*
X120604500Y-58342000D01*
D43*
%TO.N,Net-(D13-Pad2)*%
X24727500Y-78840000D02*
X25055750Y-79168250D01*
D44*
X22437500Y-89820000D02*
X22187500Y-89820000D01*
X25424500Y-86833000D02*
X22437500Y-89820000D01*
X25424500Y-79537000D02*
X25424500Y-86833000D01*
X24727500Y-78840000D02*
X25424500Y-79537000D01*
D43*
%TO.N,Net-(D14-Pad2)*%
X43727500Y-78840000D02*
X44055750Y-79168250D01*
D44*
X41437500Y-89820000D02*
X41187500Y-89820000D01*
X44534500Y-86723000D02*
X41437500Y-89820000D01*
X44534500Y-79647000D02*
X44534500Y-86723000D01*
X43727500Y-78840000D02*
X44534500Y-79647000D01*
D43*
%TO.N,Net-(D15-Pad2)*%
X62727500Y-74090000D02*
X63055750Y-74418250D01*
D44*
X60437500Y-85070000D02*
X60187500Y-85070000D01*
X63534500Y-81973000D02*
X60437500Y-85070000D01*
X63534500Y-74897000D02*
X63534500Y-81973000D01*
X62727500Y-74090000D02*
X63534500Y-74897000D01*
D43*
%TO.N,Net-(D16-Pad2)*%
X81727500Y-71715000D02*
X82055750Y-72043250D01*
D44*
X79437500Y-82695000D02*
X79187500Y-82695000D01*
X82584500Y-79548000D02*
X79437500Y-82695000D01*
X82584500Y-72572000D02*
X82584500Y-79548000D01*
X81727500Y-71715000D02*
X82584500Y-72572000D01*
D43*
%TO.N,Net-(D17-Pad2)*%
X100727500Y-74090000D02*
X101055750Y-74418250D01*
D44*
X98437500Y-85070000D02*
X98187500Y-85070000D01*
X101484500Y-82023000D02*
X98437500Y-85070000D01*
X101484500Y-74847000D02*
X101484500Y-82023000D01*
X100727500Y-74090000D02*
X101484500Y-74847000D01*
D43*
%TO.N,Net-(D18-Pad2)*%
X119727500Y-76465000D02*
X120055750Y-76793250D01*
D44*
X117437500Y-87445000D02*
X117187500Y-87445000D01*
X120494500Y-77232000D02*
X120494500Y-84388000D01*
X120494500Y-84388000D02*
X117437500Y-87445000D01*
X119727500Y-76465000D02*
X120494500Y-77232000D01*
D43*
%TO.N,Net-(D19-Pad2)*%
X91227500Y-93715000D02*
X91555750Y-94043250D01*
D44*
X91914500Y-101718000D02*
X88937500Y-104695000D01*
X88937500Y-104695000D02*
X88687500Y-104695000D01*
X91914500Y-94402000D02*
X91914500Y-101718000D01*
X91227500Y-93715000D02*
X91914500Y-94402000D01*
%TO.N,Net-(D20-Pad2)*%
X108584538Y-107243962D02*
X108160468Y-107243962D01*
X113004500Y-102824000D02*
X108584538Y-107243962D01*
X113004500Y-97746749D02*
X113004500Y-102824000D01*
X113455752Y-97295497D02*
X113004500Y-97746749D01*
%TO.N,Net-(D21-Pad2)*%
X137047050Y-105926550D02*
X137047050Y-108245000D01*
X132284500Y-101164000D02*
X137047050Y-105926550D01*
X129416796Y-101164000D02*
X132284500Y-101164000D01*
X128808091Y-100555295D02*
X129416796Y-101164000D01*
D45*
%TO.N,GND*%
X144503900Y-47162000D02*
X144503900Y-49702000D01*
X146214500Y-51412600D02*
X146214500Y-72711000D01*
X144503900Y-49702000D02*
X146214500Y-51412600D01*
X140757500Y-77168000D02*
X140648500Y-77168000D01*
X144504500Y-73421000D02*
X140757500Y-77168000D01*
X145214500Y-72711000D02*
X144504500Y-73421000D01*
X146214500Y-72711000D02*
X145214500Y-72711000D01*
X140382500Y-86532000D02*
X140648500Y-86798000D01*
X140336500Y-86532000D02*
X140382500Y-86532000D01*
X146214500Y-80654000D02*
X140336500Y-86532000D01*
X146214500Y-72711000D02*
X146214500Y-80654000D01*
%TO.N,VCC*%
X130499901Y-50918001D02*
X130548501Y-50918001D01*
X129283900Y-49702000D02*
X130499901Y-50918001D01*
X130548501Y-50918001D02*
X131584500Y-51954000D01*
X131584500Y-51954000D02*
X131584500Y-78754000D01*
X135552500Y-79724000D02*
X138108500Y-77168000D01*
X132554500Y-79724000D02*
X135552500Y-79724000D01*
X131584500Y-78754000D02*
X132554500Y-79724000D01*
X131544500Y-78794000D02*
X131584500Y-78754000D01*
X131544500Y-83314000D02*
X131544500Y-78794000D01*
X134762500Y-86532000D02*
X131544500Y-83314000D01*
X135914500Y-86532000D02*
X134762500Y-86532000D01*
D43*
%TO.N,col0*%
X18377500Y-81380000D02*
X18524500Y-81527000D01*
X18524500Y-62233000D02*
X18377500Y-62380000D01*
X18377500Y-43380000D02*
X18524500Y-43527000D01*
X18534500Y-72474000D02*
X18534500Y-68844000D01*
X18534500Y-81223000D02*
X18377500Y-81380000D01*
X18377500Y-62380000D02*
X18534500Y-62537000D01*
D44*
X17330500Y-49820000D02*
X18524500Y-51014000D01*
X17087500Y-49820000D02*
X17330500Y-49820000D01*
D43*
X18524500Y-51014000D02*
X18524500Y-62233000D01*
X18524500Y-43527000D02*
X18524500Y-51014000D01*
D44*
X17330500Y-68820000D02*
X18534500Y-70024000D01*
X17087500Y-68820000D02*
X17330500Y-68820000D01*
D43*
X18534500Y-70024000D02*
X18534500Y-81223000D01*
X18534500Y-62537000D02*
X18534500Y-70024000D01*
D44*
X18674500Y-81677000D02*
X18377500Y-81380000D01*
X18674500Y-86174000D02*
X18674500Y-81677000D01*
X17087500Y-87761000D02*
X18674500Y-86174000D01*
X17087500Y-87820000D02*
X17087500Y-87761000D01*
X18534500Y-74323000D02*
X18534500Y-74372000D01*
X24197500Y-71660000D02*
X23197500Y-72660000D01*
X23197500Y-72660000D02*
X20197500Y-72660000D01*
X34397501Y-69334999D02*
X32072500Y-71660000D01*
X34397501Y-67709999D02*
X34397501Y-69334999D01*
X20197500Y-72660000D02*
X18534500Y-74323000D01*
X32072500Y-71660000D02*
X24197500Y-71660000D01*
X34697500Y-67410000D02*
X34397501Y-67709999D01*
D43*
%TO.N,col1*%
X37377500Y-81380000D02*
X37524500Y-81527000D01*
X37524500Y-62233000D02*
X37377500Y-62380000D01*
X37377500Y-43380000D02*
X37524500Y-43527000D01*
X37384500Y-81373000D02*
X37384500Y-73094000D01*
X37377500Y-81380000D02*
X37384500Y-81373000D01*
X37384500Y-73094000D02*
X37384500Y-70094000D01*
X37384500Y-70094000D02*
X37684501Y-69793999D01*
X37684501Y-69793999D02*
X37984500Y-69494000D01*
D44*
X36280500Y-68820000D02*
X37384500Y-69924000D01*
X36087500Y-68820000D02*
X36280500Y-68820000D01*
D43*
X37384500Y-69924000D02*
X37384500Y-73094000D01*
D44*
X36380500Y-49820000D02*
X37524500Y-50964000D01*
X36087500Y-49820000D02*
X36380500Y-49820000D01*
D43*
X37524500Y-50964000D02*
X37524500Y-62233000D01*
X37524500Y-43527000D02*
X37524500Y-50964000D01*
D44*
X37544500Y-81547000D02*
X37377500Y-81380000D01*
X37544500Y-86363000D02*
X37544500Y-81547000D01*
X36087500Y-87820000D02*
X37544500Y-86363000D01*
D43*
X37614500Y-69694000D02*
X37384500Y-69924000D01*
X37614500Y-62617000D02*
X37614500Y-69694000D01*
X37377500Y-62380000D02*
X37614500Y-62617000D01*
%TO.N,col2*%
X56377500Y-76630000D02*
X56524500Y-76777000D01*
X56524500Y-57483000D02*
X56377500Y-57630000D01*
X56377500Y-38630000D02*
X56524500Y-38777000D01*
X56384500Y-76623000D02*
X56377500Y-76630000D01*
X56384500Y-69294000D02*
X56384500Y-76623000D01*
D44*
X55087500Y-45070000D02*
X55360500Y-45070000D01*
X55360500Y-45070000D02*
X56524500Y-46234000D01*
D43*
X56524500Y-46234000D02*
X56524500Y-57483000D01*
X56524500Y-38777000D02*
X56524500Y-46234000D01*
X56384500Y-70961010D02*
X56584501Y-71161011D01*
X56584501Y-71161011D02*
X56884500Y-71461010D01*
X56384500Y-69294000D02*
X56384500Y-70961010D01*
X56384500Y-65264000D02*
X56384500Y-69065500D01*
X56384500Y-69065500D02*
X56384500Y-69294000D01*
D44*
X56384500Y-65204000D02*
X56384500Y-65264000D01*
X55250500Y-64070000D02*
X56384500Y-65204000D01*
X55087500Y-64070000D02*
X55250500Y-64070000D01*
D43*
X56384500Y-65104000D02*
X56384500Y-65264000D01*
X56854500Y-64634000D02*
X56384500Y-65104000D01*
X56854500Y-58107000D02*
X56854500Y-64634000D01*
X56377500Y-57630000D02*
X56854500Y-58107000D01*
D44*
X56634500Y-76887000D02*
X56377500Y-76630000D01*
X56634500Y-81773000D02*
X56634500Y-76887000D01*
X55337500Y-83070000D02*
X56634500Y-81773000D01*
X55087500Y-83070000D02*
X55337500Y-83070000D01*
D43*
%TO.N,col3*%
X84877500Y-96255000D02*
X85024500Y-96402000D01*
X75377500Y-74255000D02*
X75524500Y-74402000D01*
X75484500Y-55148000D02*
X75377500Y-55255000D01*
X75524500Y-36402000D02*
X75524500Y-41258000D01*
X75524500Y-41258000D02*
X75484500Y-41298000D01*
X75377500Y-36255000D02*
X75524500Y-36402000D01*
X75377500Y-55255000D02*
X75524500Y-55402000D01*
X75484500Y-74148000D02*
X75377500Y-74255000D01*
X75377500Y-55255000D02*
X75484500Y-55362000D01*
D44*
X74325500Y-42695000D02*
X75484500Y-43854000D01*
X74087500Y-42695000D02*
X74325500Y-42695000D01*
D43*
X75484500Y-43854000D02*
X75484500Y-55148000D01*
X75484500Y-41298000D02*
X75484500Y-43854000D01*
D44*
X74265500Y-61695000D02*
X75484500Y-62914000D01*
X74087500Y-61695000D02*
X74265500Y-61695000D01*
D43*
X75484500Y-62914000D02*
X75484500Y-74148000D01*
X75484500Y-55362000D02*
X75484500Y-62914000D01*
D44*
X74395500Y-80695000D02*
X75524500Y-81824000D01*
X74087500Y-80695000D02*
X74395500Y-80695000D01*
D43*
X75524500Y-74402000D02*
X75524500Y-81824000D01*
D44*
X85174500Y-96552000D02*
X84877500Y-96255000D01*
X85174500Y-101108000D02*
X85174500Y-96552000D01*
X83587500Y-102695000D02*
X85174500Y-101108000D01*
D43*
X84877500Y-94842000D02*
X84877500Y-96255000D01*
X75524500Y-85489000D02*
X84877500Y-94842000D01*
X75524500Y-81824000D02*
X75524500Y-85489000D01*
X75584501Y-71557011D02*
X75584501Y-70194001D01*
X75613110Y-71585620D02*
X75584501Y-71557011D01*
X75637500Y-71190000D02*
X75613110Y-71585620D01*
%TO.N,col4*%
X106664723Y-96647223D02*
X106664723Y-98105448D01*
X94524500Y-84507000D02*
X106664723Y-96647223D01*
X94377500Y-76630000D02*
X94524500Y-76777000D01*
X94484500Y-76523000D02*
X94377500Y-76630000D01*
X94377500Y-57630000D02*
X94524500Y-57777000D01*
X94524500Y-57483000D02*
X94377500Y-57630000D01*
X94377500Y-38630000D02*
X94524500Y-38777000D01*
X94534500Y-76473000D02*
X94377500Y-76630000D01*
X94377500Y-57630000D02*
X94534500Y-57787000D01*
D44*
X106664723Y-101079295D02*
X103751884Y-103992134D01*
X106664723Y-98105448D02*
X106664723Y-101079295D01*
D43*
X94524500Y-84494000D02*
X94524500Y-84507000D01*
X94524500Y-76777000D02*
X94524500Y-84494000D01*
D44*
X94494500Y-84494000D02*
X94524500Y-84494000D01*
X93087500Y-83087000D02*
X94494500Y-84494000D01*
X93087500Y-83070000D02*
X93087500Y-83087000D01*
X93360500Y-45070000D02*
X94524500Y-46234000D01*
X93087500Y-45070000D02*
X93360500Y-45070000D01*
D43*
X94524500Y-46234000D02*
X94524500Y-57483000D01*
X94524500Y-38777000D02*
X94524500Y-46234000D01*
D44*
X93087500Y-64070000D02*
X93330500Y-64070000D01*
X93330500Y-64070000D02*
X94534500Y-65274000D01*
D43*
X94534500Y-65274000D02*
X94534500Y-76473000D01*
X94534500Y-57787000D02*
X94534500Y-65274000D01*
X94721500Y-70620000D02*
X94797500Y-70620000D01*
X94534500Y-70807000D02*
X94721500Y-70620000D01*
X94534500Y-71774000D02*
X94534500Y-70807000D01*
%TO.N,col5*%
X113524500Y-79152000D02*
X113524500Y-86882000D01*
X113377500Y-79005000D02*
X113524500Y-79152000D01*
X113524500Y-59858000D02*
X113377500Y-60005000D01*
X113377500Y-41005000D02*
X113524500Y-41152000D01*
X113524500Y-78858000D02*
X113377500Y-79005000D01*
X113377500Y-60005000D02*
X113524500Y-60152000D01*
D44*
X113524500Y-86882000D02*
X112087500Y-85445000D01*
X112087500Y-47445000D02*
X112305500Y-47445000D01*
X112305500Y-47445000D02*
X113524500Y-48664000D01*
D43*
X113524500Y-48664000D02*
X113524500Y-59858000D01*
X113524500Y-41152000D02*
X113524500Y-48664000D01*
D44*
X112087500Y-66445000D02*
X112285500Y-66445000D01*
X113464500Y-67624000D02*
X113524500Y-67624000D01*
X112285500Y-66445000D02*
X113464500Y-67624000D01*
D43*
X113524500Y-67624000D02*
X113524500Y-78858000D01*
X113524500Y-60152000D02*
X113524500Y-67624000D01*
X113560236Y-72835062D02*
X113984500Y-72835062D01*
X113524500Y-72870798D02*
X113560236Y-72835062D01*
X113524500Y-72934000D02*
X113524500Y-72870798D01*
D44*
X132764999Y-110714499D02*
X132764999Y-111661730D01*
X129344500Y-107294000D02*
X132764999Y-110714499D01*
X127863352Y-107294000D02*
X129344500Y-107294000D01*
X127832795Y-107324557D02*
X127863352Y-107294000D01*
D43*
X125984500Y-105476262D02*
X127832795Y-107324557D01*
X125984500Y-104704000D02*
X125984500Y-105476262D01*
D44*
X113524500Y-87504000D02*
X113524500Y-86882000D01*
X125984500Y-99964000D02*
X113524500Y-87504000D01*
X125984500Y-104704000D02*
X125984500Y-99964000D01*
D43*
%TO.N,data*%
X142914500Y-87132000D02*
X142914500Y-86532000D01*
X140522500Y-89524000D02*
X142914500Y-87132000D01*
X126824500Y-85894000D02*
X130454500Y-89524000D01*
X130454500Y-89524000D02*
X140522500Y-89524000D01*
X126824500Y-45124000D02*
X126824500Y-85894000D01*
X128594500Y-43354000D02*
X126824500Y-45124000D01*
X143235900Y-43354000D02*
X128594500Y-43354000D01*
X144503900Y-44622000D02*
X143235900Y-43354000D01*
%TO.N,reset*%
X144217500Y-79921000D02*
X144504500Y-79921000D01*
X137834500Y-86304000D02*
X144217500Y-79921000D01*
X127278510Y-85705944D02*
X130586566Y-89014000D01*
X130586566Y-89014000D02*
X137024500Y-89014000D01*
X137834500Y-88204000D02*
X137834500Y-86304000D01*
X129283900Y-47162000D02*
X127278510Y-49167390D01*
X127278510Y-49167390D02*
X127278510Y-85705944D01*
X137024500Y-89014000D02*
X137834500Y-88204000D01*
%TO.N,SCL*%
X136266999Y-76469501D02*
X135568500Y-77168000D01*
X144503900Y-54782000D02*
X142638511Y-56647389D01*
X136888489Y-75848011D02*
X136266999Y-76469501D01*
X142638510Y-72882058D02*
X139672557Y-75848011D01*
X139672557Y-75848011D02*
X136888489Y-75848011D01*
X142638511Y-56647389D02*
X142638510Y-72882058D01*
%TO.N,SDA*%
X139484500Y-75394000D02*
X134784500Y-75394000D01*
X134784500Y-75394000D02*
X133028500Y-77150000D01*
X142184500Y-54561400D02*
X142184500Y-72694000D01*
X142184500Y-72694000D02*
X139484500Y-75394000D01*
X133028500Y-77150000D02*
X133028500Y-77168000D01*
X144503900Y-52242000D02*
X142184500Y-54561400D01*
%TO.N,Net-(D22-Pad2)*%
X281180700Y-49088900D02*
X281609450Y-49517650D01*
D44*
X278890700Y-60068900D02*
X278640700Y-60068900D01*
X281890700Y-57068900D02*
X278890700Y-60068900D01*
X281890700Y-49798900D02*
X281890700Y-57068900D01*
X281180700Y-49088900D02*
X281890700Y-49798900D01*
D43*
%TO.N,Net-(D23-Pad2)*%
X262180700Y-49088900D02*
X262609450Y-49517650D01*
D44*
X259890700Y-60068900D02*
X259640700Y-60068900D01*
X263030700Y-56928900D02*
X259890700Y-60068900D01*
X263030700Y-49938900D02*
X263030700Y-56928900D01*
X262180700Y-49088900D02*
X263030700Y-49938900D01*
D43*
%TO.N,Net-(D24-Pad2)*%
X243224847Y-36090432D02*
X243653597Y-36519182D01*
D44*
X240934847Y-47070432D02*
X240684847Y-47070432D01*
X244014847Y-43990432D02*
X240934847Y-47070432D01*
X244014847Y-36880432D02*
X244014847Y-43990432D01*
X243224847Y-36090432D02*
X244014847Y-36880432D01*
D43*
%TO.N,Net-(D25-Pad2)*%
X224224847Y-33715432D02*
X224653597Y-34144182D01*
D44*
X224994847Y-41635432D02*
X221934847Y-44695432D01*
X224994847Y-34485432D02*
X224994847Y-41635432D01*
X221934847Y-44695432D02*
X221684847Y-44695432D01*
X224224847Y-33715432D02*
X224994847Y-34485432D01*
D43*
%TO.N,Net-(D26-Pad2)*%
X205224847Y-36090432D02*
X205653597Y-36519182D01*
D44*
X202934847Y-47070432D02*
X202684847Y-47070432D01*
X205874847Y-44130432D02*
X202934847Y-47070432D01*
X205874847Y-36740432D02*
X205874847Y-44130432D01*
X205224847Y-36090432D02*
X205874847Y-36740432D01*
D43*
%TO.N,Net-(D27-Pad2)*%
X186224847Y-38465432D02*
X186653597Y-38894182D01*
D44*
X187184847Y-46195432D02*
X183934847Y-49445432D01*
X187184847Y-39425432D02*
X187184847Y-46195432D01*
X183934847Y-49445432D02*
X183684847Y-49445432D01*
X186224847Y-38465432D02*
X187184847Y-39425432D01*
D43*
%TO.N,Net-(D28-Pad2)*%
X281180700Y-68088900D02*
X281609450Y-68517650D01*
D44*
X278670700Y-79068900D02*
X278640700Y-79068900D01*
X281780700Y-75958900D02*
X278670700Y-79068900D01*
X281780700Y-68688900D02*
X281780700Y-75958900D01*
X281180700Y-68088900D02*
X281780700Y-68688900D01*
D43*
%TO.N,Net-(D29-Pad2)*%
X262180700Y-68088900D02*
X262609450Y-68517650D01*
D44*
X262820700Y-76138900D02*
X259890700Y-79068900D01*
X262820700Y-68728900D02*
X262820700Y-76138900D01*
X259890700Y-79068900D02*
X259640700Y-79068900D01*
X262180700Y-68088900D02*
X262820700Y-68728900D01*
D43*
%TO.N,Net-(D30-Pad2)*%
X243224847Y-55090432D02*
X243653597Y-55519182D01*
D44*
X244014847Y-62820432D02*
X240764847Y-66070432D01*
X240764847Y-66070432D02*
X240684847Y-66070432D01*
X244014847Y-55880432D02*
X244014847Y-62820432D01*
X243224847Y-55090432D02*
X244014847Y-55880432D01*
D43*
%TO.N,Net-(D31-Pad2)*%
X224224847Y-52715432D02*
X224653597Y-53144182D01*
D44*
X225054847Y-53545432D02*
X225054847Y-60575432D01*
X221934847Y-63695432D02*
X221684847Y-63695432D01*
X225054847Y-60575432D02*
X221934847Y-63695432D01*
X224224847Y-52715432D02*
X225054847Y-53545432D01*
D43*
%TO.N,Net-(D32-Pad2)*%
X205224847Y-55090432D02*
X205653597Y-55519182D01*
D44*
X202934847Y-66070432D02*
X202684847Y-66070432D01*
X205984847Y-63020432D02*
X202934847Y-66070432D01*
X205984847Y-55850432D02*
X205984847Y-63020432D01*
X205224847Y-55090432D02*
X205984847Y-55850432D01*
D43*
%TO.N,Net-(D33-Pad2)*%
X186224847Y-57465432D02*
X186653597Y-57894182D01*
D44*
X183934847Y-68445432D02*
X183684847Y-68445432D01*
X187074847Y-58315432D02*
X187074847Y-65305432D01*
X187074847Y-65305432D02*
X183934847Y-68445432D01*
X186224847Y-57465432D02*
X187074847Y-58315432D01*
D43*
%TO.N,row2_r*%
X175034847Y-68680433D02*
X175514847Y-68200433D01*
X175034847Y-74530432D02*
X175034847Y-68680433D01*
X175514847Y-75010432D02*
X175034847Y-74530432D01*
%TO.N,Net-(D34-Pad2)*%
X281180700Y-87088900D02*
X281609450Y-87517650D01*
D44*
X278890700Y-98068900D02*
X278640700Y-98068900D01*
X281890700Y-95068900D02*
X278890700Y-98068900D01*
X281890700Y-87798900D02*
X281890700Y-95068900D01*
X281180700Y-87088900D02*
X281890700Y-87798900D01*
D43*
%TO.N,Net-(D35-Pad2)*%
X262180700Y-87088900D02*
X262609450Y-87517650D01*
D44*
X259890700Y-98068900D02*
X259640700Y-98068900D01*
X262770700Y-95188900D02*
X259890700Y-98068900D01*
X262770700Y-87678900D02*
X262770700Y-95188900D01*
X262180700Y-87088900D02*
X262770700Y-87678900D01*
D43*
%TO.N,Net-(D36-Pad2)*%
X243224847Y-74090432D02*
X243653597Y-74519182D01*
D44*
X244014847Y-81990432D02*
X240934847Y-85070432D01*
X240934847Y-85070432D02*
X240684847Y-85070432D01*
X244014847Y-74880432D02*
X244014847Y-81990432D01*
X243224847Y-74090432D02*
X244014847Y-74880432D01*
D43*
%TO.N,Net-(D37-Pad2)*%
X224224847Y-71715432D02*
X224653597Y-72144182D01*
D44*
X221889847Y-82695432D02*
X221684847Y-82695432D01*
X225054847Y-79530432D02*
X221889847Y-82695432D01*
X225054847Y-72545432D02*
X225054847Y-79530432D01*
X224224847Y-71715432D02*
X225054847Y-72545432D01*
D43*
%TO.N,Net-(D38-Pad2)*%
X205224847Y-74090432D02*
X205653597Y-74519182D01*
D44*
X205764847Y-82240432D02*
X202934847Y-85070432D01*
X205764847Y-74630432D02*
X205764847Y-82240432D01*
X202934847Y-85070432D02*
X202684847Y-85070432D01*
X205224847Y-74090432D02*
X205764847Y-74630432D01*
%TO.N,Net-(D39-Pad2)*%
X183934847Y-87445432D02*
X183684847Y-87445432D01*
X187024847Y-84355432D02*
X183934847Y-87445432D01*
X187024847Y-77265432D02*
X187024847Y-84355432D01*
X186224847Y-76465432D02*
X187024847Y-77265432D01*
D43*
%TO.N,Net-(D40-Pad2)*%
X214724847Y-93715432D02*
X215153597Y-94144182D01*
D44*
X215214847Y-101915432D02*
X212434847Y-104695432D01*
X212434847Y-104695432D02*
X212184847Y-104695432D01*
X215214847Y-94205432D02*
X215214847Y-101915432D01*
X214724847Y-93715432D02*
X215214847Y-94205432D01*
D43*
%TO.N,row3_r*%
X174664848Y-67670431D02*
X174964847Y-67370432D01*
X174564848Y-67770431D02*
X174664848Y-67670431D01*
X174894847Y-75770432D02*
X174564848Y-75440433D01*
X174564848Y-75440433D02*
X174564848Y-67770431D01*
D44*
%TO.N,Net-(D41-Pad2)*%
X193635056Y-106321217D02*
X192711879Y-107244394D01*
X194084847Y-105871426D02*
X193635056Y-106321217D01*
X194084847Y-97742477D02*
X194084847Y-105871426D01*
X192323498Y-95981128D02*
X194084847Y-97742477D01*
D43*
%TO.N,Net-(D42-Pad2)*%
X174604256Y-104955137D02*
X173786882Y-104955137D01*
D44*
X164190297Y-108610432D02*
X163825297Y-108245432D01*
X169774847Y-108610432D02*
X164190297Y-108610432D01*
X173430142Y-104955137D02*
X169774847Y-108610432D01*
X174604256Y-104955137D02*
X173430142Y-104955137D01*
D43*
%TO.N,data_r*%
X170958858Y-89186421D02*
X162524836Y-89186421D01*
X173626246Y-86519033D02*
X170958858Y-89186421D01*
X157907847Y-84569432D02*
X157907847Y-82465432D01*
X173626246Y-68361861D02*
X173626246Y-86519033D01*
X157907847Y-82465432D02*
X157907847Y-83465432D01*
X162524836Y-89186421D02*
X157907847Y-84569432D01*
X173623836Y-68359451D02*
X173626246Y-68361861D01*
X173623835Y-46698020D02*
X173623836Y-68359451D01*
X171674247Y-44748432D02*
X173623835Y-46698020D01*
%TO.N,SDA_r*%
X171674247Y-52368432D02*
X169744847Y-54297832D01*
X160109847Y-76975432D02*
X160109847Y-77310432D01*
X166718858Y-75466421D02*
X161618858Y-75466421D01*
X169744847Y-54297832D02*
X169744847Y-72440432D01*
X161618858Y-75466421D02*
X160109847Y-76975432D01*
X169744847Y-72440432D02*
X166718858Y-75466421D01*
%TO.N,SCL_r*%
X164039847Y-75920432D02*
X162649847Y-77310432D01*
X170198858Y-56383821D02*
X170198858Y-72686421D01*
X166964847Y-75920432D02*
X164039847Y-75920432D01*
X171674247Y-54908432D02*
X170198858Y-56383821D01*
X170198858Y-72686421D02*
X166964847Y-75920432D01*
%TO.N,reset_r*%
X156374847Y-81067432D02*
X156374847Y-80067432D01*
X154684847Y-85912500D02*
X154684847Y-82757432D01*
X158412779Y-89640432D02*
X154684847Y-85912500D01*
X154684847Y-82757432D02*
X156374847Y-81067432D01*
X171146915Y-89640432D02*
X158412779Y-89640432D01*
X174080257Y-86707090D02*
X171146915Y-89640432D01*
X174077846Y-68171393D02*
X174080257Y-68173804D01*
X156454247Y-47288432D02*
X160272247Y-43470432D01*
X174077846Y-67569471D02*
X174077846Y-68171393D01*
X174080257Y-67567060D02*
X174077846Y-67569471D01*
X174080257Y-68173804D02*
X174080257Y-86707090D01*
X160272247Y-43470432D02*
X172704847Y-43470432D01*
X174080257Y-44845842D02*
X174080257Y-67567060D01*
X172704847Y-43470432D02*
X174080257Y-44845842D01*
%TO.N,col0_r*%
X275078200Y-56531400D02*
X273540700Y-58068900D01*
X275078200Y-51876400D02*
X275078200Y-56531400D01*
X274830700Y-51628900D02*
X275078200Y-51876400D01*
X274830700Y-89628900D02*
X275078200Y-89876400D01*
X273540700Y-69338900D02*
X274830700Y-70628900D01*
X273540700Y-58068900D02*
X273540700Y-69338900D01*
X273540700Y-88338900D02*
X274830700Y-89628900D01*
X273540700Y-79688900D02*
X273540700Y-88338900D01*
X273540700Y-77068900D02*
X273540700Y-79688900D01*
X273540700Y-76248900D02*
X273540700Y-77068900D01*
X275078200Y-74711400D02*
X273540700Y-76248900D01*
X275078200Y-70876400D02*
X275078200Y-74711400D01*
X274830700Y-70628900D02*
X275078200Y-70876400D01*
D44*
X273540700Y-95988900D02*
X275130700Y-94398900D01*
X275130700Y-89928900D02*
X274830700Y-89628900D01*
X275130700Y-94398900D02*
X275130700Y-89928900D01*
X273540700Y-96068900D02*
X273540700Y-95988900D01*
X272403353Y-79908468D02*
X273540700Y-81045815D01*
X268653353Y-79908468D02*
X272403353Y-79908468D01*
X265710795Y-76965910D02*
X268653353Y-79908468D01*
X265600700Y-76965910D02*
X265710795Y-76965910D01*
D43*
%TO.N,col1_r*%
X255830700Y-89628900D02*
X256078200Y-89876400D01*
X256000700Y-89458900D02*
X255830700Y-89628900D01*
X255900700Y-70558900D02*
X255830700Y-70628900D01*
X255830700Y-51628900D02*
X255900700Y-51698900D01*
X255900700Y-89558900D02*
X255830700Y-89628900D01*
X255830700Y-70628900D02*
X255900700Y-70698900D01*
X255700700Y-77188900D02*
X255900700Y-76988900D01*
X255700700Y-77311400D02*
X255700700Y-77188900D01*
X255900700Y-70698900D02*
X255900700Y-76988900D01*
D44*
X254680700Y-77068900D02*
X255900700Y-78288900D01*
X254540700Y-77068900D02*
X254680700Y-77068900D01*
D43*
X255900700Y-78288900D02*
X255900700Y-89558900D01*
X255900700Y-76988900D02*
X255900700Y-78288900D01*
D44*
X255900700Y-59178900D02*
X255900700Y-59208900D01*
X254540700Y-58068900D02*
X254790700Y-58068900D01*
X254790700Y-58068900D02*
X255900700Y-59178900D01*
D43*
X255900700Y-59208900D02*
X255900700Y-70558900D01*
X255900700Y-51698900D02*
X255900700Y-59208900D01*
D44*
X254540700Y-95948900D02*
X254540700Y-96068900D01*
X256140700Y-89938900D02*
X256140700Y-94348900D01*
X256140700Y-94348900D02*
X254540700Y-95948900D01*
X255830700Y-89628900D02*
X256140700Y-89938900D01*
D43*
%TO.N,col2_r*%
X236874847Y-76630432D02*
X237122347Y-76877932D01*
X236944847Y-57560432D02*
X236874847Y-57630432D01*
X236874847Y-38630432D02*
X236944847Y-38700432D01*
X236944847Y-76560432D02*
X236874847Y-76630432D01*
X236874847Y-57630432D02*
X236944847Y-57700432D01*
D44*
X235754847Y-45070432D02*
X236944847Y-46260432D01*
X235584847Y-45070432D02*
X235754847Y-45070432D01*
D43*
X236944847Y-46260432D02*
X236944847Y-57560432D01*
X236944847Y-38700432D02*
X236944847Y-46260432D01*
D44*
X235754847Y-64070432D02*
X236944847Y-65260432D01*
X235584847Y-64070432D02*
X235754847Y-64070432D01*
D43*
X236944847Y-65260432D02*
X236944847Y-76560432D01*
X236944847Y-57700432D02*
X236944847Y-65260432D01*
X236689727Y-69540432D02*
X236682716Y-69547443D01*
X236944847Y-69540432D02*
X236689727Y-69540432D01*
X236682716Y-69547443D02*
X236382717Y-69847442D01*
D44*
X237194847Y-76950432D02*
X236874847Y-76630432D01*
X237194847Y-81450432D02*
X237194847Y-76950432D01*
X235584847Y-83060432D02*
X237194847Y-81450432D01*
X235584847Y-83070432D02*
X235584847Y-83060432D01*
D43*
%TO.N,col3_r*%
X208374847Y-96255432D02*
X208622347Y-96502932D01*
X218122347Y-86507932D02*
X208374847Y-96255432D01*
X217874847Y-74255432D02*
X218122347Y-74502932D01*
X217944847Y-74185432D02*
X217874847Y-74255432D01*
X217874847Y-55255432D02*
X217944847Y-55325432D01*
X218094847Y-55035432D02*
X217874847Y-55255432D01*
X217874847Y-36255432D02*
X218094847Y-36475432D01*
D44*
X217892347Y-81752932D02*
X218122347Y-81752932D01*
X216584847Y-80695432D02*
X216834847Y-80695432D01*
X216834847Y-80695432D02*
X217892347Y-81752932D01*
D43*
X218122347Y-81752932D02*
X218122347Y-86507932D01*
X218122347Y-74502932D02*
X218122347Y-81752932D01*
D44*
X216889847Y-61695432D02*
X217944847Y-62750432D01*
X216584847Y-61695432D02*
X216889847Y-61695432D01*
D43*
X217944847Y-62750432D02*
X217944847Y-74185432D01*
X217944847Y-55325432D02*
X217944847Y-62750432D01*
D44*
X216834847Y-42695432D02*
X218089847Y-43950432D01*
X216584847Y-42695432D02*
X216834847Y-42695432D01*
X218089847Y-43950432D02*
X218094847Y-43950432D01*
D43*
X218094847Y-43950432D02*
X218094847Y-55035432D01*
X218094847Y-36475432D02*
X218094847Y-43950432D01*
X217805868Y-69940432D02*
X217744846Y-70001454D01*
X217744846Y-70001454D02*
X217444847Y-70301453D01*
X217944847Y-69940432D02*
X217805868Y-69940432D01*
D44*
X207084847Y-101445432D02*
X207084847Y-102695432D01*
X208664847Y-99865432D02*
X207084847Y-101445432D01*
X208664847Y-96545432D02*
X208664847Y-99865432D01*
X208374847Y-96255432D02*
X208664847Y-96545432D01*
D43*
%TO.N,col4_r*%
X186847269Y-100078081D02*
X186847269Y-100145354D01*
X198944847Y-57560432D02*
X198874847Y-57630432D01*
X198874847Y-38630432D02*
X198944847Y-38700432D01*
X198844847Y-76600432D02*
X198874847Y-76630432D01*
X198944847Y-76560432D02*
X198874847Y-76630432D01*
X198874847Y-57630432D02*
X198944847Y-57700432D01*
X186847269Y-97383010D02*
X186847269Y-100078081D01*
X198994847Y-85235432D02*
X186847269Y-97383010D01*
X198874847Y-76630432D02*
X198994847Y-76750432D01*
D44*
X188191197Y-105709343D02*
X187268020Y-106632520D01*
X188191197Y-101506782D02*
X188191197Y-105709343D01*
X186847269Y-100162854D02*
X188191197Y-101506782D01*
X186847269Y-100078081D02*
X186847269Y-100162854D01*
X197704847Y-45070432D02*
X198944847Y-46310432D01*
X197584847Y-45070432D02*
X197704847Y-45070432D01*
D43*
X198944847Y-46310432D02*
X198944847Y-57560432D01*
X198944847Y-38700432D02*
X198944847Y-46310432D01*
D44*
X197754847Y-64070432D02*
X198944847Y-65260432D01*
X197584847Y-64070432D02*
X197754847Y-64070432D01*
D43*
X198944847Y-65260432D02*
X198944847Y-76560432D01*
X198944847Y-57700432D02*
X198944847Y-65260432D01*
D44*
X197864847Y-83070432D02*
X198994847Y-81940432D01*
X197584847Y-83070432D02*
X197864847Y-83070432D01*
D43*
X198994847Y-81940432D02*
X198994847Y-85235432D01*
X198994847Y-76750432D02*
X198994847Y-81940432D01*
X198850866Y-71134413D02*
X198823796Y-71134413D01*
X198823796Y-71134413D02*
X198523797Y-70834414D01*
X198944847Y-71040432D02*
X198850866Y-71134413D01*
%TO.N,col5_r*%
X179944847Y-78935432D02*
X179874847Y-79005432D01*
X179944847Y-73240432D02*
X179944847Y-78935432D01*
X179874847Y-60005432D02*
X179874847Y-61259432D01*
X179874847Y-61259432D02*
X179971848Y-61356433D01*
X169229552Y-97781977D02*
X169229552Y-100725875D01*
X180094847Y-86916682D02*
X169229552Y-97781977D01*
X179874847Y-79005432D02*
X180094847Y-79225432D01*
D44*
X167126725Y-102828702D02*
X163007348Y-102828702D01*
X169229552Y-100725875D02*
X167126725Y-102828702D01*
D43*
X180094847Y-83890432D02*
X180094847Y-86916682D01*
X180094847Y-79225432D02*
X180094847Y-83890432D01*
D44*
X180094847Y-83935432D02*
X180094847Y-83890432D01*
X178584847Y-85445432D02*
X180094847Y-83935432D01*
X178584847Y-66445432D02*
X178763849Y-66445432D01*
D43*
X179971848Y-67653431D02*
X179971848Y-73213431D01*
D44*
X178763849Y-66445432D02*
X179971848Y-67653431D01*
D43*
X179971848Y-61356433D02*
X179971848Y-67653431D01*
D44*
X178769847Y-47445432D02*
X179944847Y-48620432D01*
X178584847Y-47445432D02*
X178769847Y-47445432D01*
D43*
X180124847Y-59755432D02*
X179874847Y-60005432D01*
X180124847Y-48800432D02*
X180124847Y-59755432D01*
X179944847Y-48620432D02*
X180124847Y-48800432D01*
X180124847Y-41255432D02*
X180124847Y-48800432D01*
X179874847Y-41005432D02*
X180124847Y-41255432D01*
X179971848Y-73213431D02*
X179944847Y-73240432D01*
X179944847Y-73240432D02*
X179944847Y-73240420D01*
D46*
%TO.N,VDD*%
X165284847Y-77310432D02*
X165189847Y-77310432D01*
X165314847Y-77340432D02*
X165284847Y-77310432D01*
X165314847Y-78120432D02*
X165314847Y-77340432D01*
X163104847Y-80330432D02*
X165314847Y-78120432D01*
X162169847Y-80330432D02*
X163104847Y-80330432D01*
X156454247Y-49828432D02*
X158194847Y-51569032D01*
X158194847Y-51569032D02*
X158194847Y-78534812D01*
X158194847Y-78534812D02*
X159990467Y-80330432D01*
X159990467Y-80330432D02*
X162169847Y-80330432D01*
X164907847Y-81973432D02*
X164907847Y-82465432D01*
X163264847Y-80330432D02*
X164907847Y-81973432D01*
X162169847Y-80330432D02*
X163264847Y-80330432D01*
D45*
%TO.N,GNDA*%
X154854847Y-46140432D02*
X154854847Y-73047432D01*
X155484848Y-45510431D02*
X154854847Y-46140432D01*
X155692248Y-45510431D02*
X155484848Y-45510431D01*
X156454247Y-44748432D02*
X155692248Y-45510431D01*
D46*
X171674247Y-47288432D02*
X171674247Y-49828432D01*
X167759847Y-77340432D02*
X167854847Y-77340432D01*
X167729847Y-77310432D02*
X167759847Y-77340432D01*
D45*
X155374847Y-73567432D02*
X156374847Y-73567432D01*
X154854847Y-73047432D02*
X155374847Y-73567432D01*
X160907847Y-82465432D02*
X160907847Y-83465432D01*
X160907847Y-82243432D02*
X160907847Y-82465432D01*
X154854847Y-76190432D02*
X160907847Y-82243432D01*
X154854847Y-73047432D02*
X154854847Y-76190432D01*
D46*
X160907847Y-84815432D02*
X160907847Y-83465432D01*
X160907847Y-84833432D02*
X160907847Y-84815432D01*
X161994847Y-85920432D02*
X160907847Y-84833432D01*
X167854847Y-82590432D02*
X164524847Y-85920432D01*
X164524847Y-85920432D02*
X161994847Y-85920432D01*
X167854847Y-77340432D02*
X167854847Y-82590432D01*
%TD*%
M02*
