%TF.GenerationSoftware,KiCad,Pcbnew,(6.0.11)*%
%TF.CreationDate,2023-01-31T22:09:30+01:00*%
%TF.ProjectId,corne-light,636f726e-652d-46c6-9967-68742e6b6963,2.0*%
%TF.SameCoordinates,Original*%
%TF.FileFunction,Soldermask,Top*%
%TF.FilePolarity,Negative*%
%FSLAX46Y46*%
G04 Gerber Fmt 4.6, Leading zero omitted, Abs format (unit mm)*
G04 Created by KiCad (PCBNEW (6.0.11)) date 2023-01-31 22:09:30*
%MOMM*%
%LPD*%
G01*
G04 APERTURE LIST*
G04 Aperture macros list*
%AMRoundRect*
0 Rectangle with rounded corners*
0 $1 Rounding radius*
0 $2 $3 $4 $5 $6 $7 $8 $9 X,Y pos of 4 corners*
0 Add a 4 corners polygon primitive as box body*
4,1,4,$2,$3,$4,$5,$6,$7,$8,$9,$2,$3,0*
0 Add four circle primitives for the rounded corners*
1,1,$1+$1,$2,$3*
1,1,$1+$1,$4,$5*
1,1,$1+$1,$6,$7*
1,1,$1+$1,$8,$9*
0 Add four rect primitives between the rounded corners*
20,1,$1+$1,$2,$3,$4,$5,0*
20,1,$1+$1,$4,$5,$6,$7,0*
20,1,$1+$1,$6,$7,$8,$9,0*
20,1,$1+$1,$8,$9,$2,$3,0*%
G04 Aperture macros list end*
%ADD10C,4.700000*%
%ADD11O,1.700000X2.178000*%
%ADD12RoundRect,0.200000X0.650000X-0.889000X0.650000X0.889000X-0.650000X0.889000X-0.650000X-0.889000X0*%
%ADD13C,1.600000*%
%ADD14C,2.700000*%
%ADD15C,0.700000*%
G04 APERTURE END LIST*
D10*
%TO.C,Ref\u002A\u002A*%
X50712500Y-55445000D03*
%TD*%
%TO.C,Ref\u002A\u002A*%
X50712500Y-74445000D03*
%TD*%
D11*
%TO.C,D13*%
X30187500Y-80916875D03*
D12*
X30187500Y-86916875D03*
%TD*%
D11*
%TO.C,D14*%
X33187500Y-80920000D03*
D12*
X33187500Y-86920000D03*
%TD*%
D11*
%TO.C,D34*%
X270640700Y-89168900D03*
D12*
X270640700Y-95168900D03*
%TD*%
D11*
%TO.C,D12*%
X109187500Y-56920000D03*
D12*
X109187500Y-62920000D03*
%TD*%
D11*
%TO.C,D33*%
X191684847Y-56920432D03*
D12*
X191684847Y-62920432D03*
%TD*%
D11*
%TO.C,D32*%
X194684847Y-56920432D03*
D12*
X194684847Y-62920432D03*
%TD*%
D11*
%TO.C,D31*%
X229684847Y-56915432D03*
D12*
X229684847Y-62915432D03*
%TD*%
D11*
%TO.C,D30*%
X232684847Y-56920432D03*
D12*
X232684847Y-62920432D03*
%TD*%
D11*
%TO.C,D29*%
X267640700Y-70168900D03*
D12*
X267640700Y-76168900D03*
%TD*%
D11*
%TO.C,D28*%
X270640700Y-70168900D03*
D12*
X270640700Y-76168900D03*
%TD*%
D11*
%TO.C,D27*%
X191684847Y-37920432D03*
D12*
X191684847Y-43920432D03*
%TD*%
D11*
%TO.C,D26*%
X194684847Y-37920432D03*
D12*
X194684847Y-43920432D03*
%TD*%
D11*
%TO.C,D25*%
X229684847Y-37915432D03*
D12*
X229684847Y-43915432D03*
%TD*%
D11*
%TO.C,D24*%
X232684847Y-37920432D03*
D12*
X232684847Y-43920432D03*
%TD*%
D11*
%TO.C,D23*%
X267640700Y-51168900D03*
D12*
X267640700Y-57168900D03*
%TD*%
D11*
%TO.C,D22*%
X270640700Y-51168900D03*
D12*
X270640700Y-57168900D03*
%TD*%
D11*
%TO.C,D42*%
X201194847Y-95915432D03*
D12*
X201194847Y-101915432D03*
%TD*%
D11*
%TO.C,D41*%
X204194847Y-95915432D03*
D12*
X204194847Y-101915432D03*
%TD*%
D11*
%TO.C,D40*%
X220184847Y-95930432D03*
D12*
X220184847Y-101930432D03*
%TD*%
D11*
%TO.C,D39*%
X191684847Y-75920432D03*
D12*
X191684847Y-81920432D03*
%TD*%
D11*
%TO.C,D38*%
X194684847Y-75920432D03*
D12*
X194684847Y-81920432D03*
%TD*%
D11*
%TO.C,D37*%
X229684847Y-75915432D03*
D12*
X229684847Y-81915432D03*
%TD*%
D11*
%TO.C,D36*%
X232684847Y-75920432D03*
D12*
X232684847Y-81920432D03*
%TD*%
D11*
%TO.C,D35*%
X267640700Y-89168900D03*
D12*
X267640700Y-95168900D03*
%TD*%
D11*
%TO.C,D1*%
X30187500Y-42916875D03*
D12*
X30187500Y-48916875D03*
%TD*%
D11*
%TO.C,D2*%
X33187500Y-42920000D03*
D12*
X33187500Y-48920000D03*
%TD*%
D11*
%TO.C,D3*%
X68187500Y-37920000D03*
D12*
X68187500Y-43920000D03*
%TD*%
D11*
%TO.C,D4*%
X71187500Y-37915000D03*
D12*
X71187500Y-43915000D03*
%TD*%
D11*
%TO.C,D5*%
X106187500Y-37920000D03*
D12*
X106187500Y-43920000D03*
%TD*%
D11*
%TO.C,D6*%
X109187500Y-37920000D03*
D12*
X109187500Y-43920000D03*
%TD*%
D11*
%TO.C,D7*%
X30187500Y-61916875D03*
D12*
X30187500Y-67916875D03*
%TD*%
D11*
%TO.C,D8*%
X33187500Y-61920000D03*
D12*
X33187500Y-67920000D03*
%TD*%
D11*
%TO.C,D9*%
X68187500Y-56920000D03*
D12*
X68187500Y-62920000D03*
%TD*%
D11*
%TO.C,D10*%
X71187500Y-56915000D03*
D12*
X71187500Y-62915000D03*
%TD*%
D11*
%TO.C,D11*%
X106187500Y-56920000D03*
D12*
X106187500Y-62920000D03*
%TD*%
D11*
%TO.C,D15*%
X68187500Y-75920000D03*
D12*
X68187500Y-81920000D03*
%TD*%
D11*
%TO.C,D16*%
X71187500Y-75915000D03*
D12*
X71187500Y-81915000D03*
%TD*%
D11*
%TO.C,D17*%
X106187500Y-75920000D03*
D12*
X106187500Y-81920000D03*
%TD*%
D11*
%TO.C,D18*%
X109187500Y-75920000D03*
D12*
X109187500Y-81920000D03*
%TD*%
D11*
%TO.C,D19*%
X80507500Y-95910000D03*
D12*
X80507500Y-101910000D03*
%TD*%
D11*
%TO.C,D20*%
X96687500Y-95905000D03*
D12*
X96687500Y-101905000D03*
%TD*%
D11*
%TO.C,D21*%
X99687500Y-95905000D03*
D12*
X99687500Y-101905000D03*
%TD*%
D13*
%TO.C,J6*%
X163107847Y-84565432D03*
X156107847Y-84565432D03*
%TD*%
%TO.C,J1*%
X137714500Y-84432000D03*
X144714500Y-84432000D03*
%TD*%
D14*
%TO.C,Ref\u002A\u002A*%
X170889847Y-84542432D03*
%TD*%
%TO.C,Ref\u002A\u002A*%
X156330847Y-93085432D03*
%TD*%
%TO.C,Ref\u002A\u002A*%
X144376500Y-92940000D03*
%TD*%
%TO.C,Ref\u002A\u002A*%
X129944500Y-84419000D03*
%TD*%
D10*
%TO.C,Ref\u002A\u002A*%
X269151700Y-82675400D03*
%TD*%
%TO.C,Ref\u002A\u002A*%
X269151700Y-63675400D03*
%TD*%
%TO.C,Ref\u002A\u002A*%
X226055847Y-91696932D03*
%TD*%
%TO.C,Ref\u002A\u002A*%
X179485847Y-99446932D03*
%TD*%
%TO.C,Ref\u002A\u002A*%
X193235847Y-51936932D03*
%TD*%
%TO.C,Ref\u002A\u002A*%
X121405500Y-99300000D03*
%TD*%
%TO.C,Ref\u002A\u002A*%
X74839500Y-91685500D03*
%TD*%
%TO.C,Ref\u002A\u002A*%
X31695500Y-55420500D03*
%TD*%
%TO.C,Ref\u002A\u002A*%
X107650500Y-51930500D03*
%TD*%
%TO.C,Ref\u002A\u002A*%
X31695500Y-74420500D03*
%TD*%
D15*
%TO.C,J5*%
X239640000Y-93390000D03*
X238452500Y-93390000D03*
X240233750Y-93390000D03*
X239046250Y-93390000D03*
X243202500Y-93390000D03*
X242608750Y-93390000D03*
X242015000Y-93390000D03*
X241421250Y-93390000D03*
X240827500Y-93390000D03*
%TD*%
%TO.C,J5*%
X277595853Y-101638468D03*
X276408353Y-101638468D03*
X278189603Y-101638468D03*
X277002103Y-101638468D03*
X281158353Y-101638468D03*
X280564603Y-101638468D03*
X279970853Y-101638468D03*
X279377103Y-101638468D03*
X278783353Y-101638468D03*
%TD*%
%TO.C,J5*%
X239610000Y-31970000D03*
X238422500Y-31970000D03*
X240203750Y-31970000D03*
X239016250Y-31970000D03*
X243172500Y-31970000D03*
X242578750Y-31970000D03*
X241985000Y-31970000D03*
X241391250Y-31970000D03*
X240797500Y-31970000D03*
%TD*%
%TO.C,J5*%
X201590000Y-31980000D03*
X200402500Y-31980000D03*
X202183750Y-31980000D03*
X200996250Y-31980000D03*
X205152500Y-31980000D03*
X204558750Y-31980000D03*
X203965000Y-31980000D03*
X203371250Y-31980000D03*
X202777500Y-31980000D03*
%TD*%
%TO.C,J5*%
X97070000Y-31970000D03*
X95882500Y-31970000D03*
X97663750Y-31970000D03*
X96476250Y-31970000D03*
X100632500Y-31970000D03*
X100038750Y-31970000D03*
X99445000Y-31970000D03*
X98851250Y-31970000D03*
X98257500Y-31970000D03*
%TD*%
%TO.C,J5*%
X59100000Y-31970000D03*
X57912500Y-31970000D03*
X59693750Y-31970000D03*
X58506250Y-31970000D03*
X62662500Y-31970000D03*
X62068750Y-31970000D03*
X61475000Y-31970000D03*
X60881250Y-31970000D03*
X60287500Y-31970000D03*
%TD*%
%TO.C,J5*%
X58997000Y-93380000D03*
X57809500Y-93380000D03*
X59590750Y-93380000D03*
X58403250Y-93380000D03*
X62559500Y-93380000D03*
X61965750Y-93380000D03*
X61372000Y-93380000D03*
X60778250Y-93380000D03*
X60184500Y-93380000D03*
%TD*%
%TO.C,J5*%
X21008750Y-93380000D03*
X19821250Y-93380000D03*
X21602500Y-93380000D03*
X20415000Y-93380000D03*
X24571250Y-93380000D03*
X23977500Y-93380000D03*
X23383750Y-93380000D03*
X22790000Y-93380000D03*
X22196250Y-93380000D03*
%TD*%
M02*
